<?xml version="1.0" standalone="no"?>
<!DOCTYPE svg PUBLIC "-//W3C//DTD SVG 1.1//EN" "http://www.w3.org/Graphics/SVG/1.1/DTD/svg11.dtd" >
<svg xmlns="http://www.w3.org/2000/svg">
<metadata></metadata>
<defs>
<font id="kaileyregular" horiz-adv-x="1341" >
<font-face units-per-em="2048" ascent="1638" descent="-410" />
<missing-glyph horiz-adv-x="696" />
<glyph unicode="&#xfb01;" horiz-adv-x="1060" d="M-158 -679.5q-5 42.5 1 95.5t16 104t24.5 107.5t27.5 101.5q16 58 23 83q20 74 70.5 219t129.5 340t164.5 379t184 341.5t178.5 221.5q36 29 76.5 37.5t75 -3.5t61.5 -37t37.5 -66.5t0.5 -89.5q-9 -44 -30.5 -104t-56 -135.5t-83 -146t-105.5 -129.5t-131 -92t-152 -28 q-40 -84 -65 -146q-64 -153 -139 -369q37 -18 60 -43q109 0 496 410q9 10 13 14q30 -38 -19 -120.5t-132 -162.5t-170 -143.5t-127 -67.5q19 -51 23.5 -126t-5 -156.5t-34.5 -163t-60.5 -145t-89 -101.5t-115.5 -35q-48 3 -80.5 23.5t-47.5 55.5t-20 77.5zM-14.5 -555.5 q-45.5 -206.5 0.5 -214.5q33 -7 75.5 50t75 149t51 191.5t5 190t-63.5 132.5q-98 -292 -143.5 -498.5zM397 607q99 9 227 169t194 321.5t15 176.5q-24 7 -99 -94.5t-165.5 -256.5t-171.5 -316zM672 208q18 92 66 222t87 214l39 84q3 1 8.5 2t20.5 4t29 3.5t31 1t29 -4 t20.5 -12t8 -22t-10.5 -34.5q-37 -73 -98 -229t-97 -257q-29 -74 -15.5 -112t74.5 -3q39 22 136 115t174 175l78 82q16 -21 -10.5 -73t-80.5 -112t-117.5 -116.5t-128 -94t-104.5 -37.5q-71 -1 -115 49t-24 155z" />
<glyph unicode="&#xfb02;" horiz-adv-x="1134" d="M-113.5 -647.5q0.5 47.5 3 86.5t13 95.5t18 93t20.5 91.5t18 80q16 75 59.5 222.5t113 346t146 387t166.5 350.5t167 230q43 38 93.5 43.5t89.5 -16t61.5 -68.5t12.5 -107q-7 -44 -25.5 -105t-49 -138t-75.5 -150t-99 -134.5t-126 -98.5t-150 -35q-42 -104 -58 -148 q-63 -178 -121 -377q42 -19 63 -40q54 3 175.5 104t238 229.5t165.5 212.5q-8 -88 -54 -180t-109.5 -164.5t-133 -132.5t-128 -94.5t-91.5 -39.5q21 -50 29.5 -125t3.5 -157t-26 -164t-53.5 -147.5t-84 -106t-113.5 -40.5q-43 0 -74 14.5t-48.5 43t-27.5 60t-9.5 79z M13 -714q1 -62 24 -66q34 -5 74 54t67.5 152.5t41.5 194t-4 190t-70 128.5q-39 -137 -68.5 -261t-47.5 -227t-17 -165zM382 616q99 14 218.5 180t177 330.5t6.5 177.5q-37 9 -162 -209t-240 -479zM727.5 258q3.5 114 44 263t115.5 319q137 313 251.5 470t206.5 131 q48 -14 61.5 -79t-12 -160t-78 -197.5t-146.5 -203t-208 -165.5q-56 -153 -85 -275.5t-23 -211t58 -102.5q35 -9 175 145t245 313q15 -15 13.5 -49t-25.5 -81.5t-56.5 -99t-78.5 -101.5t-93 -89.5t-99 -62.5t-96 -20q-88 5 -130.5 73.5t-39 182.5zM1000 735q84 37 184.5 186 t152.5 289t17 160q-22 12 -81.5 -77.5t-133.5 -241t-139 -316.5z" />
<glyph horiz-adv-x="2048" />
<glyph horiz-adv-x="2048" />
<glyph unicode="&#xd;" horiz-adv-x="2048" />
<glyph unicode=" "  horiz-adv-x="696" />
<glyph unicode="&#x09;" horiz-adv-x="696" />
<glyph unicode="&#xa0;" horiz-adv-x="696" />
<glyph unicode="!" horiz-adv-x="446" d="M145 38q-8 38 26 72q23 25 54 28q39 4 49 -36q10 -41 -17 -74q-19 -23 -47 -26q-57 -5 -65 36zM180.5 338q0.5 8 1 18t2.5 23q18 133 121 421.5t196 479.5q2 4 9.5 23t15.5 35.5t20 38t26 34.5t30.5 21t36 2t40.5 -27q2 -16 -46 -127t-109.5 -250.5t-123 -316.5 t-81.5 -303l-4 -75q-9 -15 -78 -25q-2 0 -12.5 -2t-12 -2t-9 -0.5t-8.5 1t-6 3t-5 6t-2 9.5t-1.5 13z" />
<glyph unicode="&#x22;" horiz-adv-x="327" d="M323 1168q114 175 166 354q54 4 49 -66q-7 -82 -75 -196q-40 -68 -75 -97q-16 -13 -27 -15t-17.5 2.5t-20.5 17.5zM486 1205q40 60 83.5 152.5t66.5 168.5q66 -15 33 -135.5t-100 -187.5q-23 -23 -42 -26t-28.5 6t-12.5 22z" />
<glyph unicode="#" horiz-adv-x="1593" d="M164 612q55 3 90 7t56 8t77 13.5t126 20.5q101 188 114 247q-81 -8 -268 -32q-26 -3 -54.5 -7.5t-40.5 -7.5t-26 -2.5t-18 2.5t-8.5 11.5t-5 20t-0.5 33.5l455 69q129 246 262 431q58 83 136 91q-7 -14 -110 -182t-179 -328q78 8 228.5 20.5t212.5 19.5q39 80 102.5 192 t121.5 185q57 70 107 49q-24 -29 -53 -74.5t-52.5 -86.5t-70 -123t-81.5 -143h11q12 1 30.5 1t44 0.5t54.5 1t59.5 0.5t62 -0.5t59.5 -1t53.5 -1.5t43.5 -3q24 -2 37.5 -17.5t15.5 -29.5l1 -15q-186 18 -516 -21q-25 -46 -42.5 -82.5t-36.5 -81.5t-31 -71q280 3 342 2.5 t159 -6.5q3 -28 -20.5 -46t-56.5 -21.5t-65 -5t-46 1.5h-6q-53 5 -150.5 2.5t-185.5 -20.5q-101 -206 -139.5 -351t-58.5 -377q-10 -11 -30 -19t-41.5 -9.5t-34.5 19t-7 62.5q15 105 84.5 316t132.5 356q0 -1 -97.5 -8.5t-202 -18t-118.5 -17.5q-82 -226 -115 -336.5 t-39 -180.5t3 -138q-21 -18 -48 -30t-53.5 -14t-40.5 22t-7 74q13 88 42 180.5t81.5 227.5t71.5 188q-32 2 -125.5 -11t-130.5 -9q-28 3 -44 16.5t-19 25.5zM620 679q5 -1 217 22.5t214 24.5q105 220 105 226q-18 2 -124.5 -7.5t-203.5 -19.5l-98 -10q-106 -179 -110 -236z " />
<glyph unicode="$" horiz-adv-x="753" d="M81 326q1 165 123 267q70 59 135 66q36 5 39 -13q-5 -6 -20.5 -25t-20 -24.5t-17.5 -22.5t-18 -24t-15.5 -23t-15.5 -26t-13.5 -26.5t-14 -31t-12 -33t-11.5 -38.5q-17 -70 -20 -132t25 -103.5t83 -40.5q38 154 81 309t67 233l24 79q-53 144 -63 224q-13 100 14.5 191.5 t78 151t110.5 94.5t112 35q25 55 42 96.5t22.5 58t12 31t15.5 28.5q18 29 50.5 54.5t55.5 14.5l-104 -288q75 -19 113.5 -68t36.5 -112q-2 -43 -27.5 -89.5t-64 -80t-84 -47t-87.5 9.5q40 23 87.5 100t47.5 148q0 36 -13 61t-33 32q-64 -206 -216 -575q54 -162 79 -262 q42 -163 -21.5 -287.5t-237.5 -177.5q-5 -22 -9 -58.5t-5 -61.5l-1 -26q-33 -9 -53.5 -13t-34 0.5t-19 10.5t-5 29t4 43t12.5 64q-48 12 -83.5 29t-67.5 48t-48 81.5t-16 119.5zM413 114q46 16 90.5 73t55.5 102q9 37 10.5 71.5t-8 80t-16 70t-25.5 87.5q-60 -209 -107 -484 zM557 908q14 39 49.5 138.5t60.5 172.5t46 143q-55 -17 -94 -84t-56 -144q-25 -115 -6 -226z" />
<glyph unicode="%" horiz-adv-x="1140" d="M130 -16q1 14 39.5 96.5t123 233t196.5 321.5t283.5 382.5t359.5 396.5q-73 -42 -151 -64t-195 -38q0 -1 -21 -30t-55 -68.5t-60 -60.5q-21 -17 -46 -31t-55.5 -25t-64.5 -10.5t-63 15.5q-49 24 -60.5 70t8 97t54.5 104t72.5 93.5t68.5 63.5q23 17 54.5 33t71.5 28.5 t77 5.5t59 -38q20 -28 21 -66.5t-6 -63.5t-24 -70q30 -3 70.5 6t70 20.5t78.5 32.5t71 29q4 1 24.5 12t45.5 23.5t55.5 25.5t56.5 21t46.5 6.5t26.5 -15.5q-65 -77 -173 -200t-173 -199t-157 -189t-157 -210t-138 -219.5t-135 -260t-117 -291.5q-32 -12 -63 -18.5t-60 -6.5 t-45.5 14.5t-13.5 43.5zM449 1132.5q14 -9.5 36 -5t43 17.5q28 17 72 63t85 110q-24 15 -50 41.5t-39 59.5q-8 -12 -46 -66t-60 -92.5t-40 -81.5q-15 -37 -1 -46.5zM654 -8q-48 70 25 191q61 101 162 171q116 79 189 49q24 -10 40 -32q51 -72 -2 -198q-48 -111 -142 -187 q-108 -87 -196 -56q-44 15 -76 62zM671 1509q-23 -37 4 -89q20 -37 41 -37q9 0 15 10q14 25 28 69t5 64q-17 33 -43.5 26.5t-49.5 -43.5zM751 69q-32 -87 31 -98q20 -4 43.5 11t51 49.5t39.5 52t37 55.5q10 15 43 102q51 135 16 130q-39 -5 -124 -98q-103 -113 -137 -204z " />
<glyph unicode="&#x26;" horiz-adv-x="1486" d="M175 416q0 97 27 194t80 181t124.5 144.5t167 86t199.5 4.5q22 92 31.5 131t24.5 84t33 80q37 74 96 128t127.5 79.5t145.5 10t145 -75.5q64 -56 64 -154q0 -61 -26 -115t-63.5 -88t-77.5 -57t-70 -31t-39 -1q91 90 115 122q37 48 61 118q29 83 11 148q-40 145 -163 86 q-82 -39 -163 -143q-28 -35 -43 -63q-37 -68 -70 -152.5t-38 -142.5q7 -4 19 -11t41.5 -33.5t50.5 -58.5q22 -33 37 -74.5t8 -85.5t-49 -59q-19 -9 -42.5 -3.5t-48.5 17t-47.5 38t-40 60t-27 83.5t-7.5 108q-56 10 -109.5 -13t-96.5 -70.5t-79 -114.5t-60 -143t-36.5 -157.5 t-11.5 -156.5q2 -146 56 -238.5t159 -95.5q62 -3 122.5 26t106 78.5t79 109t47.5 121.5t6 112q-111 28 -208 -23q-60 -32 -81.5 -68.5t-36.5 -115.5q-33 11 -27.5 51.5t29.5 85t51 72.5q77 80 242 102q29 4 111 8.5t150.5 15t119.5 33.5q46 21 75.5 51.5t42 69t-1.5 86.5 t-55 98q26 24 71 5q30 -13 59 -41t38 -48q36 -81 4 -150.5t-106 -120t-175.5 -79.5t-204.5 -29q-2 -83 -23 -155.5t-55.5 -125t-80 -96t-96.5 -68.5t-105.5 -41.5t-106.5 -15.5t-99 9q-82 19 -143 66.5t-96 113.5t-51.5 140t-16.5 157zM861 855q3 -64 20 -103 q15 -35 43 -50.5t48 -11.5q27 7 29.5 50.5t-12.5 70.5q-34 80 -127 139q-4 -31 -1 -95z" />
<glyph unicode="'" horiz-adv-x="155" d="M299 1138q112 172 165 354q54 4 49 -66q-7 -82 -75 -196q-40 -68 -75 -97q-16 -13 -26.5 -15t-17 2.5t-20.5 17.5z" />
<glyph unicode="(" horiz-adv-x="579" d="M173.5 342q24.5 206 102 392t185 333.5t232.5 245.5q42 33 75.5 58.5t53 40t43 29.5t29.5 19.5t29 17.5t27 16q28 -22 33 -53q4 -25 -31 -58.5t-87.5 -68.5t-61.5 -43q-306 -277 -446.5 -620.5t-71.5 -724.5q13 -72 33 -131t32.5 -83t44.5 -83q-116 -82 -183 183 q-9 36 -20 93q-2 11 -3 15q-40 216 -15.5 422z" />
<glyph unicode=")" horiz-adv-x="546" d="M-260 -334q80 39 192.5 129.5t180.5 167.5q145 163 250 419t111 517q2 76 -10.5 158.5t-30.5 146t-38.5 118.5t-34.5 84t-19 35q86 89 159 -128q45 -133 64 -285q1 -5 1 -8q17 -169 -11 -346t-91.5 -330.5t-152 -285t-191.5 -224.5q-1 -1 -47.5 -45t-79.5 -72t-80 -65 t-82 -50.5t-53 -0.5q-11 8 -20.5 24.5t-12.5 28.5z" />
<glyph unicode="*" horiz-adv-x="745" d="M268.5 1061.5q5.5 14.5 20.5 30.5q20 22 57.5 38.5t77.5 25t77 12.5t61 3.5t26 -4.5q8 -22 -53.5 -63t-135 -70t-95.5 -22q-25 8 -33 21.5t-2.5 28zM526.5 1462q2.5 41 20.5 67q15 -14 32.5 -85.5t21.5 -134.5t-15 -86q-6 -4 -21 40.5t-20 64.5q-11 45 -16 69t-2.5 65z M617 1053.5q0 61.5 9 68.5q11 -1 29.5 -25t36 -57t30.5 -69t13 -60.5t-17 -32.5q-43 -14 -72 50t-29 125.5zM639 1216.5q-1 7.5 5.5 21.5t14 27t19 29t16.5 23t11 14q2 3 11.5 15t18 23.5t23 28.5t26.5 29.5t27.5 27t27 20t25 9.5t21.5 -4q17 -12 17.5 -31t-10.5 -37 t-29 -38.5t-31.5 -32.5t-24.5 -20q-4 -3 -42.5 -35.5t-70 -54.5t-45.5 -22q-9 0 -10 7.5zM690 1179q1 11 73.5 13.5t149.5 -10t88 -37.5q6 -14 -8.5 -24t-41.5 -16q-43 -8 -82 -4t-71.5 16.5t-56.5 26.5t-37 24z" />
<glyph unicode="+" horiz-adv-x="997" d="M148 673q281 -5 326 -6q0 1 19 58.5t42 123.5t31 84q54 120 123 115l54 -8q-113 -226 -154 -372q133 -4 472 3q1 -1 1.5 -3.5t1 -8.5t-0.5 -11.5t-7 -12t-16 -10.5q-17 -7 -92.5 -6t-169 4t-203.5 -1q-25 -70 -75 -219.5t-63 -204.5q-92 -32 -113 20q-7 18 9 60 q99 262 121 342q-16 0 -53.5 -0.5t-60.5 -0.5t-57 1t-55 4.5t-42 9t-30 15.5t-8 24z" />
<glyph unicode="," horiz-adv-x="428" d="M144 70q0 30 17 49.5t50 15.5q72 -10 72 -117q0 -29 -14 -70.5t-28 -67.5l-14 -27q-15 3 -19 12t1.5 25.5t13.5 34.5t16 44t9 50q-44 -39 -73.5 -17t-30.5 68z" />
<glyph unicode="-" horiz-adv-x="1107" d="M166 638l797 10q62 -4 96 -22t31 -56q-295 3 -503 1q-12 0 -72.5 -5.5t-115.5 -7.5t-115 1.5t-92.5 23.5t-25.5 55z" />
<glyph unicode="." horiz-adv-x="425" d="M145.5 51q-9.5 32 12.5 58.5t60 21.5q48 -6 60.5 -40t-14 -62t-70.5 -19q-39 9 -48.5 41z" />
<glyph unicode="/" horiz-adv-x="495" d="M-136 -205q2 8 5 17q59 179 207 547.5t289 685.5q63 142 131 283t104 211l37 70q14 -4 15 -30.5t-11 -71.5t-31.5 -102.5t-48 -129t-58.5 -145t-65.5 -157t-67 -158t-64.5 -154t-56 -140.5q-65 -170 -134 -370t-105 -315l-36 -115q-79 -28 -100 -25q-41 5 -11 99z" />
<glyph unicode="0" horiz-adv-x="1112" d="M147 277.5q-10 118.5 19 249t91.5 271.5t147 267.5t191.5 236t219 178.5q140 87 240 81q21 -1 107 -41q62 -31 56 -39q-13 -7 -59.5 5.5t-65.5 8.5q-62 -13 -158 -88q-85 -65 -181.5 -173.5t-187.5 -247t-161 -283t-102.5 -294t-10.5 -266.5q18 -92 91.5 -122t155.5 17 q172 96 299 349q137 273 177 504q61 352 -9 407q78 -61 115 -152.5t37 -186t-25 -204.5t-58.5 -196.5t-76.5 -172.5q-152 -307 -346 -406q-73 -32 -154.5 -33.5t-162 34t-123.5 98.5q-55 80 -65 198.5z" />
<glyph unicode="1" horiz-adv-x="616" d="M5 -27l1 -2q-5 11 5.5 19.5t33 12.5t42.5 6t44.5 3.5t28.5 1.5q9 74 25.5 152t41 159t46 149t56 151t55.5 135.5t58.5 132.5t52 110t49.5 101t37 75l-190 -116q-66 -39 -117 -56q-31 -11 -32 -1q-1 8 20 37q8 10 53 31l45 22q64 43 109 82q36 30 70.5 62.5t81 79 t60.5 59.5q4 4 26.5 26t45.5 44.5t47.5 46t41.5 37t20 10.5q14 -11 5 -49.5t-26 -80.5t-45 -96t-51.5 -95.5t-45 -79t-25.5 -46.5q-335 -672 -364 -1083q1 -3 93 -1q130 2 130 -23q-1 -4 -4 -9q-2 -4 -260 -9.5t-264 2.5z" />
<glyph unicode="2" horiz-adv-x="1146" d="M-99.5 174.5q9.5 52.5 49 96.5t89.5 57q70 18 174 -4.5t195 -68.5q44 42 120.5 122.5t188.5 211.5t206 257.5t162 257t68 213.5q0 129 -65 178t-176 1q-90 -40 -162.5 -124.5t-145.5 -205.5q-10 -17 -74.5 -155t-77.5 -170l-3 -2q-30 2 -39.5 65t-5.5 123.5t10 84.5 q25 107 96.5 198t173.5 152q48 29 103 51.5t116.5 37.5t123 9.5t108.5 -33.5q179 -107 67 -437q-47 -139 -120.5 -265.5t-155.5 -221.5t-154.5 -167t-148 -141.5t-107.5 -105.5q65 -37 108 -58t106 -40t119 -19q46 0 82.5 13t58.5 30t40 46t27 50.5t21 55.5l3 9 q22 4 34 -11.5t12 -41t-2.5 -47.5t-6.5 -38q-21 -74 -84 -129.5t-161 -59.5q-63 -2 -132.5 18t-119.5 46t-110.5 57t-93.5 43q-1 -1 -22 -14t-45.5 -27.5t-62 -32t-74 -30.5t-79 -19.5t-79 -2t-72.5 25.5t-61 59q-31 50 -21.5 102.5zM-59 172.5q-25 -54.5 10 -100.5 q24 -29 62 -32t84 18t82.5 43t80.5 53t56 38q-24 5 -60.5 16t-62.5 19t-62 16t-59.5 7.5t-54.5 -7.5q-51 -16 -76 -70.5z" />
<glyph unicode="3" horiz-adv-x="1136" d="M82 219q5 42 29.5 95.5t65 105t89 92.5t107 60t112.5 6l28 -40q-24 -12 -69 -50t-97 -95t-83 -132.5t-17 -143.5q14 -66 62 -97t110 -27t129.5 25t124.5 53.5t91 65.5q69 68 114 153t59 163.5t9 148t-31.5 115t-66.5 54.5h-1q-2 -1 -7 -3q-79 -33 -118 -43 q-43 -12 -88 -17.5t-99 7t-70 52.5q-15 37 4 68t59 49t78 28.5t68 12.5q45 3 144 -17h3q43 31 87.5 69.5t90 86t80.5 98t57 100.5t21.5 99t-27.5 89q-35 51 -99 59.5t-135.5 -20.5t-141.5 -76.5t-123 -110t-73 -120.5q-2 -6 -6.5 -27.5t-9 -33.5t-14 -24.5t-25.5 -10.5 t-39 19q-30 22 -34 61.5t13 80.5t36.5 74t38.5 55q54 63 157 111.5t213 67t211.5 -16.5t146.5 -127q24 -50 26 -105t-16.5 -107t-47 -102t-69 -97t-79.5 -84t-81 -71q77 -73 106.5 -167t14 -187.5t-65 -186t-122.5 -166t-167 -124.5t-190 -63q-53 -7 -107 -7t-111 7t-105 27 t-85 50.5t-54.5 79.5t-10.5 111zM554 781q30 -29 164 47q-34 8 -50 8q-49 1 -94 -16q-44 -16 -20 -39z" />
<glyph unicode="4" horiz-adv-x="1046" d="M59 823q18 62 74 91t127 29q22 0 32 -1q40 -4 124 -25q35 -8 34 -7q0 1 -2 2q50 70 85.5 126t79.5 134.5t69 156t29 145.5q1 11 -2 34t1 36.5t20 28.5q10 9 99 19q6 0 6 -33q0 -40 -12.5 -99.5t-41.5 -146.5t-90.5 -201t-146.5 -230l214 -82l-11 -4q46 103 74 155 q111 206 191 361q11 21 31 80t42.5 107.5t48.5 71.5q9 7 79.5 23t104.5 16q16 0 18 -3q7 -11 -4 -41.5t-33.5 -70t-44 -74.5t-42.5 -66.5t-22 -33.5q-17 -29 -61 -105t-66.5 -115.5t-58 -102t-64 -117t-54.5 -108.5q65 -13 151 -13q181 0 292 42q6 2 35 22.5t56.5 37 t37.5 13.5t10 -19q0 -19 -13 -49t-21 -39q-41 -51 -163.5 -79t-207.5 -28q-89 0 -202 12q-6 -14 -34 -80.5t-39 -92.5t-34.5 -87.5t-36 -101t-27 -94t-23.5 -103.5q-3 -16 -6 -52.5t-7 -56.5q5 22 -6 -3q-5 -10 -15 -35q-7 -17 -8 -18q-3 -3 -49 -17.5t-51 -13.5h2 q-45 5 -45 60q0 16 4 44q11 82 33 168t60 187t61.5 157t72.5 170q-14 4 -102 39t-170 47q-34 -23 -106 -57q-58 -28 -92 -34q-23 -5 -57 -5q-67 0 -107 31t-20 98zM97 773q8 -35 48 -35q37 0 88.5 24.5t91.5 52.5q-20 3 -53 7q-30 4 -70 4q-117 0 -105 -53z" />
<glyph unicode="5" horiz-adv-x="1161" d="M49 223.5q2 39.5 10 84.5q26 121 112.5 208.5t207.5 105.5q72 10 90 6q32 -7 8 -42l-3 -2l-29 -13q-29 -13 -31 -15q-12 -8 -23.5 -18t-25 -24t-21 -22.5t-23.5 -27.5t-21 -25q-30 -35 -54.5 -79.5t-37.5 -94.5t-9.5 -94t34 -79.5t87.5 -49.5q103 -26 218 21.5t206 139.5 t152 221t62 257q2 118 -62 180q-48 46 -128.5 51t-153 -16.5t-142.5 -57.5q-2 -1 -24 -19t-44.5 -33.5t-28.5 -14.5q-16 4 -18 15.5t8 27.5t21 29t24 26.5t14 14.5q8 10 58.5 69t72.5 85.5t66.5 83t68 92t47.5 79t33 76.5l11 41h2q-4 2 -10.5 6t-25 16t-33.5 25t-31.5 31.5 t-25 36t-7.5 39t16 40.5q19 25 52 29.5t63.5 -7t50.5 -31.5q14 -14 24.5 -42.5t14.5 -50.5l4 -21q70 -30 221.5 -0.5t252.5 78.5q15 7 28.5 18.5t20.5 19.5l6 8h5l17 -6q-8 -66 -52 -106q-43 -39 -120 -66.5t-155 -38t-137.5 -14t-88.5 -1.5q-51 -205 -197 -389 q58 17 115.5 18t111 -14.5t98.5 -53t73 -93.5q46 -96 48 -198q1 -109 -44.5 -217.5t-123 -193.5t-171.5 -149.5t-195.5 -95.5t-188.5 -22q-161 16 -283 114q-36 29 -52.5 67t-14.5 77.5zM696 1576q-12 -26 15 -44.5t67 -31.5q-16 54 -24 69.5t-23 21.5q-24 9 -35 -15z" />
<glyph unicode="6" horiz-adv-x="1175" d="M207.5 442q-7.5 102 10 204.5t48.5 194t72 161.5q138 233 401 365q141 70 280 103q51 13 118 19q74 7 76 -6q1 -6 -25 -16l-156 -52q-113 -49 -209 -117q-186 -132 -316 -395q-133 -269 -138 -499q-1 -52 7.5 -103.5t28 -101.5t59 -84.5t92.5 -43.5q61 -10 124 9.5 t115.5 60t100.5 97t80.5 121.5t54.5 133t21.5 131.5t-16.5 116.5q-18 51 -49.5 67t-65 4t-70.5 -41.5t-64.5 -60.5t-48.5 -62q-69 -99 -102 -209q-3 -9 -10 -62t-15 -97t-15 -43q-38 12 -48.5 117t-1.5 161q20 130 140 239q55 50 119 83.5t131.5 45t128.5 -22t98 -114.5 q21 -47 23 -102.5t-11.5 -108t-38 -107t-52.5 -98.5t-59 -82q-64 -78 -141.5 -134.5t-175 -84.5t-190.5 -8q-103 22 -172.5 85t-100 149t-38 188z" />
<glyph unicode="7" horiz-adv-x="962" d="M171 215q5 8 13 21q4 8 6 11q71 121 224.5 334t355 455.5t346.5 369.5q-91 5 -157 7t-156 -2t-151.5 -16.5t-117 -40t-79.5 -69.5q-5 -9 -12.5 -46.5t-16.5 -47.5q-11 -12 -29.5 17.5t-22.5 43.5q-19 64 22 116.5t117.5 82t168.5 35.5q63 4 182.5 -7t174.5 -9 q89 3 169 34q8 3 27 13t32 16t32.5 10t29.5 -6q5 -15 5.5 -28t-8.5 -33.5t-18 -36t-24 -35.5t-25.5 -33t-23.5 -28.5t-17 -21.5l-44 -50q-44 -50 -113.5 -131.5t-156.5 -185t-179.5 -219.5t-176 -226t-152.5 -213t-102 -172q-8 -16 -16 -41.5t-13.5 -40t-21.5 -29t-42 -21.5 q-193 -55 -30 223z" />
<glyph unicode="8" horiz-adv-x="1085" d="M100 313q3 60 30.5 119.5t80.5 138.5q43 66 97 131.5t100 112t86 84t63 55.5l23 19l-46 100q-44 90 -49 105q-29 87 -26 143q1 43 29 86q22 34 70 61.5t107 42.5q87 21 171 17q186 -9 340 -126q7 1 37 15t48 13q27 -1 39 -22.5t11 -49.5q0 -10 -10.5 -26t-20.5 -28 l-10 -11l-2 -28l9 -38q7 -39 7 -50l-31 13l-63 75q-98 -75 -158.5 -118t-79.5 -55t-76 -58t-175 -147q126 -173 170.5 -240t72.5 -130q38 -86 35 -168q-6 -150 -137 -259q-71 -59 -175 -93t-207 -30q-42 2 -89.5 15.5t-97.5 42t-89.5 67t-63 96.5t-20.5 125zM209 213 q-4 -78 43 -115.5t129 -41.5q120 -6 261 63q83 40 151 125.5t72 185.5q1 24 -1.5 46.5t-6 40t-15.5 43t-20 41.5t-30.5 50.5t-36 54t-47.5 68t-54 78.5l-59 -59l-70 -70t-63.5 -67t-69 -80t-58.5 -78q-120 -176 -125 -285zM577 1228q-2 -52 19 -114q4 -12 14 -32t18 -34 l8 -14l9 -7q55 45 79 62q16 11 120 86.5t165 120.5l104 78q-88 61 -207 66q-103 5 -191 -34.5t-124 -113.5q-12 -25 -14 -64z" />
<glyph unicode="9" horiz-adv-x="1138" d="M173 16q-8 14 25.5 31.5t83 34.5t57.5 22q54 30 120.5 82t149 131.5t172.5 196t166 249.5q22 38 45.5 83t61.5 125t61.5 153.5t37.5 147.5t-3.5 128.5t-66.5 77.5q-48 19 -105 7.5t-120.5 -53t-125 -98t-117.5 -128t-98.5 -142t-69 -141t-27.5 -124.5q-2 -70 24 -105 t66 -33.5t85.5 24.5t83.5 63q83 86 161 215q5 8 28.5 66.5t48 108.5t37.5 51h2q23 0 32.5 -39.5t8 -76.5t-4.5 -52q-20 -87 -87 -179.5t-155.5 -155t-185 -75t-176.5 60.5q-119 114 -97.5 251t124.5 262t241 217.5t251 117.5q126 28 229 -17.5t129 -160.5 q12 -52 13.5 -105.5t-8 -107t-23 -102.5t-36 -104.5t-43 -99t-49.5 -98.5q-104 -201 -272 -364t-392 -274q-10 -5 -35.5 -16t-66 -26.5t-76.5 -25.5t-67 -13.5t-37 10.5z" />
<glyph unicode=":" horiz-adv-x="444" d="M144.5 88q4.5 22 24.5 38t48 12q48 -6 60.5 -40.5t-13.5 -62.5t-70 -19q-29 6 -41.5 28t-8 44zM328.5 682q4.5 22 24.5 38t49 12q48 -6 60.5 -40.5t-14 -62.5t-70.5 -19q-29 6 -41.5 28t-8 44z" />
<glyph unicode=";" horiz-adv-x="434" d="M143 70q0 30 17 49.5t51 15.5q72 -10 72 -117q0 -29 -14 -70.5t-28 -67.5l-14 -27q-16 3 -19.5 12t2 25.5t13.5 34.5t16 44t9 50q-30 -29 -53 -25t-37 26t-15 50zM314.5 682q4.5 22 24.5 38t49 12q48 -6 60.5 -40.5t-14 -62.5t-70.5 -19q-29 6 -41.5 28t-8 44z" />
<glyph unicode="&#x3c;" horiz-adv-x="778" d="M111 650q32 16 99.5 36t88.5 28q189 72 372.5 129.5t257.5 94.5q7 -39 -92.5 -95.5t-268.5 -114.5t-367 -104q116 -41 184.5 -67.5t163.5 -75.5t160 -102q76 -62 20 -110q-98 83 -286.5 179.5t-318.5 139.5q-83 27 -13 62z" />
<glyph unicode="=" horiz-adv-x="966" d="M148 507q-14 29 202 36q248 9 453 -11q102 -10 102 -23q-1 -33 -189.5 -40.5t-377 6t-190.5 32.5zM252 824q-7 27 40 41q93 26 492 -4q66 -5 220 -18q7 -51 -181 -55.5t-379.5 14t-191.5 22.5z" />
<glyph unicode="&#x3e;" horiz-adv-x="903" d="M97.5 290.5q-0.5 14.5 20.5 36t65 46.5q94 53 214 102t204.5 76t219.5 67q-157 41 -287 93q-148 60 -226 122q-77 63 -22 94q83 -57 129.5 -76t135.5 -49.5t221 -93.5q16 -8 73.5 -28t80.5 -36q16 -11 18 -21t-8.5 -17.5t-23.5 -13t-32 -10.5q-155 -44 -402 -143.5 t-375 -177.5q-5 15 -5.5 29.5z" />
<glyph unicode="?" horiz-adv-x="774" d="M154 104q0 38 28 67.5t68 26.5q54 -4 67.5 -31.5t-4.5 -59t-50 -53.5q-26 -17 -50 -21t-41.5 13.5t-17.5 57.5zM284.5 480q2.5 24 9 46t27.5 48t38 45.5t49 47.5t53.5 46t58.5 47.5t56 45.5q92 78 111 96q48 44 79 80q32 36 56.5 80t40 95.5t5.5 103.5t-48 91 q-35 32 -79 26.5t-92.5 -45.5t-90.5 -95t-72.5 -121.5t-39.5 -124.5q-1 -5 -2.5 -38.5t-7.5 -52t-20 -17.5q-34 3 -48 79.5t-10 124.5q5 68 42 145.5t97 138t138.5 78t165.5 -34.5q101 -62 145.5 -168t8.5 -211q-24 -68 -70.5 -132t-100.5 -111t-117 -93.5t-117 -81.5 t-103 -74t-73 -71q-22 -28 -50 -87q-21 23 -31.5 46.5t-8 47.5z" />
<glyph unicode="@" horiz-adv-x="1044" d="M165.5 464q7.5 114 43 217.5t89.5 188.5q120 187 302.5 282t341.5 33q150 -59 174 -232q20 -149 -56 -315q-66 -146 -165 -212q-89 -60 -170 -24q-32 14 -45 42.5t-7 69t13.5 66t21.5 64.5q-30 -18 -94.5 -85.5t-112.5 -83.5q-55 -18 -84.5 2.5t-27.5 62t18 86.5 q55 134 160 224t159 51q18 -12 32 -60.5t17 -54.5q8 0 28.5 31t27.5 35q14 8 48.5 5.5t40.5 -15.5q5 -11 -6.5 -36t-31.5 -57t-22 -35q-6 -12 -45 -75.5t-52 -98.5q-27 -72 4.5 -98.5t96.5 18.5q56 40 107 125t79.5 179.5t23 189t-54.5 148.5q-33 37 -74 48.5t-87 -1.5 t-81 -29.5t-79 -44.5q-195 -122 -309.5 -285.5t-141.5 -391.5q-7 -57 3 -110t46 -96.5t95 -51.5q18 -2 36.5 1t32.5 7t32.5 16.5t27.5 19t28 25.5l24.5 24.5t25.5 28.5t22 26q32 -22 -13 -74q-61 -70 -110.5 -89.5t-97.5 -14.5q-65 7 -119 46.5t-81 100.5q-41 93 -33.5 207z M500 515l6 1q21 5 43 20.5t35 29.5t35 41t28 34q38 43 70 112q43 94 -10 92q-13 -1 -33 -8q-29 -10 -67.5 -53.5t-56 -69t-49.5 -75.5q-90 -139 -1 -124z" />
<glyph unicode="A" d="M-419 59q-30 57 -30 126q1 76 37 167q70 173 234 303q154 123 306 178t343 75q353 482 793 518q31 2 45.5 -12t12 -38.5t-11.5 -49.5t-23 -50q-82 -143 -179 -333q114 8 216.5 44.5t177 88.5t135.5 115t98 127t56.5 121t19.5 100q0 68 -42.5 114.5t-105.5 66.5t-138 20 q-121 0 -236 -76.5t-159 -154.5q-16 8 -28.5 27.5t-13.5 48t10 59t47.5 63t93.5 56.5q115 48 240 48q98 0 175.5 -28t125.5 -78t72 -114q22 -59 21 -126v-12q-2 -84 -36 -168.5t-102.5 -163t-162 -139.5t-226.5 -98t-286 -37q-146 -302 -222 -540q-9 -28 -15.5 -57t-8.5 -71 q0 -6 1 -11q-1 -34 7 -62q10 -32 40 -55.5t80 -25.5q2 0 5 -1q37 0 71 14q38 14 75.5 50.5t67.5 90t50 138.5t24 190q28 -1 54 -37t36 -98q3 -18 3 -36q0 -48 -18 -106q-21 -64 -74.5 -120.5t-120.5 -88.5t-141 -37q-8 -1 -16 -1q-65 0 -120 36q-88 57 -118 129 q-15 37 -15 89q0 51 14 118q29 135 131 356l54 114q-64 -6 -108.5 -7.5t-91 -1.5t-88.5 -2q-34 -56 -82 -140.5t-82.5 -146.5t-82.5 -139t-88.5 -133t-94 -113.5t-105.5 -94.5t-117 -63t-134 -31q-19 -1 -38 -1q-155 0 -211 107zM-381 202q-11 -40 -11 -71q0 -58 38 -86 q31 -22 82 -22q13 0 26 1q45 4 83.5 21t70.5 40.5t72 70t72 91t86 122.5q27 39 109.5 183.5t142.5 236.5q-291 -53 -511 -240q-103 -88 -169.5 -178.5t-90.5 -168.5zM686 923l274 12q50 94 114.5 205t73.5 129q12 23 12 38q0 13 -8 19q-7 5 -18 4q-19 0 -49 -15 q-87 -44 -191 -142.5t-208 -249.5z" />
<glyph unicode="B" horiz-adv-x="1323" d="M26 192q-1 11 -1 23q-1 97 61 228q68 146 209 297q437 470 529 585q49 61 49 75q0 4 -5 4q-3 0 -8 -2q-58 -38 -98.5 -62.5t-104.5 -54.5q-65 -31 -115 -41q-33 -7 -69 -6q-19 0 -40 2q-59 6 -109 35q-112 68 -112 180q0 26 6 54q24 112 127 211q93 90 178 102q9 1 18 1 q47 0 73 -32q-74 -44 -156.5 -138.5t-122.5 -190.5q-17 -42 -17 -76q0 -45 29 -77q43 -37 109 -37q64 0 150 36q173 73 286 222q41 7 66 7q32 -1 36 -13q1 -2 1 -5q0 -30 -49 -156q-9 -24 -14 -37q51 57 111 92q61 35 115 43q25 4 48 3q28 0 54 -4q48 -10 81.5 -39.5 t45.5 -71.5q12 -41 12 -81q0 -133 -132 -254q-44 -40 -102.5 -73t-94.5 -46l-37 -13q229 -146 229 -372q0 -16 -1 -33q-9 -132 -78 -232t-180 -162q-92 -51 -195 -69q-39 -7 -77 -7q-63 0 -124 18q-98 29 -152 109l-34 -34t-38 -33.5t-48 -35t-49 -22.5q-31 -14 -56 -14 q-1 1 -2 1q-25 0 -58 9t-64 31q-72 52 -80 156zM114 224q-12 -48 -12 -82q0 -58 33 -81q15 -11 31 -11q4 0 8 1q21 3 40.5 12t40.5 30t39 43t37 51.5t34 55.5t30 56t25 51.5t19 42.5q46 108 101 265.5t66 237.5q-4 -9 -44.5 -44.5t-93 -81t-119.5 -121t-114 -152.5 q-89 -147 -121 -273zM480 183q23 -49 69 -75t103 -27h3q123 1 233 91q112 92 166 223q31 77 36 155q1 12 1 24q0 67 -25 131q-29 76 -94 124q-26 18 -62 23q-22 3 -40 3q-13 1 -24 -1q-28 -4 -48 2.5t-20 28.5q2 -5 -72 -180.5t-149.5 -348.5t-76.5 -173zM795 951 q23 -11 51 -11q46 0 106 28q97 45 181 128q81 80 123 162q28 54 27 92q0 21 -8 38q-11 22 -47 22h-10q-44 -3 -97 -22t-103.5 -47.5t-73.5 -53.5q-32 -34 -81 -142t-68 -194z" />
<glyph unicode="C" horiz-adv-x="1073" d="M114 503q0 85 27 196q27 113 84 238q78 172 171.5 293.5t177.5 178.5t168 81q70 20 122 20q12 0 22 -1q60 -5 106 -26q70 -31 114 -85q43 -56 49 -130q1 -8 1 -16q0 -68 -45 -143q-32 -54 -68.5 -81.5t-70 -28t-58.5 7.5t-48 24q82 67 139 144t69 147q2 11 2 21 q0 55 -57 85q-31 12 -67 12q-1 0 -1 1q-36 1 -80 -19q-45 -20 -90.5 -49.5t-94 -77.5t-93 -104t-86 -128.5t-73.5 -151.5q-60 -149 -96 -287t-45 -262q-2 -23 -2 -46q-1 -94 31 -160q38 -82 126 -100q21 -4 42 -4q62 0 121 37q79 50 131 138.5t83 196.5q29 101 29 192v12 q27 -9 46.5 -21.5t37.5 -36.5t24 -56q3 -18 3 -41q0 -19 -2 -43q-5 -52 -25 -117q-22 -71 -66.5 -132.5t-100 -100.5t-118.5 -64.5t-121.5 -25.5t-109.5 17q-39 15 -78 40t-81.5 67.5t-74.5 95.5q-33 52 -53 128q-21 78 -21 165z" />
<glyph unicode="D" horiz-adv-x="1333" d="M-63 1450q-1 8 -1 15q0 47 21 101q24 62 68.5 117.5t117.5 93t158 37.5q73 0 105 -26q-70 -40 -158 -106t-141 -134q-53 -67 -53 -128q0 -58 48 -81q23 -11 55 -11q37 0 87 14q64 21 197 89.5t178 80.5q51 14 81.5 16t46 -9.5t20 -29.5t4.5 -52v-120q67 73 139 111 q71 38 132 38q1 0 3 -1q59 0 109 -20q50 -21 86 -61q33 -36 58.5 -76t49.5 -116q24 -74 27 -160v-19q0 -79 -23 -193q-26 -126 -88 -270q-45 -104 -100.5 -190t-112 -145t-116.5 -103t-115.5 -68t-108.5 -36q-47 -10 -86 -10h-9q-42 2 -77 13q-35 12 -61 24.5t-46 30 t-29.5 27.5t-28.5 34.5t-26 33.5q-32 -44 -82 -105q-21 -26 -50.5 -34.5t-59 2t-54.5 34.5q-24 24 -37 70q-9 31 -9 68q0 17 2 34q51 500 541 944q25 132 25 199q0 24 -3 40q-14 5 -29 5q-20 0 -41 -9q-37 -15 -92 -50q-10 -7 -15 -10q-106 -65 -201 -85q-45 -9 -82 -10 q-43 0 -77 12q-64 22 -103 70t-44 114zM118 142q0 -31 7.5 -49t21 -22t37 18t52.5 70q62 104 146 297.5t137 349.5q40 116 40 152q0 12 -5 14q-7 4 -45.5 -40t-93.5 -124t-112 -175.5t-106.5 -211t-70.5 -214.5q-8 -34 -8 -65zM393 225q4 -7 8.5 -26.5t11 -38t18.5 -38 t37 -34.5t61 -20q14 -2 29 -2q30 0 64 8q50 12 113.5 55t126.5 113.5t134 192.5t134 280q46 115 74 213q27 98 36 168q6 49 6 90q0 18 -1 36q-4 56 -19 90t-38.5 56t-49.5 30q-21 6 -44 6h-11q-68 -5 -156.5 -59t-168.5 -133q-6 -63 -15.5 -125t-35.5 -168.5t-62.5 -208.5 t-102 -232.5t-149.5 -252.5z" />
<glyph unicode="E" horiz-adv-x="1255" d="M59 532q0 124 43 235q29 77 72 139.5t88.5 101.5t93.5 68.5t90 43.5t75.5 22.5t52.5 9.5l20 2q2 7 -6 37t-16 65q-4 18 -5 41q0 21 4 46q8 52 39 100q65 102 172 136q43 14 87 14q64 0 130 -30q89 -42 125 -123q18 -40 19 -85q0 -46 -19 -97q-16 -37 -42 -54.5 t-52.5 -16.5t-51 7t-39.5 12.5t-15 5.5q4 3 11 9t24 26t30 42t24 57.5t11 72.5q0 41 -21.5 69t-58.5 28q-81 0 -173 -108q-18 -22 -37 -63t-31 -100q-4 -21 -4 -40q0 -35 14 -66q16 -15 74 -57t91.5 -76t33.5 -61q0 -3 -14 -6t-34.5 -2t-36.5 7q-41 16 -80.5 44t-59 47.5 t-17.5 21.5q-39 0 -67 -4t-65.5 -18t-71 -39t-76.5 -68.5t-89 -106.5q-49 -66 -80 -168t-31 -202q0 -72 13.5 -137t45.5 -124t79.5 -99.5t120.5 -58.5q44 -11 94 -11q34 0 70 5q128 17 233 99t159.5 186.5t54.5 203.5q0 53 -17 82t-35 29q-11 0 -31 -12.5t-44.5 -37 t-47.5 -71.5t-35 -105q-2 -10 -2 -33.5t-2.5 -39.5t-10.5 -19q-6 -2 -13 -2q-28 0 -66 38q-46 48 -46 114q0 94 71.5 173.5t169.5 79.5t172.5 -80.5t74.5 -193.5q0 -82 -42.5 -170.5t-115.5 -162.5t-183.5 -122t-233.5 -48q-112 0 -215.5 47t-180 126.5t-122.5 190.5 t-46 234z" />
<glyph unicode="F" horiz-adv-x="1173" d="M74 349q-1 13 -1 26q0 137 79 243q83 112 209 112h9q59 -2 90 -29q-90 -36 -167 -161.5t-81 -262.5v-8q0 -63 30 -111q32 -50 80 -72q27 -12 59 -12q27 0 57 8q66 18 129 81q40 41 80.5 103t70.5 120.5t63 137.5t52 129.5t44 121t32 89.5l11 29q-104 -2 -148 -9 q-17 -3 -30 -3q-26 0 -36 12q-13 16 21 32q10 4 24 8q58 16 146 16q22 0 46 -1q89 209 253 490q-157 28 -265 31h-24q-177 0 -305 -70q-136 -75 -174 -196q-3 25 -3 47q0 114 89 176q107 72 339 89q40 3 101 3q108 0 280 -9q210 -11 321 -11q32 0 56 1q73 3 144.5 25 t123 51.5t95.5 64t68 59.5t33 40q7 -22 7 -43q0 -80 -94 -154q-118 -94 -335 -126q-75 -11 -153 -11q-42 0 -85 3q-51 -58 -88 -106.5t-94.5 -145.5t-114.5 -222q48 -4 88.5 -6t77 -2.5t56.5 -1.5q-14 -26 -78 -38q-36 -6 -84 -6q-38 0 -83 4q-55 -126 -123 -310 q-46 -126 -100 -223t-104.5 -155.5t-106 -97.5t-101 -55t-92.5 -21q-18 -2 -36 -2q-76 0 -148 32q-88 38 -146 117.5t-64 179.5z" />
<glyph unicode="G" horiz-adv-x="1146" d="M-190 -584q-1 8 -1 17q0 26 7 56q10 41 34.5 82.5t73.5 86t117.5 83t173.5 74t234 60.5q85 17 145 25q94 174 176 359.5t123 324.5q-284 -327 -285 -328q-68 -62 -146 -82q-45 -12 -85 -12q-30 0 -56 6q-63 15 -112 54q-128 101 -128 299v21q4 141 47 271.5t112 231.5 t157 184t184 136.5t191 80.5q87 25 164 25h17q96 -3 139 -57q32 -41 32 -101q0 -21 -4 -45q-16 -92 -87 -203q-54 -85 -114.5 -137.5t-110.5 -67.5q-45 -12 -80 -12h-10q-39 2 -64 18q114 44 228 177q110 129 136 240q6 26 6 47q0 65 -54 88q-29 13 -63 13q-55 0 -123 -33 q-110 -54 -221.5 -180.5t-186.5 -292.5q-76 -168 -114 -317q-28 -113 -28 -201q0 -29 4 -56q12 -107 84 -130q14 -5 30 -5q50 0 121 47q93 61 183 161.5t169 217t117 208.5q18 16 73 16q12 0 25 -1q76 -4 118 -27q-205 -585 -378 -914q34 6 70 6q42 0 87 -8 q83 -14 148.5 -40t136 -47t126.5 -26q7 -1 14 -1l96 28q56 33 99 109q7 -34 7 -63q0 -81 -52 -124q-62 -52 -233 -52q-18 0 -37 1q-50 1 -264 55q-205 52 -256 52h-4q-119 -203 -251 -351q-72 -81 -148.5 -133t-141 -69.5t-124.5 -17.5t-105.5 18.5t-77 43t-44.5 52.5 q-13 26 -16 59zM-98 -686q16 -25 55 -30h15q34 0 78 15q54 19 113.5 54.5t122.5 94t113 128.5q56 79 140 223q-125 -10 -229.5 -39.5t-208.5 -95.5q-109 -70 -174 -178q-40 -67 -40 -117q0 -31 15 -55z" />
<glyph unicode="H" horiz-adv-x="1492" d="M-342 293v21q0 66 16 130q18 76 59.5 150t117 138t177.5 105q179 73 364 115l21 51q31 72 53 120t53.5 109t59 101.5t64.5 85t75 73.5t86.5 54t102.5 38l18 -24q-115 -123 -185 -248.5t-147 -323.5q41 6 179.5 22t217.5 30q93 182 207 339t222 268q24 12 60 12q9 0 17 -1 q48 -3 61 -20q-7 -10 -62 -86.5t-92.5 -131t-100 -153.5t-117.5 -196q53 8 113 19q98 18 177.5 59.5t129 94.5t80.5 115t37 122q2 18 2 35q0 41 -10 80q-14 55 -50 94q68 -1 113 -48q45 -46 55 -116q5 -31 5 -65q0 -41 -7 -85q-12 -58 -54 -116t-122.5 -119t-220.5 -116.5 t-325 -94.5q-94 -184 -162 -354q-42 -108 -56 -196q-7 -43 -7 -79q0 -37 7 -65q14 -56 42 -90.5t67 -48.5q35 -12 67 -12q60 -1 110 43q76 66 118 213q16 55 16 98q0 63 -34 99h3q65 0 115 -40q50 -42 68 -104q9 -29 9 -62q0 -37 -11 -79q-21 -78 -87 -143q-96 -94 -245 -94 q-79 0 -147 31t-121 97q-52 66 -66 168q-4 33 -4 69q0 79 20 176q35 153 113 340q-226 -33 -391 -70l-59 -152q-46 -118 -86 -205t-90.5 -174t-100.5 -143.5t-112.5 -94t-130.5 -43.5q-19 -2 -37 -2q-112 1 -176 65q-74 74 -82 215zM-284 209q2 -60 44 -101q39 -40 99 -40 q59 0 137 39q31 15 59.5 37.5t51 46t44 58t37 62.5t33 71.5t28 73.5t25 80t22 79t21.5 82.5t21 79.5q-110 -34 -196 -75q-90 -43 -170.5 -104t-136.5 -128q-57 -67 -89 -134q-30 -62 -29 -118q-1 -5 -1 -9z" />
<glyph unicode="I" horiz-adv-x="882" d="M-305 -111q-4 17 -4 33q0 63 63 118q79 69 199 73q18 1 38 1q75 0 187 -9q142 314 318 737.5t218 587.5q-55 12 -77.5 16.5t-72 13.5t-76.5 9q-26 1 -70 1h-5q-41 0 -71 -8q-32 -8 -71.5 -21t-76.5 -36t-75 -53l-31 3q16 29 40.5 57t70.5 64q47 36 119 55q53 14 113 14 q22 0 46 -2q61 -5 156 -20.5t171 -29.5q78 -13 172 -21q55 -4 102 -5q36 1 68 3q76 6 152 34t133 82q-17 -80 -82 -127.5t-215 -65.5q-50 -6 -103 -6q-61 0 -127 8q-88 -138 -300 -641t-245 -662q49 -3 90 -3q59 0 102 6q110 14 205.5 57.5t155.5 89.5q1 -11 1 -21 q0 -123 -177 -163q-80 -18 -169 -24q-58 -4 -113 -3q-30 0 -59 1q-42 2 -92.5 2t-109.5 -2h-35h-69q-65 2 -102 2t-87.5 -6t-83 -20.5t-65.5 -44t-56 -74.5z" />
<glyph unicode="J" horiz-adv-x="954" d="M-92 -623q-4 27 -4 55q0 54 16 110q25 86 85 160.5t144 115.5q115 56 274 56q18 0 36 -1l85 259q-50 -17 -102 -20q-10 -1 -20 -1q-42 0 -86 10q-55 12 -106.5 51.5t-89.5 103.5q-45 74 -58 170q-4 31 -4 64q0 66 17 137q25 106 81 210.5t155 205t228 177.5 q108 65 219 108.5t175.5 59t163.5 34.5q72 97 142 164.5t129 99.5q51 27 93 27q6 0 12 -1q47 -4 73 -47q21 -34 21 -67q0 -52 -55 -99q-91 -76 -297 -145q-60 -114 -96 -190q-102 -214 -244 -555.5t-247 -648.5q-22 -64 -48 -132q168 -44 259 -142q63 -67 63 -145 q0 -35 -13 -73q-44 121 -130.5 185.5t-212.5 93.5q-100 -243 -209.5 -400.5t-218.5 -185.5q-22 -6 -44 -6q-26 0 -52 9q-48 16 -85.5 66.5t-48.5 126.5zM14 -684q11 -58 51 -74q11 -5 24 -5q35 0 85 32q124 86 207 354l49 156q-75 -4 -144 -37t-119 -82.5t-85.5 -104 t-54.5 -110.5q-16 -49 -16 -91q0 -20 3 -38zM198 356q10 -78 71 -120q54 -37 125 -37q8 0 17 1q77 5 173 51q262 771 438 1052q-308 -118 -517 -327q-87 -87 -152.5 -185t-98.5 -180.5t-47 -148.5q-10 -48 -10 -83q0 -12 1 -23zM1298 1483q91 27 162 78q61 44 61 71 q0 16 -20 16q-13 0 -35 -7q-15 -5 -32 -13q-62 -29 -136 -145z" />
<glyph unicode="K" horiz-adv-x="1114" d="M-553 218q12 140 134 245q79 67 194 106l45 -25q-78 -55 -138 -130q-60 -76 -90 -152q-20 -53 -21 -105q0 -22 4 -44q13 -72 75 -115q37 -23 79 -23q19 1 39 5q64 16 134 76t134.5 144.5t120.5 189.5t91 209q21 62 53.5 162t49 148.5t39.5 111t42 101.5t40 69 q-100 -22 -181 -22q-62 0 -113 13q-117 29 -176 101.5t-63 181.5v10q0 44 16 90q18 51 49.5 93t75.5 75t92 51q45 17 94 17h6q52 -1 96 -25q-39 -24 -65.5 -42t-71 -51.5t-73.5 -61.5t-60.5 -67t-44.5 -75q-13 -35 -12 -75q0 -44 22 -85q40 -73 126 -85q22 -3 45 -3 q66 0 139 27q98 36 185 85.5t149 102.5q87 73 184 73l25 -33q-29 -45 -147.5 -149.5t-145.5 -142.5q-27 -36 -139 -338q28 -2 53 -2q28 0 51 2q44 4 94.5 21.5t99 57t97.5 102.5q153 197 237 286q234 248 413 248q10 0 20 -1q66 -5 95.5 -23.5t30.5 -58.5q-59 28 -109 28h-1 q-50 0 -108 -32q-59 -32 -124 -103q-41 -44 -116.5 -141t-135 -172t-144.5 -152t-164 -110q45 -24 74 -44.5t62.5 -60t46.5 -86.5q12 -42 12 -107v-15q-2 -75 -28 -168q-59 -213 -80 -341q-16 -100 -16 -176q0 -22 1 -41q5 -73 35 -111q32 -38 74 -40q2 0 4 -1q40 0 86 24 q48 25 89 72q33 39 53 82t24 87q0 6 1 12q0 38 -21 69q66 -18 102 -78q25 -42 25 -95q0 -24 -5 -50q-14 -73 -74 -135.5t-151 -84.5q-24 -6 -50 -6q-70 0 -150 44q-84 48 -129.5 109t-59.5 155q-7 47 -7 100.5t7 113.5q14 118 55 297q21 95 27 170q2 31 3 57q0 40 -5 70 q-8 52 -30 87t-50 55q-29 20 -69 28q-36 8 -71 7h-8q-39 -1 -88 -8q-164 -438 -260 -595q-85 -138 -200 -210t-235 -78h-20q-144 0 -230 93q-71 77 -71 184q0 13 1 27z" />
<glyph unicode="L" horiz-adv-x="1335" d="M20 182q-2 18 -2 34q0 49 16 91q20 56 73 98.5t142 54.5q34 5 75 5q64 0 143 -12q108 -19 195 -65q70 107 139 279q90 224 159 371q-118 15 -223 46q-123 36 -205.5 89.5t-119.5 109.5q-37 55 -47 121q-5 34 -5 64q0 28 4 54q10 52 33 107q14 33 36.5 62t48 49t50 35 t49.5 24.5t39 14t25 7.5l27 -16q-35 -52 -67.5 -108.5t-62.5 -136.5q-32 -80 -40 -148q-2 -17 -1 -33q0 -51 19 -99q26 -64 94 -101q164 -87 364 -103q196 399 367 445q36 10 69 10q16 0 31 -2q47 -7 86.5 -26t66.5 -50t41 -64q12 -27 12 -56q0 -7 -1 -13q-3 -36 -25 -62 q-160 -201 -458 -225q-45 -94 -128 -276t-110 -235q-56 -112 -137 -221q40 -32 115.5 -98.5t156.5 -132.5t171 -127q60 -40 99 -63t83 -41t76.5 -18t67.5 14t69 46q65 61 101 157q25 -16 31 -52q2 -10 1 -21q-1 -25 -11 -55q-16 -42 -47.5 -81t-91 -67t-134.5 -32 q-11 -1 -23 -1q-201 0 -396 185q-42 39 -114 108.5t-122.5 116.5t-96.5 82q-129 -146 -265 -218q-93 -49 -172 -49q-38 0 -73 11q-78 23 -133 80.5t-64 136.5zM74 106q32 -61 106 -67q8 -1 15 -1q38 0 80 17q193 77 327 248q-110 57 -231 57q-48 0 -97 -9 q-146 -26 -196 -116q-20 -35 -20 -69q0 -31 16 -60zM1194 1088q160 31 275 132q31 27 58 58.5t49 69.5q17 30 17 57q0 7 -1 13q-5 32 -43 50q-17 8 -39 8t-48 -9q-51 -18 -96 -74q-56 -70 -172 -305z" />
<glyph unicode="M" horiz-adv-x="1953" d="M41 1586q0 67 29 111q65 106 272 149l60 -24q-114 -87 -180 -181q-58 -88 -59 -155q0 -4 1 -8q4 -70 58 -108q45 -31 107 -31q13 0 27 1q113 11 258 89t182 119q8 9 32.5 5.5t31.5 -15.5l-62 -239q104 86 187 124q61 28 116 28q20 0 40 -4q65 -12 117 -103 q48 -84 47 -197v-18q167 158 234 210q135 103 245 103q10 0 19 -1q44 -4 88 -23q143 -63 169 -193q5 -27 5 -59q0 -120 -76 -306q-44 -103 -212 -370.5t-232 -402.5q-47 -101 -69 -191q-18 -74 -19 -131q-1 -13 1 -23q4 -64 23.5 -113t51.5 -78q33 -29 67 -43q30 -12 59 -12 h9q83 4 175.5 77t161.5 183q21 -31 21 -73q0 -31 -11 -67q-27 -86 -102 -138q-36 -26 -83 -42q-46 -16 -98 -20q-14 -1 -29 -1l-77 7q-52 10 -100.5 40.5t-86 79t-62 128t-28.5 180.5q-1 14 -1 29q0 117 36 251q40 150 109.5 296.5t141 275.5t150.5 268.5t116 224.5 q29 70 29 114q0 13 -2 24q-11 49 -53 61q-21 6 -45 6t-50 -6q-54 -12 -100 -43q-89 -59 -183 -187q-76 -105 -205 -350t-232.5 -446t-131.5 -226l-128 44q44 104 109.5 268t155 411t105.5 341q7 41 7 74q0 76 -37 109q-21 18 -47 18q-38 0 -90 -37q-130 -94 -255 -368 q-34 -75 -65 -159q-17 -68 -27.5 -109.5t-31 -114t-37 -120.5t-42.5 -113t-50.5 -108t-57.5 -90t-67 -74.5t-76 -45.5t-87 -18q-71 0 -107 39t-38 99v8q0 56 18 122q18 71 48.5 135.5t64.5 113.5q64 91 146 195.5t130 166t95 135.5t69 146t23 156q-68 -21 -102.5 -31 t-102.5 -23.5t-121 -14.5h-8q-91 -1 -157 43q-69 46 -96 110q-28 66 -28 136zM125 82q67 28 135.5 108.5t119 179t88.5 197.5t53 176q9 44 9 72q0 20 -5 31q-205 -218 -321 -449q-88 -175 -88 -266q0 -29 9 -49z" />
<glyph unicode="N" horiz-adv-x="1333" d="M6 1530q-1 12 -1 23q0 73 46 146q85 139 211 139q16 0 33 -2l88 -42q-42 -18 -92.5 -53t-98.5 -86.5t-76 -105.5q-19 -37 -18 -76q0 -19 4 -37q13 -60 77 -107q72 -51 153 -51h22q94 8 176.5 52.5t140 97.5t66.5 86l79 9q11 -10 11 -72q-1 -3 -1 -6q0 -68 -13 -155 q48 30 85.5 52t94.5 51t103 41q46 13 96 18q11 1 22 1q37 0 69 -14q41 -18 69 -58q47 -67 58 -147q3 -23 3 -47q1 -62 -19 -136q-28 -104 -70 -203.5t-118 -251.5q-78 -156 -129 -270t-94 -233.5t-57 -218.5q-8 -54 -8 -103q0 -41 5 -78q11 -76 39 -125.5t63 -67.5 q33 -17 69 -16h4q38 1 72.5 21.5t58.5 52.5q90 117 126 338q28 -3 51.5 -36.5t33.5 -81.5q5 -25 6 -53q0 -27 -5 -56q-10 -61 -43 -113q-98 -154 -217 -166q-11 -1 -23 -1q-80 -1 -164 61q-96 70 -160 189t-66 240v13q0 234 172 621q52 117 107 232t93.5 190t74.5 146.5 t57 116t34 83t12 62t-15 40.5q-15 22 -57.5 17.5t-94.5 -23.5t-116 -52t-124 -69t-117 -75q-54 -274 -157.5 -579t-190.5 -423q-100 -134 -162 -151q-11 -3 -21 -3q-53 0 -114 69q-37 40 -57 104q-19 62 -19 143q0 85 42 191q41 104 120 206q67 86 153 178.5t137.5 146 t102 131t77.5 164.5q-207 -133 -361 -133h-11q-78 3 -152 45.5t-120.5 109t-54.5 150.5zM146 212q2 -30 10.5 -53.5t26.5 -31.5q10 -5 22 -5q9 0 19 3q23 6 55 34.5t67 77.5q100 139 157 289q81 210 120 537q-148 -128 -292 -371.5t-178 -410.5q-7 -31 -8 -56q0 -6 1 -13z " />
<glyph unicode="O" horiz-adv-x="1120" d="M105 382q4 184 43 352t100 293.5t138.5 226t159.5 160.5t162 87q54 18 101 18q23 0 44 -4q137 -27 211 -91q72 -63 98 -185q15 -70 16 -167q0 -72 -9 -159q-14 -120 -59 -245.5t-105.5 -230t-130.5 -196t-135.5 -154t-119.5 -93.5q-55 -32 -117 -40q-20 -2 -40 -2 q-41 0 -79 10q-57 16 -109 53.5t-90 90t-60 124.5q-20 66 -19 138v14zM268 397q-4 -43 -4 -82q0 -58 8 -107q14 -82 47.5 -127.5t80.5 -57.5q17 -4 34 -4q45 -1 97 27q72 38 149 125.5t156.5 241t144.5 350.5q51 159 75 281q22 115 23 184q-1 4 -1 8q-2 70 -21.5 118 t-42 66.5t-53.5 28.5q-14 4 -31 4q-18 -1 -40 -5q-42 -10 -98.5 -44t-115 -89t-122 -146t-114.5 -203q-76 -165 -119 -313.5t-53 -255.5z" />
<glyph unicode="P" horiz-adv-x="1046" d="M60 184q9 77 30.5 151t49 136t73 131t86.5 122t106.5 123.5t117 121.5t132.5 130q3 8 6.5 20.5t12.5 47.5t13.5 63.5t3.5 58t-11 42.5q-211 -62 -322 -63h-4q-96 0 -166 46q-72 48 -98 118q-14 39 -15 82q0 36 10 76q22 86 96 157q91 87 213 112q33 7 62 7q73 0 107 -48 q-34 -10 -84 -36t-105 -65.5t-97.5 -87t-62.5 -99.5q-9 -24 -8 -48q0 -28 12 -55q21 -49 81 -65q39 -11 83 -10q24 0 49 3q72 9 153 32t141 46.5t100 44.5l74 -23l-38 -160q57 35 83.5 50.5t80.5 41.5t99 34q26 5 51 4q19 0 37 -2q43 -6 87 -40.5t73.5 -91.5t39.5 -124 q2 -16 2 -32q0 -53 -24 -117q-31 -82 -103 -159q-64 -67 -133 -101q-68 -36 -128 -38h-13q-51 0 -101 17q-56 19 -97.5 53.5t-71.5 78.5q-200 -656 -401 -834q-38 -33 -90 -39l-24 -2q-39 0 -74 15q-45 19 -73 66q-22 38 -22 85q0 12 1 24zM166 208q-23 -69 -22 -111 q0 -42 23 -57q9 -6 20 -6q16 0 36 13q33 21 75 83.5t85.5 158t90 246t85.5 332.5q-130 -157 -238.5 -339t-154.5 -320zM773 970q18 -61 54 -107t88 -47h5q48 0 107 36q84 50 165.5 142.5t117.5 189.5q13 36 14 67q0 54 -40 94q-24 21 -60 25q-7 1 -13 1q-29 1 -63 -11 q-40 -14 -83.5 -39t-88.5 -59.5t-85 -71t-78 -75.5z" />
<glyph unicode="Q" horiz-adv-x="1124" d="M-283 406q18 124 147 196q87 49 188 49q48 0 99 -11q26 119 82 260q74 185 155.5 318t156.5 205t153 104q69 28 129 28q8 0 16 -1q66 -4 131 -35q63 -30 112.5 -88t79 -146t33.5 -195v-23q0 -98 -29 -219q-32 -136 -102 -281q-149 -308 -326 -467q136 -189 218 -264 q40 -35 83.5 -56t82.5 -26q19 -2 38 -2q21 0 41 2q39 6 69.5 23.5t56 41t38.5 55t17 65.5v15q0 27 -10 57h7q52 0 74 -54q11 -27 11 -56q0 -40 -21 -84q-47 -100 -168 -137l-46 -10q-49 -8 -95 -8q-71 0 -134 20q-103 32 -189.5 111.5t-186.5 221.5q-92 -52 -171 -52 q-50 0 -94 21q-33 16 -64 38.5t-68 67.5t-62 100.5t-37 141.5q-6 45 -6 94q0 44 5 92q-63 22 -124 22q-47 0 -94 -13q-107 -30 -175 -124zM274 241q3 -109 46 -163q39 -48 96 -48h14q67 7 142 68l-45 72q-102 163 -236 263q-17 -94 -17 -170v-22zM324 567 q93 -58 173.5 -147.5t173.5 -219.5q94 113 181 276.5t147 336.5q52 149 71 269q12 74 12 131q0 36 -5 65q-12 74 -39 118t-68 60q-17 7 -36 7q-28 0 -62 -13q-57 -23 -127 -85.5t-153 -191.5t-159 -305q-68 -157 -109 -301z" />
<glyph unicode="R" horiz-adv-x="1345" d="M-35 1564q7 112 76 174q29 26 65 36q23 7 68.5 17t80 20t59.5 23l47 -12q-38 -24 -78 -60t-80.5 -85t-64.5 -101t-28 -109q-1 -7 0 -14q0 -49 28 -94q55 -93 196 -92q125 0 318 72q11 4 16 6q103 38 143 76q11 11 17.5 24t7.5 21l1 7q5 3 13.5 6.5t32.5 9t44.5 5 t43.5 -12.5t36 -38q-15 -59 -55 -190q151 103 279 103q84 0 158 -44q49 -29 65 -96q7 -28 6 -58q0 -41 -12 -85q-22 -76 -72 -145q-50 -68 -142 -107q-69 -29 -150 -29q-27 0 -55 3q44 -38 71.5 -70.5t46.5 -76.5q19 -42 27 -86q6 -36 6 -92v-24q-2 -72 -9.5 -147 t-22.5 -194q-40 -308 -40 -412q0 -150 62 -205q34 -29 88 -41q17 -4 33 -4q37 -1 69 19q46 28 74.5 80t43.5 114q13 53 13 104q-1 10 -1 18q-2 60 -20 99q9 3 18 3q30 0 58 -34q36 -44 50 -117q6 -33 6 -69q0 -43 -9 -90q-20 -84 -101 -133q-79 -48 -172 -48q-3 1 -6 1 q-97 2 -165 53q-45 36 -79 77.5t-63 108.5t-41 149q-7 52 -7 120q1 38 3 82q6 120 36 264q21 102 29 184q7 69 7 120v18q-2 58 -17.5 102.5t-32.5 71.5t-49 49.5t-57 33.5t-66 25q-55 -143 -118 -280q-150 -318 -274 -447q-85 -89 -170 -89q-39 0 -78 19q-63 30 -85 116 q-12 45 -12 98q0 48 10 101q20 113 89.5 250t178.5 259q98 110 207 185t148 84l6 10q5 11 14.5 29.5t19.5 40t21 48t18 48.5q-241 -101 -422 -107h-22q-206 0 -309 127q-70 86 -70 198q0 13 1 26zM137 165q6 -40 27 -54q15 -10 34 -11q8 0 14 2q26 5 57 33t58 74 q43 73 130 272t154 369t63 178q-143 -111 -232 -205q-251 -264 -302 -557q-5 -37 -6 -66q1 -19 3 -35zM828 890q37 -28 96 -32q9 -1 18 -1q51 1 104 17q63 20 126 68t103 117q43 73 45 139v6q0 61 -45 90q-22 12 -52 12q-43 0 -103 -24q-102 -41 -195 -113 q-45 -139 -97 -279z" />
<glyph unicode="S" horiz-adv-x="1214" d="M100 465q-1 15 -1 30q0 79 23 145q27 78 75.5 124.5t107.5 70.5q48 20 98 20q11 1 23 -1q62 -6 115 -38q81 -50 107 -170q11 -50 11 -95q1 -64 -21 -119q-33 -86 -99 -86q-7 0 -14 1q23 187 23 241v7q0 151 -82 183q-15 6 -34 8q-7 1 -14 1q-46 0 -80 -41 q-40 -48 -56 -124q-14 -62 -15 -133q0 -16 1 -33q3 -69 17.5 -134t43 -125.5t69 -104.5t99.5 -68q45 -18 97 -17q15 0 32 1q73 7 143.5 41.5t125 95.5t67.5 146q3 20 3 41q0 69 -33 152q-12 28 -46.5 106.5t-49 114t-42.5 110t-40 119.5q-10 44 -24 114q-13 67 -14 118 q0 52 10 120q8 64 29 121q33 94 98.5 139.5t147.5 47.5h13q183 0 248 -140q29 -63 29 -139q0 -55 -15 -116q-29 -118 -93 -172q-31 -26 -61 -26q-9 0 -18 2q22 63 32 188q3 44 4 86q0 77 -12 149q-18 110 -64 117q-6 1 -13 1q-48 0 -96 -39q-55 -44 -83 -132 q-12 -36 -13 -80q0 -63 25 -141q12 -36 132 -372q31 -87 49.5 -159t30.5 -157q6 -42 6 -84q0 -40 -6 -80q-12 -80 -48 -147q-81 -151 -288 -184q-54 -8 -107 -8q-109 0 -208 36q-148 54 -242.5 178t-102.5 290z" />
<glyph unicode="T" horiz-adv-x="761" d="M-109 1230q-1 6 -1 12q0 16 6 34q8 24 26 47.5t45.5 46t62 41t78.5 32t92 18.5q52 6 104 7h19q44 0 93 -4q60 -4 100.5 -8t111.5 -12q221 -26 354 -26h34q75 2 137 21.5t101.5 48.5t65.5 65q26 37 34 73q5 21 5 41q0 14 -2 29q24 -15 39 -41q14 -25 16 -57q1 -8 1 -16 q1 -24 -5 -51q-8 -35 -30.5 -68.5t-56 -62.5t-85.5 -50.5t-115 -30.5q-85 -12 -173 -12q-84 0 -172 11q-41 -116 -94.5 -259.5t-143 -372.5t-177.5 -418.5t-148 -271.5q-19 5 -49.5 25.5t-40.5 45.5q163 479 557 1267q-15 3 -62.5 14t-75 16.5t-80 14.5t-88.5 11 q-36 4 -88 4h-6q-47 0 -83 -7q-38 -7 -83.5 -21t-80 -36.5t-68 -57.5t-57.5 -80q-14 16 -17 38z" />
<glyph unicode="U" horiz-adv-x="1406" d="M-17 1122q1 66 31.5 146.5t89.5 149.5q52 60 112 95t115 41q17 2 34 2q37 0 73 -9q52 -13 91 -45t62 -76q29 -58 37 -110q2 -15 2 -31q0 -44 -14 -105q-20 -84 -58 -181.5t-113 -268.5q-97 -220 -141 -366q-35 -117 -34 -197q0 -19 2 -36q10 -87 80 -104q11 -3 23 -3 q63 0 147 78q100 92 207.5 264.5t202.5 394.5q75 175 143.5 342.5t102.5 250.5t48 111q0 2 18.5 7t44.5 8.5t51 1.5t41 -16q13 -12 13 -34v-8q-17 -143 -94.5 -347.5t-250.5 -596.5q-70 -160 -70 -287q0 -35 5 -68q17 -102 77 -128q16 -7 33 -7q52 0 111 63q76 84 134 258 q41 0 51 -53q3 -16 3 -33q0 -57 -36 -122q-26 -48 -67 -85q-38 -36 -88 -52q-41 -14 -83 -13q-9 1 -17 1q-50 4 -97.5 29.5t-84 69t-58.5 113.5q-21 67 -20 147v8q-147 -187 -257 -267q-106 -77 -210 -77h-8q-123 3 -173 81q-47 72 -46 203v21q7 229 160 559q26 56 59 123.5 t54.5 111.5t46 95.5t37.5 85t24.5 70.5t11.5 60.5t-6.5 47t-23.5 39t-45 26.5q-27 11 -53 11q-34 1 -67 -17q-59 -30 -112.5 -110.5t-100.5 -191.5t-93 -260q-26 20 -42 72q-15 48 -15 110v8z" />
<glyph unicode="V" horiz-adv-x="1007" d="M28 1272q4 56 22 117t53.5 110.5t80.5 85.5q46 37 103 43q11 1 23 1q46 0 96 -21q81 -38 126 -120q33 -61 34 -135q0 -26 -5 -54q-15 -98 -58 -207t-113.5 -251t-91.5 -191q-59 -136 -73 -285q-3 -37 -4 -69q0 -100 33 -164q29 -53 80 -53q10 -1 20 1q66 12 144 97 q86 92 188 281t182 413.5t102 434.5q5 48 5 93q0 149 -57 254q52 -29 89 -115t53 -212q6 -52 6 -112q0 -86 -13 -188q-22 -176 -86 -361q-49 -140 -142.5 -282.5t-214.5 -244.5t-227 -110h-11q-38 0 -76 18q-44 20 -84 65t-69 109t-37 156q-3 35 -4 72q0 59 8 124 q14 105 64 240.5t134 279.5q73 125 107 204q15 34 23 54t18.5 52.5t11 53.5t-3.5 44.5t-21.5 40t-45.5 26.5q-24 8 -46 8q-46 1 -87 -33q-61 -50 -100 -131q-57 -118 -64 -313q-40 24 -58 72q-16 40 -15 85q0 8 1 17z" />
<glyph unicode="W" horiz-adv-x="1646" d="M19 1184q-1 9 -1 18q0 89 76 168q38 38 85.5 68.5t103.5 48t108.5 17.5t103.5 -29t86 -86q30 -48 33 -112v-19q0 -54 -14 -108q-17 -64 -48.5 -142.5t-65 -146t-70 -151.5t-57.5 -147q-13 -40 -37 -111q-33 -100 -46.5 -144t-22.5 -98q-4 -23 -4 -41q1 -23 7 -37 q12 -25 41 -40q17 -8 36 -9q23 0 51 12q51 21 114 82t139.5 185t152.5 296q158 360 236 493l62 4h4q116 0 113 -59q-2 -17 -12 -37q-20 -38 -54 -116.5t-77 -186.5t-79 -221q-35 -113 -59 -213q-19 -82 -20 -143q0 -13 1 -25q5 -68 44 -80q21 -6 43 -7q100 0 212 138 q136 167 237 463q45 132 71 217.5t49 189.5t26 183q1 15 1 31q0 65 -10 137q-12 88 -46 174q72 -9 129.5 -100t74.5 -243q4 -34 4 -70q0 -127 -46 -283q-39 -130 -97 -260t-134.5 -251.5t-160.5 -210.5q-84 -88 -182 -134q-69 -32 -135 -33q-28 0 -55 6q-46 9 -79.5 43.5 t-51.5 80.5q-19 45 -27 103q-8 54 -8 106v6q0 54 7 105q-136 -199 -210 -281q-142 -159 -252 -159q-8 0 -15 1q-70 7 -117 60t-63 137q-7 35 -7 76q-1 58 13 128q22 120 87 252q26 53 59 120t57 115t51.5 104.5t46.5 97.5t37.5 85t28.5 75.5t16 60.5t4 49t-12 32 q-13 16 -37 23t-55 3t-65 -18.5t-69 -47.5t-65.5 -78.5t-54.5 -115.5t-36 -155q-86 57 -94 155z" />
<glyph unicode="X" horiz-adv-x="1138" d="M68 178q15 93 53 171.5t87 135.5t125 111t144 90.5t166 82.5q8 55 13 97t11 96.5t9 95.5q2 42 4 90q1 19 1 36q0 26 -2 48q-3 36 -8 73t-16 63t-26 47t-37 31t-49 10q-64 0 -132 -67t-114.5 -155.5t-69.5 -172.5q-40 42 -49 102q-2 14 -2 29q0 46 22 96q28 66 92 116 q63 49 138 70q52 14 102 14q22 0 44 -2q72 -10 131 -62.5t84 -143.5q19 -70 20 -210q0 -98 -10 -230q156 78 280.5 184t190 202.5t76.5 173.5q5 34 -3 55t-21.5 28.5t-27.5 13t-21.5 14.5t-3.5 27q67 -23 103 -89q26 -48 26 -108q0 -22 -3 -45q-42 -291 -605 -571 q-15 -172 -23 -289q-12 -177 -12 -304q0 -97 7 -165q32 -313 193 -313h8q87 3 181.5 90t153.5 213q35 -19 35 -69q0 -14 -3 -32q-15 -92 -96 -171q-116 -113 -288 -113h-12q-105 2 -177 54t-111 142q-39 92 -52 228q-8 83 -8 172q0 60 4 122q8 158 36 358q-25 -11 -58.5 -26 t-53 -23.5t-29.5 -13.5q-72 -37 -142 -93.5t-129.5 -126.5t-98.5 -155.5t-43 -168.5q-9 33 -9 73q0 30 5 64z" />
<glyph unicode="Y" horiz-adv-x="1253" d="M45 1179q15 111 65 208t130 157q73 54 153 54q8 0 16 -1q65 -4 116.5 -54t78 -127.5t34.5 -173.5q2 -26 2 -52q0 -71 -16 -143q-14 -72 -69 -180t-118 -209t-121.5 -198t-85.5 -170q-15 -39 -15 -66q0 -23 11 -36q20 -25 56 -26q2 -1 4 -1q36 0 88 27q56 28 124 85 t154.5 160t179.5 239t204.5 334t225.5 434l1 17q5 1 13 3.5t30 6t40.5 4t39 -5t30.5 -17.5q12 -13 12 -38q0 -24 -16 -59l-44 -97q-43 -98 -53.5 -124t-50.5 -125.5t-62.5 -170t-58 -187t-67.5 -242.5q-63 -248 -131 -454q68 -8 123.5 -25t101.5 -45.5t71 -74.5 q23 -43 23 -96v-9q-141 143 -337 143h-18q-98 -276 -190 -410.5t-189 -170.5q-32 -11 -59 -11q-15 0 -27 3q-38 9 -63.5 40.5t-38.5 74.5q-12 40 -12 86v8q1 50 15 98q25 82 82.5 155t128 121t140.5 78.5t129 40.5q60 201 102.5 374.5t74 326.5t43.5 201 q-462 -754 -731 -763q-25 -1 -54 5t-60.5 22.5t-56 42t-39.5 68.5q-11 33 -11 73q0 11 1 23q6 79 40.5 161.5t85.5 161.5t105.5 160.5t109 190t85.5 218.5q28 91 28 165v12q-3 78 -43 106q-17 12 -39 12q-26 0 -60 -17q-60 -33 -118.5 -100.5t-110.5 -156.5t-76 -169z M396 -646q5 -33 30 -48q18 -11 37 -11q24 0 49 17q47 30 94 106.5t91.5 178.5t87.5 229q-50 -15 -102 -48t-96 -75t-82.5 -89.5t-63.5 -95t-38 -89.5q-9 -30 -9 -55q0 -10 2 -20z" />
<glyph unicode="Z" horiz-adv-x="1275" d="M-256 190q17 101 105 154q83 50 201 50h14q126 -3 260 -56q60 71 120 163q101 155 308 424.5t334 420.5q-145 17 -358.5 37.5t-267.5 26.5q-13 1 -26 1q-40 1 -75 -13q-46 -18 -72 -52q-27 -33 -41 -70q-13 -33 -12 -62v-8q2 -34 18 -51l-16 -55q-56 28 -82 82 q-18 37 -18 77q0 17 4 35q12 58 46 108t106 76q49 18 107 17q26 0 54 -3q10 -1 144 -26.5t220 -29.5q125 -8 215 -8q52 0 92 2q110 8 184 52q11 7 36.5 22.5t40.5 24.5t39.5 23t41.5 20q16 6 38 14q20 7 35 8h1q16 0 31.5 -4t27 -16.5t19.5 -31.5q-25 -14 -116 -64.5 t-132 -75t-100.5 -66t-93.5 -77.5q-41 -42 -338.5 -441.5t-410.5 -531.5q18 -10 94 -54.5t113.5 -63.5t103.5 -48q66 -30 122 -42q52 -12 104 -12h8q109 1 192.5 62.5t129.5 172.5q26 -31 30 -67q1 -6 0 -12q0 -30 -14 -60q-16 -36 -46.5 -73t-74.5 -67.5t-93.5 -54 t-105.5 -35.5q-48 -10 -96 -10h-15q-66 4 -143.5 40.5t-200.5 114.5t-172 105q-146 -132 -322 -170q-56 -12 -103 -12q-81 0 -134 35q-63 42 -63 119q0 17 3 36zM-189 114q19 -35 90 -35h11q154 7 323 166q-106 44 -196 44q-29 0 -57 -5q-97 -16 -150 -80q-28 -34 -28 -63 q0 -14 7 -27z" />
<glyph unicode="[" horiz-adv-x="563" d="M-4 -311q2 30 24 87t27 77q28 135 64 258q111 390 184 618.5t98 281.5t53.5 124t60.5 185q14 49 22.5 57t56.5 16q10 2 113.5 3.5t197 6t93.5 14.5q-1 -35 -32.5 -54t-78 -24t-95 -6.5t-93 -5.5t-61.5 -16q-18 -13 -28.5 -36.5t-18 -61.5t-11.5 -51q-26 -83 -91.5 -261.5 t-123.5 -339t-130 -399.5t-123 -465q24 -3 96 -4t221 -21q-7 -6 -19 -16t-48.5 -29.5t-72.5 -25.5q-17 -3 -34 -4t-41 0.5t-34 2t-42 4t-34 3.5q-68 10 -80 17q-26 14 -20 65z" />
<glyph unicode="\" horiz-adv-x="686" d="M359 1521q31 0 54 -15t36 -42.5t19 -46.5t11 -46l17 -127q16 -126 39.5 -309t47 -369.5t41 -328.5t18.5 -164q0 -1 21 -264.5t21 -265.5q-20 0 -37 9.5t-29.5 28.5t-22.5 40.5t-16.5 52.5t-11 57t-8 62t-5 59t-3.5 56.5t-3 46.5q-13 180 -60 571t-87.5 691.5t-41.5 303.5 z" />
<glyph unicode="]" horiz-adv-x="557" d="M-254 -418q-23 48 66 66q51 11 218 14q74 1 84 8q53 161 95 303t57 203l16 61q130 400 234 854q3 12 18.5 63t22.5 90.5t0 65.5q-10 34 -35 47t-56 8.5t-67.5 -10.5t-68.5 -9.5t-59 11.5q-10 6 -19.5 17t-14.5 20l-5 8q92 20 133 27q145 24 242 2q61 -14 66 -69 q2 -21 -15.5 -66.5t-19.5 -56.5q-4 -20 -13 -81.5t-17 -95.5q-26 -108 -72 -323t-87 -373.5t-102 -338.5q-10 -30 -55 -135.5t-57 -165.5q-8 -40 -12.5 -56.5t-12.5 -32t-21 -18.5t-31.5 -5.5t-51.5 -2.5h-28q-70 0 -173.5 -8.5t-158.5 -20.5z" />
<glyph unicode="^" horiz-adv-x="565" d="M375 1038q-17 34 22 85q15 19 31 35.5t41 38.5t36 33q18 17 53.5 56t57.5 59q41 37 62 40q34 5 26 -112q-1 -10 -3.5 -31t-2.5 -40q0 -14 1.5 -38t1.5 -44q0 -121 -46 -127q-18 122 -22 272q-79 -88 -132.5 -137t-125.5 -90z" />
<glyph unicode="_" horiz-adv-x="1570" d="M72 114q254 -11 323 -15q24 -1 184 -12t245 -13q11 0 123.5 -0.5t239 -3t206.5 -10.5q52 -5 79 -23.5t23.5 -33t-6.5 -19.5q-198 27 -666 29q-92 1 -436 22q-6 0 -55.5 1.5t-89.5 4.5t-86 10.5t-69 23.5t-15 39z" />
<glyph unicode="`" horiz-adv-x="0" d="M-184 1418q-1 29 3 41t14 5.5t17 -14t22 -27.5q3 -3 4 -5t3.5 -4.5t4 -5t3.5 -4.5q18 -21 51 -62.5t56 -72.5l24 -31q-26 -64 -148 102z" />
<glyph unicode="a" horiz-adv-x="905" d="M90 181q-3 15 -3 32q1 47 19 113q26 90 90 199q56 93 117.5 155.5t114.5 70.5q23 3 43 3q69 0 106 -40q47 -52 51 -202q38 42 99 219h-4q2 0 6 1t15 2.5t21.5 2t24.5 -0.5t25 -4t20.5 -10t15 -17t5 -26t-7.5 -36q-41 -115 -109 -266t-91 -219q-11 -32 -10 -52 q0 -23 13 -32q6 -4 15 -4q36 0 121 62q106 77 198.5 163.5t125.5 125.5q1 -6 1 -12q0 -45 -65 -129q-75 -96 -173 -178t-149 -92q-21 -4 -41 -4q-58 0 -102 33q-17 12 -28 25.5t-16.5 30.5t-7.5 31t-0.5 36.5t4 38t7 44t6.5 46.5q-21 -18 -56.5 -67.5t-65.5 -92t-76.5 -77 t-94.5 -35.5q-31 0 -64.5 15t-61.5 53.5t-38 93.5zM239 91q7 -7 16 -10q8 -3 16 -3q19 0 41 12q34 16 63 50q77 87 165 271q28 57 33 157q1 15 1 28q0 76 -25 93q-7 4 -16 4q-42 0 -118 -99q-93 -125 -154 -284q-41 -104 -40 -162q-1 -39 18 -57z" />
<glyph unicode="b" horiz-adv-x="897" d="M268 254q-2 -23 -2 -45q0 -45 10 -83q16 -56 59 -72q11 -4 23 -4q35 0 78 36q57 48 106.5 124.5t89.5 169.5q-44 50 -72 112q-26 58 -26 115v9q2 60 41 90q30 23 61.5 27t58 -11.5t46.5 -45.5q19 -32 29 -80q7 -34 7 -72q0 -16 -1 -34q-3 -46 -18 -98h6q36 0 92 24 t110.5 58.5t103.5 68.5t79 58l30 24v-7q-1 -52 -83 -128q-88 -80 -199 -134q-91 -45 -144 -45q-12 0 -21 2q-23 -56 -53.5 -106.5t-71 -95.5t-86.5 -72.5t-100 -37.5q-19 -3 -38 -3q-36 0 -73 12q-176 57 -176 282q0 220 167 600q48 108 98.5 197.5t97 149t92.5 104.5t85 64 t75 27q13 3 24 2q21 0 38 -9q39 -15 49 -57q3 -15 3 -31q1 -30 -11 -67q-18 -56 -51 -117.5t-79 -124.5q-58 -80 -145 -160.5t-176 -138.5q-29 -74 -54 -147.5t-48 -165.5t-31 -164zM480 914q132 113 238 269q78 115 78 161q0 16 -10 24q-5 4 -11 4q-17 0 -43 -28 q-36 -38 -81 -110t-87.5 -153t-83.5 -167zM637 623q-3 -15 -3 -32q0 -46 23 -103q4 -10 9 -19q24 71 28 119q1 8 1 16q0 35 -16 47q-10 6 -18 6q-18 0 -24 -34z" />
<glyph unicode="c" horiz-adv-x="745" d="M102 172q-7 34 -8 68q0 36 8 74q22 104 114.5 240t164.5 178q35 22 95 26q16 1 33 0q43 0 84 -8q57 -12 93 -52q27 -30 27 -71q0 -14 -3 -29q-13 -65 -60 -109q-48 -45 -90 -45h-1q-40 0 -60 27q59 51 93 101q32 46 32 79v6q-3 37 -37 44q-7 1 -14 1q-54 0 -131 -89 q-47 -55 -96 -140t-78.5 -166t-29.5 -150.5t41 -97.5q24 -16 58 -16q119 0 358 199q90 75 205 190q8 -11 8 -26q0 -23 -17 -56q-29 -56 -94 -119t-146.5 -120t-177.5 -91q-78 -28 -144 -28q-16 0 -31 2q-80 8 -131 59t-65 119z" />
<glyph unicode="d" horiz-adv-x="851" d="M84 178q-6 25 -7 54q0 71 38 165q24 57 59.5 113t87.5 108q54 53 110 84q53 29 118 29h8q70 -2 139 -47q62 156 122.5 286.5t137 264t153.5 196.5q53 43 99 43q21 0 42 -9q73 -33 83 -135q1 -14 1 -28q0 -90 -57 -193q-36 -60 -104.5 -134.5t-131 -130.5t-121 -112 t-76.5 -85q-163 -392 -199 -515q-10 -35 -10 -57q0 -35 25 -36h2q59 0 215 155q158 157 202 222q7 -13 7 -31q1 -37 -33 -92q-50 -81 -130.5 -153.5t-172.5 -118.5q-63 -32 -108 -32q-20 0 -37 7q-75 29 -75 118q0 20 4 44q-122 -132 -206 -147q-10 -2 -19 -2q-46 0 -91 37 q-53 44 -75 132zM202 190q-2 -18 -3 -35q-1 -18 3 -32q6 -28 18.5 -41t29.5 -16q4 -1 8 -1q47 0 128 81q88 88 109 149q13 40 45.5 142.5t37.5 116.5q1 3 8.5 21.5t10 28.5t4.5 25.5t-3 26t-17 16.5q-24 12 -60 -3.5t-97 -80.5t-128 -176q-41 -68 -65 -126t-29 -96zM871 834 q57 54 108 112.5t88.5 112.5t67 105.5t47.5 94.5q16 43 24 77q5 24 6 42q0 8 -2 16q-4 22 -18 29q-3 2 -7 2q-25 1 -67 -65q-50 -76 -103.5 -192.5t-89.5 -201.5t-54 -132z" />
<glyph unicode="e" horiz-adv-x="714" d="M96 223q0 7 -1 14q0 42 8 96q22 123 104 237.5t190 173.5q70 38 132 38q34 0 66 -11q51 -18 73 -51q18 -27 18 -56v-12q-4 -35 -25.5 -74.5t-45.5 -69t-49 -53.5q-42 -41 -135 -86.5t-176 -63.5q-18 -68 -18 -116q0 -64 33 -89q10 -8 29 -7q42 0 128 39q124 57 258.5 155 t192.5 179q15 -9 15 -27q0 -39 -68 -115q-100 -114 -253 -214q-146 -96 -228 -95h-8q-34 2 -64 9t-62.5 21.5t-54.5 37.5t-39.5 58t-19.5 82zM274 367q64 26 131.5 78.5t117.5 112.5q62 75 62 131v10q-5 37 -38 37h-2q-56 -2 -132 -102q-22 -30 -45 -67q-57 -95 -94 -200z " />
<glyph unicode="f" horiz-adv-x="600" d="M-110 -561q2 39 12.5 95.5t18 93t20.5 91.5t18 80q16 75 59.5 222.5t113 346t146 387t166.5 350.5t167 230q43 38 93 43q11 2 21 2q38 0 69 -18q39 -21 62 -68q15 -33 15 -71q0 -18 -3 -36q-7 -44 -25.5 -105t-49 -138t-75.5 -150t-99 -134.5t-126 -98.5 q-68 -35 -142 -35h-8q-42 -104 -58 -148q-63 -178 -121 -377q42 -19 63 -40q54 3 175.5 104t238 229.5t165.5 212.5q-8 -88 -54 -180t-109.5 -164.5t-133 -132.5t-128 -94.5t-91.5 -39.5q21 -50 30 -125q5 -47 5 -97q0 -30 -2 -60q-5 -82 -26 -164t-53.5 -147.5t-84 -106 t-113.5 -40.5q-43 0 -74 14.5t-48.5 43t-27.5 60.5q-10 30 -10 74t4 91zM13 -714q1 -62 24 -66h5q32 0 69 54q40 59 67.5 152.5t41.5 193.5q6 44 6 86q0 54 -10 104q-18 90 -70 129q-39 -137 -68.5 -261t-47.5 -227q-17 -98 -17 -158v-7zM382 616q99 14 218.5 180t177.5 330 q30 88 30 132q0 40 -24 46h-3q-39 0 -159 -209q-125 -218 -240 -479z" />
<glyph unicode="g" horiz-adv-x="819" d="M24 -690q-9 33 -9 68q0 86 59 178q83 129 260 198q40 103 192 500q-29 -9 -51 -35t-37 -57t-32 -61t-46.5 -51t-70.5 -22h-6q-74 0 -134 68q-57 64 -57 167q0 12 1 24q6 112 51 222.5t116 185.5t145 82q8 1 16 1q36 0 64 -14q35 -18 56.5 -49.5t36.5 -64t29.5 -65.5 t26.5 -46l80 216q3 6 40.5 10.5t61.5 -11.5q12 -8 12 -28q0 -22 -13 -57q-28 -65 -78.5 -199t-133 -357t-118.5 -320q31 5 54 5q12 0 21 -2q30 -3 49 -8.5t27.5 -17t12 -21.5t1 -23t-5.5 -20t-6 -13q-11 8 -17.5 12.5t-20 13t-26.5 12.5t-30 7.5t-37.5 3t-43.5 -5.5 q-117 -309 -155 -379q-36 -68 -80.5 -108t-83.5 -45q-7 -1 -13 -1q-32 0 -59 23q-33 27 -48 84zM73 -676q-2 -15 -2 -27q0 -32 18 -42q5 -3 11 -3q21 0 46 39q7 12 14 27q41 91 142 352q-95 -58 -154 -150t-75 -196zM225 232q-1 -17 -1 -33q0 -88 43 -111q9 -4 19 -4 q37 0 86 56q63 71 109.5 160.5t65.5 149.5q10 32 10 65q0 43 -16 87q-29 81 -65 94q-7 3 -15 3q-29 0 -64 -37q-45 -47 -101 -173q-62 -139 -71 -257z" />
<glyph unicode="h" horiz-adv-x="839" d="M7 39q71 200 190 518t177 450q123 276 222 387q42 46 86 62q25 9 46 9q16 1 30 -5q32 -12 54.5 -42t25.5 -69q1 -14 1 -27q0 -49 -14 -93q-18 -56 -52.5 -100.5t-77.5 -86t-91 -83.5t-90.5 -85.5t-78.5 -100.5t-53 -119q55 36 93 56t79 32q29 9 56 8q10 0 20 -1 q36 -5 71 -27q47 -29 59 -89q6 -28 5 -58q1 -35 -7 -72q-14 -70 -50 -154q-16 -37 -38 -86t-34 -75.5t-22 -55.5t-9 -45t13 -24q2 -2 6 -2q18 0 68 42q60 50 137.5 129.5t128 134t77.5 85.5q3 -8 3 -17q0 -59 -93 -179q-108 -140 -241 -225q-68 -44 -113 -44q-42 0 -63 40 t-21 97v14q3 66 24 130t47 133.5t48.5 122.5t27.5 97t-15 57q-10 7 -25 7q-28 -1 -72 -23q-68 -36 -145.5 -114t-124.5 -167q-44 -84 -73.5 -171t-36.5 -132l-8 -46q-8 -4 -22 -8q-11 -4 -39 -3h-13q-38 1 -73 18zM506 983q75 43 164 164.5t106 203.5q4 16 4 29q0 28 -19 38 q-7 4 -14 4q-22 0 -51 -34q-23 -28 -53 -85.5t-47.5 -99t-50.5 -124t-39 -96.5z" />
<glyph unicode="i" horiz-adv-x="450" d="M63 208q18 92 66 222t87 214l39 84q3 1 8.5 2t20.5 4t29 3.5t31 1t29 -4t20.5 -12t8 -22t-10.5 -34.5q-37 -73 -98 -229t-97 -257q-20 -50 -20 -84q0 -16 4 -28q7 -20 27 -20q18 0 48 17q39 22 136 115t175 175l78 82q6 -8 6 -20q0 -20 -16 -53q-26 -52 -80.5 -112 t-118 -116.5t-128 -94t-104.5 -37.5h-3q-68 0 -112 49q-31 34 -31 95q0 27 6 60zM402 1083q6 29 26 41q15 9 32 9q5 0 11 -1q22 -4 35 -19q18 -19 18 -45v-6q-2 -30 -28 -44q-15 -8 -31 -8q-17 0 -36 10q-29 15 -29 46q0 8 2 17z" />
<glyph unicode="j" horiz-adv-x="409" d="M-512 -538q5 51 37.5 114t89.5 123q59 60 135.5 92.5t151.5 32.5q6 14 18 43t17 43q66 159 146.5 365.5t128.5 332.5l48 127l-4 -1l53 7q10 1 18 1q74 0 70 -46l-4 -17q-36 -106 -360 -886q67 -27 107 -74.5t48 -98.5q2 -18 2 -35q0 -32 -8 -63q-14 -48 -46 -81 q-5 112 -42 178.5t-98 85.5q-35 -76 -86.5 -157.5t-110.5 -153t-121 -110.5q-44 -28 -80 -28q-15 0 -28 5q-26 9 -47 36t-31 71q-6 28 -6 59q0 17 2 35zM-443 -672q13 -20 34 -20q16 0 36 11q27 16 54 50q67 85 174 340q-110 -28 -177.5 -86t-99.5 -129q-33 -73 -33 -120 q0 -28 12 -46zM413 1078q6 29 24 41q13 9 27 9q5 0 10 -2q20 -4 33 -19q18 -19 18 -47q0 -34 -26 -48q-14 -8 -29 -8q-17 0 -34 10q-25 14 -25 45q0 9 2 19z" />
<glyph unicode="k" horiz-adv-x="811" d="M11 51h4q36 108 79 229q57 162 91 246.5t68 185.5q29 104 64 214q30 91 60 170.5t70 163.5t79 141.5t86 91.5q39 28 77 28q8 0 15 -1q87 -13 88 -124q0 -5 -1 -10q-4 -138 -123 -335t-296 -350l-26 -86q46 46 113.5 95.5t113.5 61.5q24 6 45 6q42 0 78 -22 q54 -34 59 -122v-12q0 -82 -66 -140q-71 -64 -182 -92q120 -51 119 -140q0 -44 -36 -125.5t-36 -98.5q0 -21 20 -21q19 0 46 13.5t61 42t64 55.5t72 73t67.5 73.5t67.5 77.5t54.5 65t45.5 55q4 -5 4 -14q0 -16 -10 -44q-16 -45 -55.5 -107t-91.5 -125.5t-123 -121 t-141 -85.5q-36 -14 -67 -14q-49 1 -87 35q-46 42 -46 99q0 21 6 43q4 14 10 35.5t9.5 34t8 30.5t6 28.5t2 24.5t-2.5 22.5t-8 17t-14 14t-21 9.5q-22 6 -56 11.5t-57 12.5t-41 22q-80 -245 -107 -316q-12 -30 -52 -35q-13 -2 -26 -2q-25 0 -48 7zM297 447q27 -25 63 -27h7 l65 16q36 18 69 44.5t61 59.5q68 80 72 135q3 39 -37 38q-6 -1 -14 -2q-37 -7 -117 -58t-134 -104q-6 -16 -12 -33.5t-12.5 -37.5t-10.5 -31zM454 913q44 1 130.5 134.5t136.5 273.5q26 71 26 110q0 37 -24 44q-2 1 -5 1q-22 0 -58 -56q-40 -62 -80 -161t-72.5 -188.5 t-53.5 -157.5z" />
<glyph unicode="l" horiz-adv-x="534" d="M128 258q4 114 44 263t115 319q137 312 252 470q98 135 180 135q14 0 27 -4q48 -14 62 -79q5 -22 5 -49q1 -49 -17 -111q-26 -95 -78.5 -197.5t-146.5 -203t-208 -165.5q-55 -154 -85 -276q-25 -101 -25 -180q0 -16 1 -30q6 -88 58 -103h4q40 0 172 145q140 154 245 313 q15 -15 13.5 -49t-25.5 -81.5t-56.5 -99t-79 -101.5t-93.5 -89.5t-99 -62.5q-46 -20 -86 -20h-10q-89 6 -131 74q-39 63 -39 165q1 8 1 17zM400 736q37 16 80 58t81.5 95.5t76.5 116.5t64.5 122.5t45.5 111.5q20 54 20 88q0 31 -13 42q-3 1 -6 1q-23 0 -75 -78 q-60 -89 -134.5 -240.5t-139.5 -316.5z" />
<glyph unicode="m" horiz-adv-x="1222" d="M27 99q5 16 67 165.5t91 240.5q1 3 3.5 8.5t3.5 7.5q1 3 12 29h1q0 1 0.5 2t0.5 2l1 2q1 2 1 4.5t1 3.5v1q12 30 20 55q22 48 41 115q8 0 26.5 0.5t29.5 0.5t25 -1t23 -5t13 -10t-15 -41t-18 -40q50 65 114 93q48 21 95 20q15 0 31 -2q60 -8 102 -48t50 -101 q53 74 111 107q51 29 96 29q7 -1 13 -1q50 -4 98 -36q70 -48 76 -146q0 -7 1 -15q0 -95 -66 -237q-14 -27 -32 -63.5t-27 -55t-19.5 -40.5t-16 -36t-8.5 -25q-9 -36 20 -36q23 0 54 22q43 32 212.5 214t189.5 219q-1 -37 -41 -111.5t-101.5 -153.5t-134.5 -148.5t-141 -95.5 q-31 -12 -59 -13q-33 0 -62 17q-65 44 -65 123q0 8 1 16q3 33 22.5 87.5t45.5 109t51.5 113.5t42.5 107q17 46 17 81q0 38 -26 49q-14 7 -29 7q-38 0 -85 -41q-65 -57 -121.5 -150t-105.5 -207q-40 -94 -58 -164q-15 -60 -16 -85q0 -4 1 -8l2 -23q-27 -9 -58 -11.5 t-59.5 5.5t-38.5 33q-3 9 -3 20q0 21 12 49q175 395 175 527q0 53 -29 63q-14 5 -29 5q-60 0 -134 -78q-92 -98 -149 -280q-15 -48 -33 -104.5t-29.5 -91t-21.5 -66.5t-14 -47t-2 -17l-13 -2h-5q-65 0 -104 25q-27 17 -27 42q0 7 3 16z" />
<glyph unicode="n" horiz-adv-x="833" d="M-8 69q3 3 54.5 115.5t118.5 273.5t96 255q8 1 25 3t27 3t22 1t19 -4t9 -11q1 -2 1 -5q0 -25 -44 -119q90 118 174 159q41 20 80 19q42 0 81 -22q49 -31 63 -97q5 -24 5 -52q0 -51 -16 -117q-25 -103 -90 -232q-51 -100 -51 -146q0 -18 8 -28q7 -10 21 -10q39 0 128 82 q128 116 319 366q6 -5 6 -18q0 -19 -14 -55q-24 -60 -75.5 -136.5t-114.5 -152t-133.5 -128.5t-123.5 -56h-6q-39 0 -71 25q-36 27 -52 85q-8 25 -8 56q0 41 13 92q12 47 39.5 116t51.5 125t42 110q17 50 17 84q-1 4 -1 6q-2 36 -28 45q-12 4 -25 4q-26 0 -57 -16 q-47 -25 -88.5 -71.5t-76 -100.5t-49.5 -99q-18 -54 -65 -164t-85 -194l-38 -83h5h-5.5h-14t-20.5 1t-22.5 4t-22.5 7t-19 11t-13 16q-4 8 -5 20q0 16 9 33z" />
<glyph unicode="o" horiz-adv-x="798" d="M78 270q6 64 35.5 141t66 138t74.5 98.5t79.5 64t80 35t77.5 11.5q10 1 19 0q28 0 53 -6q76 -16 122 -76q35 -46 35 -123q0 -24 -3 -51q1 0 2 0.5t2 0.5q88 21 188.5 65t156 75.5t73.5 45.5q2 -7 2 -14q-1 -35 -47 -80q-56 -54 -163.5 -102t-228.5 -69q-6 -23 -23 -72 q-73 -202 -189 -287q-87 -64 -175 -64q-29 0 -58 7q-38 9 -70.5 26.5t-60.5 50.5t-41 77q-9 31 -9 71q0 18 2 37zM214 252q-7 -43 -7 -75q-1 -35 7 -58q14 -44 48 -59q13 -5 27 -6q35 0 75 34q57 47 104 127.5t74 167.5q6 16 10 33q-52 3 -98 16q-96 26 -139 95 q-18 -32 -37 -73q-50 -114 -64 -202zM412 656q-12 -41 -12 -71q0 -75 74 -83q50 -10 93 -11h5q14 59 14 102q0 18 -2 33q-8 53 -49 71q-14 6 -30 6q-42 0 -93 -47z" />
<glyph unicode="p" horiz-adv-x="923" d="M-328 -500q25 158 158 392.5t276 398.5l159 455v2q19 21 51 25q6 1 12 1q25 0 42 -16q20 -18 7 -53l-19 -114q51 96 138 147q61 36 126 36q28 0 57 -7q64 -14 101.5 -74.5t39.5 -138.5q1 -9 1 -18q0 -71 -18 -147q14 -1 28 -1q93 0 173 29q92 33 208 102q-3 -39 -87 -100 q-90 -64 -158 -86q-53 -17 -138 -17q-23 0 -49 1q-50 -136 -132 -208q-60 -53 -142 -69q-24 -4 -46 -4q-53 0 -97 26q-62 37 -63 122v6q0 89 57 144q39 38 91 56q50 18 100 18h2q52 -1 111 -6q24 80 24 154q0 20 -1 40q-9 91 -63 112q-15 6 -33 6q-32 0 -73 -20 q-63 -29 -127.5 -104.5t-102.5 -175.5q-19 -59 -108.5 -369t-161.5 -510t-124 -246q-42 -35 -87 -37h-6q-41 0 -73 24q-34 27 -50 86q-9 33 -9 72q0 31 6 66zM-272 -563q-4 -21 -4 -39q0 -34 13 -62q10 -24 25 -24q13 0 30 20q25 30 52 99q36 96 88 252t86.5 267t32.5 112 l8 42q-132 -186 -221.5 -370t-109.5 -297zM375 238q-6 -27 -6 -49q0 -46 27 -67q19 -7 36 -8h7q54 0 105 57q55 61 93 158q-30 2 -57 2q-49 0 -83 -8q-109 -28 -122 -85z" />
<glyph unicode="q" horiz-adv-x="880" d="M69 128q-3 22 -3 44q0 52 16 110q23 83 71 181q76 157 187 235q66 47 130 47q45 0 89 -22q71 -35 88 -112v3l27 3q11 14 33 46.5t37 49t38 31.5q15 10 33 10q8 0 17 -2q27 -7 60 -36l-54 -115q-53 -115 -129 -280.5t-120 -264.5h4q46 0 119 48q75 50 148.5 124t133.5 142 t91 113q3 -7 3 -17q0 -37 -42 -109q-38 -64 -112.5 -145.5t-167.5 -145.5q-84 -59 -142 -59q-6 0 -11 1q42 -56 45 -172v-17q0 -109 -36 -243q-38 -144 -111 -270q-23 -39 -51 -65.5t-55.5 -37.5t-56.5 -13h-8q-23 0 -44 10q-23 11 -43 29.5t-30 47t-12 61.5v10q0 30 10 66 q27 95 99 283t129 327l57 140v32q-67 -119 -177 -173q-54 -27 -104 -27t-94 28q-52 33 -62 104zM195 134.5q0 -78.5 44 -92.5q9 -3 20 -3q40 0 99 45q74 57 141.5 145.5t104.5 170.5q33 69 33 146v17q-4 86 -54 105q-12 4 -25 4q-38 0 -92 -33q-73 -45 -157 -166 q-48 -69 -81 -164.5t-33 -174zM356 -580q-22 -80 -22 -123q0 -47 28 -47h1q32 2 75 51l14 19q47 75 82 186q28 89 41 172q8 52 8 101q0 28 -3 55q-7 73 -40 107q-124 -310 -184 -521z" />
<glyph unicode="r" horiz-adv-x="749" d="M22 244q41 49 79 106t64 103t51 99.5t37.5 83.5t26.5 68t15 40q-50 46 -52 134v7q0 83 46 135q39 45 86 58q15 4 28 4q29 0 51 -20q28 -25 28 -80q0 -7 -1 -14q-4 -62 -24.5 -125t-38.5 -95l-19 -32q17 -12 39.5 -26.5t39.5 -25.5t37.5 -24.5t34.5 -24t30 -25t23 -26 t15.5 -28t6.5 -30.5t-5 -33q-13 -44 -79 -187t-70 -183q-1 -24 19 -24q64 0 260 192t264 301q4 -9 4 -22q0 -38 -35 -107q-77 -149 -226 -289t-249 -140q-33 0 -57 18q-31 22 -49.5 47.5t-27.5 51.5t-6 61.5t10 66t26 77t35.5 82.5t45.5 93q-1 3 -3 7.5t-11 19t-21.5 29 t-36 34t-52.5 36.5l-11 -18q-10 -18 -26.5 -47t-39.5 -65.5t-48.5 -74t-54.5 -73t-56.5 -62.5t-54.5 -42t-48 -11zM353 926q1 -42 15 -72q15 22 29.5 62t18.5 76q1 6 1 11q0 26 -18 32h-4q-17 1 -29 -31q-13 -33 -13 -72v-6z" />
<glyph unicode="s" horiz-adv-x="667" d="M37 255q82 106 158 232t107 187t38 80q-2 4 -4.5 10.5t-5.5 26.5t-2 40.5t11.5 49.5t30.5 55q60 79 117 85h9q16 0 30 -5q18 -7 30.5 -24t14.5 -40.5t-12 -58.5t-44 -74l-59 -70q50 -185 60 -324q101 44 278 139.5t212 135.5q8 -12 8 -27q0 -29 -32 -65 q-47 -54 -131 -103t-174.5 -89.5t-158.5 -59.5q0 -53 -3.5 -92t-16.5 -87t-36.5 -80t-66.5 -57.5t-103 -32.5q-18 -2 -34 -2q-34 0 -62 9q-40 13 -59.5 39t-22.5 61q-1 6 -1 13q-1 29 11 57q14 34 45 66.5t74 52.5q62 29 136 58v26q0 151 -22 204q-8 -11 -45 -62.5 t-68.5 -92t-71.5 -86.5t-76 -72q-32 -23 -54 -23h-5zM164 114q6 -60 48 -68q6 -1 12 -1q41 0 83 52q20 25 36 59q27 58 34 157q-103 -37 -161 -89q-52 -47 -53 -99q0 -6 1 -11zM426 868q-1 -12 -2 -23q0 -15 3 -28q106 100 106 140q0 20 -27 26q-6 1 -11 1q-19 0 -33 -14 q-18 -18 -25 -45t-11 -57z" />
<glyph unicode="t" horiz-adv-x="491" d="M107 222q2 83 105.5 379t203.5 552q-14 1 -36 2t-31 1.5t-25 1.5t-22.5 2t-17.5 3t-16 4.5l-12 6t-12 8t-10 10.5q60 6 132 6q32 0 67 -1q96 244 99 255q0 2 18 6t42 6h9q19 0 36 -5q22 -6 30 -23.5t-5 -51.5q-20 -46 -77 -196q72 -4 129 -4t99 4q6 -13 6 -22 q0 -19 -22 -26q-21 -7 -72 -7q-59 0 -158 9q-305 -814 -345 -975q-8 -31 -7 -54q0 -21 5 -35q12 -32 42.5 -31t71.5 21q55 30 208 205t201 263q11 -10 11 -30q0 -29 -22 -79q-36 -86 -113 -188.5t-157 -167.5q-86 -59 -169 -61h-7q-78 0 -128 54q-51 54 -51 151v7z" />
<glyph unicode="u" horiz-adv-x="927" d="M91 170q-3 16 -3 36q0 37 11 85q17 73 64 158q34 61 86 166t65 148q52 -34 60 -102q2 -15 1 -31q1 -54 -19 -112q-26 -74 -75 -162q-49 -90 -69 -154q-14 -45 -14 -74q0 -12 2 -20q8 -30 34 -39q11 -4 24 -4q23 0 53 13q46 20 84 60q130 135 318 607q2 1 6 2t16 3.5t23 4 t25 2t25.5 -2t21 -9.5t14.5 -17.5t3.5 -28.5t-10.5 -42q-9 -23 -30.5 -76t-40 -99.5t-41 -107t-36.5 -109.5t-23 -95q-6 -29 -6 -52q0 -13 2 -23q5 -30 24 -40q6 -4 15 -4q25 0 67 30q57 40 120.5 106t122.5 134.5t98 118.5l39 49q7 -3 7 -15q-1 -16 -13 -46 q-22 -53 -72 -124t-111 -139.5t-131 -115.5q-67 -45 -118 -45h-4q-76 2 -122 64q-38 50 -37 126q0 18 2 38q-85 -120 -163 -172q-69 -45 -128 -46q-8 0 -16 1q-32 4 -62.5 20.5t-55 51.5t-33.5 83z" />
<glyph unicode="v" horiz-adv-x="747" d="M58 162q-2 15 -2 31q0 59 28 131q27 64 108.5 206.5t112.5 232.5q40 -24 57 -62q16 -35 16 -70v-7q-2 -38 -19.5 -90.5t-36.5 -91.5t-48 -91q-26 -47 -46.5 -90.5t-36.5 -91.5q-13 -38 -13 -67q0 -7 1 -14q4 -33 32 -41q7 -2 15 -2q52 0 134 96q94 111 181.5 273.5 t143.5 313.5q-34 51 -52 113q-11 38 -11 74q0 23 4 45q12 57 60 76q23 9 43 9q28 0 49 -19q33 -30 34 -102q0 -77 -38 -201q74 -49 182 -49q60 0 131 15q1 -7 1 -13q0 -36 -44 -58q-38 -19 -94 -18q-20 0 -43 2q-84 10 -154 57q-23 -61 -57.5 -136t-88 -168.5t-110.5 -168 t-126 -125.5t-132 -51h-3q-70 0 -118 40q-50 42 -60 112zM694 860q5 -30 16 -56q26 87 26 135q0 46 -24 55h-2l-12 -14q-10 -26 -10 -61q0 -27 6 -59z" />
<glyph unicode="w" horiz-adv-x="1216" d="M122 130q-6 32 -5 70q0 40 6 88q12 94 57 237t122 319q2 1 6.5 2t17 3t24.5 3q8 1 18 1q6 -1 10 -1q16 0 28 -2.5t23.5 -9t17.5 -16.5t6 -26.5t-8 -38.5q-9 -24 -32.5 -79.5t-49.5 -115.5t-55.5 -131t-51.5 -135t-36 -118q-12 -46 -13 -78q1 -6 1 -10q2 -34 23 -40 q5 -1 11 -1q129 0 449 681q3 1 8 1.5t20.5 2.5t28 2t31 -0.5t28.5 -5.5t21 -12.5t9 -21t-8 -31.5q-17 -35 -43.5 -102.5t-55.5 -157.5t-48 -171q-16 -70 -17 -125q0 -9 1 -17q3 -61 35 -71q9 -3 19 -3q40 0 92 53q64 65 119.5 169t93.5 217q-57 27 -85 103q-18 48 -19 94 q1 26 7 52q16 70 74 80q10 2 19 2q55 0 84 -66q19 -43 19 -105q0 -47 -11 -105q40 4 120 20.5t181.5 54t138.5 79.5q3 -8 3 -16q0 -40 -72 -84q-86 -54 -201.5 -88.5t-186.5 -34.5q-36 -125 -117 -266q-52 -91 -111 -141t-109 -57q-13 -2 -25 -2q-36 -1 -70 15 q-46 20 -76.5 63.5t-44.5 100.5q-9 35 -9 70q0 23 4 46q-20 -9 -47.5 -42t-55.5 -72t-59.5 -76.5t-69.5 -61.5q-34 -21 -67 -20h-8q-41 4 -69 33.5t-40 94.5zM995 647q0 -83 51 -117l5 19q17 70 17 115q0 41 -14 63q-8 13 -18 13q-9 0 -18 -11q-23 -25 -23 -82z" />
<glyph unicode="x" horiz-adv-x="708" d="M-68 39q18 88 45 148.5t68.5 101.5t89.5 65.5t121 47.5q-1 22 -3.5 64.5t-4 65.5t-5 52t-7.5 48q0 35 -43 190q33 -5 71 -41.5t65 -78.5t38 -73q15 -43 30 -173q58 33 105.5 82t75.5 101q26 52 40 103q10 38 11 71q1 11 -1 22q-4 42 -26 67q29 -11 48.5 -37t25.5 -63 q4 -23 5 -48q0 -16 -2 -32q-4 -44 -24 -91t-51 -92t-82 -87t-114 -72q6 -45 6.5 -104t1 -95.5t7 -71.5t26 -49t55.5 -10t97.5 48.5t124 104.5t119 119t92.5 100l36 41q6 -7 6 -19q0 -19 -15 -52q-24 -53 -75 -117t-113.5 -125.5t-134 -103t-127.5 -42.5h-7q-58 0 -99 16 q-44 17 -68 37t-40 68.5t-20.5 76t-11.5 94.5l-1.5 12t-1 10.5t-1.5 11.5q-70 -20 -118 -48.5t-70.5 -57.5t-38 -62.5t-21.5 -62.5t-18.5 -59t-32.5 -50z" />
<glyph unicode="y" horiz-adv-x="811" d="M-46 -654q-2 14 -2 29q0 46 18 96q23 65 84.5 132t150.5 116q74 40 150 47q18 54 57 175.5t68 205t59 149.5q-10 -13 -32.5 -44t-36 -48.5t-36 -46t-40 -45t-40.5 -38t-44 -32t-45.5 -19t-49.5 -7.5t-50 10q-84 29 -84 136q0 65 28 140t64 135t77 145.5t60 161.5 q42 -24 54 -65q6 -17 6 -38q0 -29 -10 -65q-17 -61 -44.5 -121.5t-77.5 -151.5q-72 -133 -72 -195q0 -22 9 -35q15 -24 47.5 -16.5t69 32.5t71.5 61q83 87 180.5 269.5t141.5 301.5q0 2 16.5 7t38.5 8t43 -2.5t29 -25.5q4 -8 4 -21q0 -15 -6 -37q-22 -74 -127 -359 t-205 -537q36 -12 67.5 -32.5t51.5 -43.5t31.5 -46t10.5 -42.5t-13 -29.5q-78 103 -175 129q-91 -227 -141 -326q-35 -71 -88 -115t-111 -48h-8q-54 0 -103 48q-39 39 -46 98zM3 -660.5q0 -31.5 12 -52t29 -29.5q7 -4 16 -4q12 0 27 8q26 12 54 48q96 124 187 381 q-74 -16 -144.5 -69.5t-114.5 -112t-58 -107.5q-8 -31 -8 -62.5z" />
<glyph unicode="z" horiz-adv-x="792" d="M84 -588q-1 5 0 9q0 27 16 61q19 40 64 80q54 47 110.5 76t125 57.5t125.5 64.5q29 63 51 136.5t34 151.5q6 35 6 67q0 38 -8 71q-15 61 -60 83q-86 -174 -206 -233q-19 -9 -44.5 -10t-50 5t-42.5 21.5t-24 37t9 54t53 69.5q70 69 166 92q51 103 94 209t55 158 q-99 29 -161 59q-6 -10 -47.5 -90.5t-79 -147.5t-88.5 -124q-46 -52 -81 -52q-4 0 -7 1q61 74 106.5 155t90.5 188l45 107q-69 53 -69 119q0 47 36 100q30 34 72 36h4q39 0 63 -43q13 -24 14 -53q0 -26 -11 -56q-11 -29 -35 -91l5 -2q16 -5 38.5 -11t41.5 -11t41.5 -11.5 t40 -14t34.5 -17.5t28 -24t18 -31t7 -40t-8 -51q-45 -159 -89 -258q99 -19 134 -70q48 -70 48 -174q0 -70 -22 -155q116 101 181 202q5 -19 5 -39q0 -39 -21 -81q-32 -62 -83 -108t-120 -89q-25 -64 -71 -149q-75 -139 -162 -232q-77 -80 -148 -108q-45 -18 -81 -18 q-20 0 -38 6q-48 16 -81 61q-20 27 -24 57zM166 -656q6 -2 13 -2q31 0 78 35q57 48 123 140.5t113 177.5q-254 -120 -325 -203q-37 -41 -36 -89q0 -49 34 -59zM220 70q7 -7 15 -7q19 0 50 36q44 53 98 155q-79 -36 -133 -96q-37 -42 -37 -68q0 -12 7 -20zM341 933 q-7 -17 -6 -36q0 -27 13 -58q5 -10 11 -19l1 1v1l2 -3q32 70 32 103q0 20 -12 28q-10 6 -17 6q-15 0 -24 -23z" />
<glyph unicode="{" horiz-adv-x="524" d="M93 32q16 58 45.5 119t71 133.5t60.5 112.5q71 146 23 197q-15 16 -42 39.5t-47 39.5l-20 16q70 14 122 30q96 30 129 109q15 35 15 77.5t-6.5 95.5t-5.5 85q7 190 191 293q120 68 249 78q79 6 84 -16q1 -3 -1 -7q-7 -1 -20.5 -3t-52 -11.5t-74.5 -22.5t-82.5 -39 t-83 -58.5t-68 -82t-45.5 -108.5q-9 -41 -6 -134t-14 -133q-17 -51 -41.5 -86t-46.5 -49t-41.5 -20.5t-31.5 -5.5l-12 1l5 -5t13 -14t17.5 -24t18 -33.5t14.5 -42.5t7.5 -52t-3.5 -62q-8 -57 -30 -118.5t-55.5 -138t-47.5 -114.5q-34 -93 -44.5 -158.5t4 -119.5t64 -87 t136.5 -47q-81 -39 -110 -41q-76 -2 -142 51t-96 144t0 212z" />
<glyph unicode="|" horiz-adv-x="532" d="M39 -70q69 171 119.5 286t71 162t41.5 109q50 151 96 268.5t72 175.5t62 165.5t76 261.5q152 0 -110 -627q-3 -5 -7 -17q-19 -44 -23 -55q-7 -18 -48.5 -140t-86.5 -249t-68 -179q-87 -193 -195 -161z" />
<glyph unicode="}" horiz-adv-x="534" d="M-279 -373q-8 10 25 19t80.5 16t56.5 10q76 29 138 81t98 122q21 41 32.5 111.5t19.5 133.5t26 124.5t63.5 101t119.5 46.5q-30 18 -50 42t-27.5 54.5t-10 60t5.5 68.5t15.5 68.5t24 71.5t27 66.5t28.5 65t25 55.5q156 362 5 438q-29 15 -75.5 19.5t-47.5 4.5q-3 5 15 15 q54 31 126 25q85 -9 143 -78q50 -59 63.5 -145.5t-17.5 -206.5q-22 -73 -100.5 -193.5t-100.5 -170.5q-17 -38 -24.5 -68.5t-6.5 -59.5t17.5 -52t48.5 -39q6 -3 22 -4t29 -3.5t15 -10.5q-3 -22 -23.5 -31t-52 -11t-38.5 -4q-106 -35 -148 -113q-23 -42 -24.5 -100t6 -103 t-2.5 -102q-16 -76 -62 -140.5t-115 -105.5q-20 -12 -53.5 -28.5t-78.5 -33.5t-86.5 -27.5t-78 -9t-52.5 20.5z" />
<glyph unicode="~" horiz-adv-x="999" d="M155 630q4 30 81 99q63 57 150 113q2 1 27.5 18t38 24t39.5 23t45 22.5t41 13.5t41.5 5.5t32.5 -9.5q25 -15 32.5 -39.5t4.5 -41t-12 -51.5q-18 -70 12 -106t90 -37q45 -1 92.5 17.5t83.5 45t66 53.5t46 46l16 19q31 -32 -31.5 -104t-171 -131.5t-191.5 -59.5 q-111 0 -128 117q-5 39 -10.5 61t-16.5 43t-28 28t-44 5.5t-66 -14.5q-59 -20 -115.5 -62t-83.5 -74l-27 -31q-15 -5 -14 7z" />
<glyph unicode="&#xa1;" horiz-adv-x="532" d="M-27 -16q0 15 58 121.5t132 239t151 303.5t109 294l11 74q10 14 81 18q18 1 30 1.5t18 -5.5t5.5 -22t-7.5 -48q-30 -130 -159.5 -408.5t-239.5 -459.5q-1 -2 -14 -26.5t-23.5 -42t-29.5 -39t-36.5 -30t-40.5 -2.5t-45 32zM497 1243q-7 40 22 72q21 23 51 23q57 0 62 -42 q3 -37 -32 -68q-26 -24 -58 -24q-38 -1 -45 39z" />
<glyph unicode="&#xa2;" horiz-adv-x="825" d="M205 501q6 75 33 189q16 70 45 143t75.5 148t101.5 133t129.5 94.5t154.5 35.5q27 54 58.5 121.5t49.5 107.5l17 40q54 -12 36 -82q-9 -34 -46 -104t-44 -95q106 -53 64 -226q-20 -80 -48.5 -112t-89.5 -13q42 108 47.5 162t-22.5 80q-112 -295 -181.5 -471t-101 -251 t-47.5 -117q45 -4 85 17.5t65.5 48.5t53.5 83.5t40 88.5t34 97q2 5 2.5 7.5t2 6t2.5 6.5q1 0 9 -0.5t10.5 -1t10.5 -2t11 -5t9 -8.5t8 -13t4 -18t1.5 -25t-2.5 -33q-16 -117 -83 -205t-149.5 -122t-151.5 -10q-21 -43 -49 -131.5t-39 -113.5q-8 -18 -16.5 -28.5t-15 -14 t-12.5 -3t-8.5 2t-3.5 2.5q5 47 38 151.5t51 147.5q-54 44 -81.5 76.5t-45 86.5t-11.5 129zM327 472.5q-10 -69.5 3.5 -118t52.5 -54.5q130 357 207 553t116 307q-42 7 -95.5 -45.5t-100.5 -134t-85 -164t-57 -144.5q-11 -37 -21 -83.5t-20 -116z" />
<glyph unicode="&#xa3;" horiz-adv-x="909" d="M-264 157q101 28 140 35.5t85 7.5q60 0 252 -28q109 302 161 414q-19 2 -90.5 -5t-89.5 -7q-21 0 -35 4.5t-21.5 15t-10.5 17t-5 22t-3 18.5q103 11 177 12.5t113 7.5q79 207 106 263q108 233 231 270q25 7 51 7q45 0 91 -21t82 -70.5t36 -117.5q0 -40 -20.5 -95.5 t-36.5 -85.5t-46 -81q-66 28 -74 35q-12 11 -12 31q0 27 15.5 53t31.5 63.5t16 91.5q0 100 -57 100q-33 0 -69 -38t-77.5 -118t-64 -129t-61.5 -143q-2 -3 -2.5 -5t-1.5 -4.5t-2 -4.5q3 1 44 8.5t69 11t51 3.5q24 0 38.5 -3.5t21 -14t8 -18.5t2.5 -28q-163 -34 -262 -37 q-41 -86 -85 -212.5t-93 -237.5q68 -14 136 -14q54 0 103 8t80 17.5t64 27.5t46 27t36 28l24 20q1 -3 3 -8t6.5 -18.5t6.5 -25.5t1 -26.5t-7 -23.5q-69 -103 -331 -103q-118 0 -278 38.5t-237 38.5q-48 0 -105.5 -20t-93.5 -20q-11 0 -19 1.5t-13.5 5.5t-9 7.5t-6 11 t-3.5 11.5t-3 14.5t-3 15.5z" />
<glyph unicode="&#xa5;" horiz-adv-x="880" d="M232 985q26 0 210 -16l101 162q2 3 9 13t11.5 17.5t11.5 20t11.5 21.5t8.5 20.5t4.5 19.5t-2 15.5t-9.5 12t-19 5.5q-38 4 -102 -50q-11 -9 -20.5 -19.5t-18 -23t-14.5 -22t-13 -23.5t-9.5 -20t-8.5 -19.5t-6 -14.5q-41 14 -51 39q-11 30 15 74.5t56 71.5q26 23 65 38 t78.5 18t73 -16.5t45.5 -60.5q4 -25 5 -43.5t-7.5 -45t-16 -45.5t-21.5 -45t-24.5 -43.5t-24.5 -41t-22 -37.5q-1 -3 -10 -18t-18 -30.5t-21.5 -38.5t-21 -42t-16 -40t-7 -33t6.5 -21q13 -8 26.5 -8t32.5 14.5t35 30t34.5 38t31 39t24.5 33t15 20.5q129 161 256 280 q62 58 119 66q29 5 56.5 -8t18.5 -40q-1 -2 -33 -37.5t-80.5 -94.5t-80.5 -110q96 -5 121 -12q18 -5 27 -12t9.5 -11.5t-1.5 -14t-2 -12.5q-59 16 -189 16q-90 -148 -132.5 -232t-90.5 -211l183 -22q-2 -4 -6 -12.5t-5 -10.5t-4.5 -6.5t-6.5 -5.5t-8.5 -2t-13.5 -1 q-9 4 -156 8q-46 -117 -77 -210t-40 -128l-8 -34q-12 -3 -30 -6.5t-52.5 -3t-42.5 14.5q-8 8 -5.5 24.5t7 27.5t12.5 28.5t11 27.5l104 268q-12 1 -47.5 2t-64 4.5t-44.5 13.5q-9 5 -13 14t-4 15v6q137 -11 189 -11q137 337 183 412q-7 -7 -52.5 -61.5t-73.5 -79.5 q-51 -46 -119 -46q-42 0 -69.5 24.5t-26.5 73.5q1 34 21.5 88.5t22.5 63.5q-20 1 -57.5 1.5t-53 2t-36.5 6t-30.5 14.5t-12.5 27z" />
<glyph unicode="&#xa6;" horiz-adv-x="536" d="M122 -2q-1 28 3.5 59.5t17 68.5t23 63.5t22.5 53.5t13 31q10 26 30.5 76t35.5 90.5t27 77.5l61 192q46 -9 57 -19q30 -27 -6 -141q-15 -48 -93.5 -256t-127.5 -357q-30 0 -46 16.5t-17 44.5zM404 982.5q2 24.5 11 57t19 56.5t22 50.5t14 32.5q50 136 87.5 247t50.5 154 l13 43q96 -5 51 -162q-26 -89 -227 -552q-23 7 -33 28t-8 45.5z" />
<glyph unicode="&#xa7;" horiz-adv-x="634" d="M-18 180q9 31 30.5 54.5t46 34.5t48.5 16t40 2.5t18 -9.5q-45 -59 -65 -100.5t-24 -100.5q-4 -53 14 -79.5t45 -26.5q17 0 42 10t55.5 33t57 54.5t46.5 81t24 106.5q4 62 -9.5 135.5t-32 131t-32 130t-9.5 132.5q7 97 64.5 158t129.5 61q17 0 35 -4t27 -8l9 -4 q-1 10 -19.5 88.5t-33.5 159t-12 119.5q13 165 152 165q83 0 136.5 -47t47.5 -128q-5 -65 -55 -77q-29 -8 -41 5q-2 2 -2 5q22 49 19 83.5t-19 53t-36 18.5q-30 0 -60.5 -34.5t-35.5 -103.5q-4 -59 17 -157q7 -35 29 -120.5t30.5 -141.5t4.5 -110q-14 -187 -170 -269 q-25 -13 -56 -24q-9 -3 -9 -3.5t4 -0.5q1 -38 20.5 -122.5t13.5 -159.5q-9 -126 -93 -208.5t-192 -82.5q-102 0 -163.5 80.5t-36.5 204.5v-1zM384 670q4 -57 28 -88q55 21 94.5 85t51 124.5t0.5 89.5q-13 33 -37 33q-45 0 -79.5 -40t-48 -93.5t-9.5 -110.5z" />
<glyph unicode="&#xa8;" horiz-adv-x="0" d="M-272 1368q12 45 54 75t85 31q41 1 64.5 -27t13.5 -84q-8 -46 -49 -83t-89 -36q-49 1 -69.5 38t-9.5 86zM-219 1317q28 -8 57.5 10.5t44.5 44t8 34.5q-5 7 -32.5 -6.5t-53 -38t-24.5 -44.5zM103 1321q1 50 38 98.5t80 48.5q42 0 39 -55l-5 -2.5t-11.5 -7t-17 -11.5 t-19 -14t-19 -16t-16.5 -17t-11.5 -17.5t-3 -17.5t6.5 -16q16 -11 42 -2t41 21q16 13 23 36.5t6 40.5l-1 17q16 13 26.5 -17t10.5 -58q1 -51 -32.5 -80t-77.5 -29t-72 27.5t-27 70.5z" />
<glyph unicode="&#xa9;" horiz-adv-x="1083" d="M181 579q-1 180 125 346.5t299 220.5q106 33 198 10t155.5 -74t92.5 -120t9 -128q-25 2 -33 40q-20 97 -99 159q-122 96 -275 24q-145 -68 -238 -218.5t-105 -318.5q-4 -62 14 -111t53 -78.5t82 -48t101.5 -19.5t111.5 8q93 17 170 66.5t124 128.5q32 55 43.5 107.5 t15.5 133.5q35 -1 51.5 -23.5t16 -54t-9.5 -69t-20 -66.5t-22 -48q-40 -74 -117.5 -131t-167.5 -89q-62 -22 -129.5 -24.5t-130.5 13t-120.5 48.5t-100 78.5t-68.5 107t-26 130.5zM529 537q-5 88 62 203q57 96 116 125l11 4q57 20 103 -5.5t52 -86.5q8 -84 -36 -131 q-29 -30 -51 -17q-11 7 -15 24q28 61 39 92q14 30 3.5 48.5t-52.5 12.5q-28 -3 -58.5 -30.5t-52.5 -64.5t-39 -77.5t-17.5 -70.5t12.5 -43q19 -11 27.5 -4.5t19 17t19.5 6.5q47 -19 31 -59t-65 -40q-103 0 -109 97z" />
<glyph unicode="&#xaa;" horiz-adv-x="669" d="M323 1200.5q-5 29.5 10 67.5q8 22 22 40t27.5 30.5t37 22.5t39.5 16t46.5 11.5t46 8t49.5 6.5q9 26 33 58t58.5 58.5t71.5 28.5t73 -32q39 -40 24 -122q69 11 117.5 32.5t72.5 67.5q1 3 3.5 17.5t5.5 27t6 12.5q27 3 37.5 -13t7 -39.5t-12 -46.5t-17.5 -34 q-67 -81 -244 -98q-45 -81 -68 -155t-24.5 -121.5t4.5 -83t13 -52.5l7 -17h6q-35 -20 -68 26q-46 64 -38 178q8 112 72 223q-78 16 -94 11q0 -1 -17.5 -36t-41.5 -77.5t-37 -57.5q-24 -27 -54.5 -41t-58.5 -13.5t-54 11.5t-41 33.5t-20 52zM395 1217q-8 -50 16 -63 q22 -12 60 22q15 13 29 34.5t22.5 38t21.5 45.5t19 42q-59 8 -114 -29q-44 -30 -54 -90zM684 1398q18 -3 51 -6.5t36 -2.5q19 24 27 72q7 45 -15 41q-17 -3 -30.5 -10.5t-26 -24.5t-18.5 -26t-19 -34q-3 -6 -5 -9z" />
<glyph unicode="&#xab;" horiz-adv-x="907" d="M66 374q-4 15 2 26.5t13 16t26 13.5t26 12q31 17 104 73t168.5 131t140.5 108l171 139q54 -22 -87 -159q-132 -127 -308 -243q-126 -83 -171 -88q95 -52 168 -138q45 -54 117 -206q3 -6 10 -21t9 -20t5.5 -16t1 -16t-7.5 -12t-16 -12t-27 -9q-37 56 -70 112t-48 81.5 t-46 63t-80 83.5q-5 4 -50 33.5t-51 47.5zM538 450q1 10 5 14t15.5 8.5t19.5 9.5q204 128 435 362q53 -2 -31 -100q-90 -105 -234 -214q-62 -47 -111 -75q81 -52 148 -188q61 -123 56 -200q-3 -60 -55 -46q-22 65 -31 87q-77 191 -169 286q-1 1 -16 13.5t-23.5 23t-8.5 19.5 z" />
<glyph unicode="&#xad;" horiz-adv-x="1107" d="M166 638l797 10q62 -4 96 -22t31 -56q-295 3 -503 1q-12 0 -72.5 -5.5t-115.5 -7.5t-115 1.5t-92.5 23.5t-25.5 55z" />
<glyph unicode="&#xae;" horiz-adv-x="1562" d="M199 517q-7 145 35.5 268t132.5 270q-22 12 -42 25t-43 32t-35.5 37t-20 40t3.5 41q30 -44 83.5 -87t92.5 -35q183 209 370.5 307t360.5 98q106 0 196.5 -36t144 -83.5t93.5 -104t54.5 -88t17.5 -45.5q3 -12 -4.5 -27.5t-16.5 -18.5q-3 7 -9.5 20t-27.5 49t-43.5 67.5 t-56.5 68t-68 59.5q-121 80 -311 59q-67 -8 -132.5 -31t-117.5 -51.5t-111 -74t-99.5 -82t-97.5 -91.5q374 39 617 168q4 2 36.5 28.5t49.5 24.5q26 -4 34.5 -17.5t0.5 -31.5t-19 -33t-23 -27q-85 -85 -149 -172q27 16 73.5 30t96 17.5t71.5 -20.5q32 -35 22 -80t-37 -82.5 t-58 -59.5q-29 -21 -61 -33t-51 -17t-57 -3.5t-45.5 2.5t-50.5 7q-1 -21 -5 -66.5t-5.5 -69.5t-1 -57t5.5 -58q6 -35 21.5 -62t28.5 -40.5t40.5 -25t36 -14t36.5 -8.5q0 -20 -17.5 -28.5t-33.5 -8t-31 4.5q-48 13 -80 49t-46 72.5t-17.5 100.5t-2 95.5t6.5 93.5q1 10 1 14 q-9 -12 -26 -41t-35 -60t-42 -69.5t-47 -71t-51.5 -64t-55.5 -48.5t-57.5 -24t-57.5 9q-42 20 -58.5 62t-5.5 88q15 61 63.5 124t116 115t134 92.5t132.5 71.5q30 37 67 91t74 98q-129 -66 -302.5 -101t-300.5 -37q-87 -131 -134 -218t-69 -175q-42 -166 21 -302.5 t218 -207.5q100 -46 200.5 -61.5t203.5 7.5t186 89q85 68 161 164.5t131.5 230t56.5 261.5q103 -10 101 -131q-2 -166 -96 -316t-285 -270q-258 -161 -605 -42q-166 57 -266.5 173.5t-107.5 283.5zM574 473q9 -1 15 -2.5t15.5 3.5t15.5 8t14.5 11.5l14 14t13 15t11.5 15 t10 13.5t8 11q37 48 107 162.5t115 168.5q-7 -2 -18.5 -7.5t-47 -26t-69.5 -46t-79 -71t-82 -97.5q-103 -148 -43 -172zM994.5 870q11.5 -18 48.5 -23q83 -11 172 63q61 51 72 93q8 30 -24 28h-2q-56 -5 -123.5 -26t-103.5 -50q-28 -23 -39.5 -45t0 -40z" />
<glyph unicode="&#xaf;" horiz-adv-x="0" d="M-217 1359v13.5v11.5q94 14 129 17q111 10 147 10.5t150 -6.5q4 -31 4 -41q0 -39 -140 -42q-26 -1 -132 -10q-3 0 -28 -3.5t-40.5 -5t-35.5 0t-30 8.5q-7 5 -12 11t-7.5 10.5t-3.5 13t-1 12.5z" />
<glyph unicode="&#xb0;" horiz-adv-x="444" d="M409 1410q0 93 97 179q68 61 135 61q63 0 91 -66q0 -13 -6 -26.5t-12 -20.5l-7 -7q4 -12 23.5 -31.5t24.5 -27.5q14 -24 14 -53q0 -56 -41 -102q-61 -67 -153 -67q-94 0 -139 72q-27 43 -27 89zM505 1392q0 -39 50 -39q18 0 38.5 6.5t41.5 20.5t35 40.5t14 60.5 q0 39 -29 51q-30 12 -90 -38.5t-60 -101.5z" />
<glyph unicode="&#xb2;" horiz-adv-x="698" d="M212.5 930q22.5 42 70.5 54t82 3.5t84 -45.5q16 14 67.5 70.5t120.5 138t120.5 169t51.5 139.5q0 62 -22.5 81.5t-66.5 -0.5q-63 -27 -140 -158l-63 -160q-29 3 -46.5 22t-20.5 44t-2.5 43t3.5 29q25 105 140 174q31 19 70.5 32t87.5 17t82 -18q97 -57 42 -219 q-27 -81 -76.5 -156t-91 -117.5t-96 -93t-70.5 -68.5q88 -51 143 -51q44 0 69 29t25 66q39 0 51 -24.5t5 -46.5q-9 -34 -45 -63.5t-93 -32.5q-42 -1 -80 10.5t-87.5 38.5t-50.5 27q-17 -10 -34 -19.5t-52 -22.5t-64 -17t-60.5 6.5t-50.5 38.5q-25 38 -2.5 80zM260.5 901 q-10.5 -26 0.5 -43q24 -29 128 44l4.5 3t3.5 2.5t4 2.5q-11 3 -34.5 10t-31.5 8.5t-27.5 4.5t-23.5 -2q-13 -4 -23.5 -30z" />
<glyph unicode="&#xb3;" horiz-adv-x="522" d="M207 912q4 37 34.5 85t81 79.5t97.5 15.5l11 -18h-4q-9 -4 -30 -23.5t-45 -48t-38.5 -68t-7.5 -74.5q8 -39 37.5 -53t65.5 -5t70.5 27.5t55.5 40.5q33 34 54 77.5t27.5 84t4.5 76.5t-14 58.5t-29 25.5q-56 -33 -116.5 -33.5t-71.5 31.5q-10 25 10 44t52.5 26t64.5 9 t47 -8q31 23 61.5 54.5t59 72.5t35 77.5t-10.5 70.5q-20 32 -58 28.5t-77.5 -26.5t-73.5 -61.5t-46 -76.5q-1 -2 -3 -14t-5 -19.5t-9 -15t-17 -5t-27 14.5q-15 12 -17.5 31t5 39.5t17 37t19.5 29.5q35 43 109 72t151 19t105 -73q16 -30 12.5 -63.5t-15 -63t-34 -60 t-44.5 -54t-48 -45.5q55 -55 59 -131.5t-31.5 -143.5t-100 -118.5t-136.5 -61.5q-37 -8 -80 -2.5t-80 17.5t-59.5 44t-17.5 78zM449 1197q11 -11 67 24q-13 3 -19 3q-19 0 -40 -7t-8 -20z" />
<glyph unicode="&#xb4;" horiz-adv-x="0" d="M-78 1297q77 43 114.5 95t100.5 194q7 -5 18 -12t15 -10t11 -8t9 -8t5 -8t3 -9.5t-1 -10.5t-4 -13q-9 -25 -34 -70.5t-71.5 -102t-89.5 -74.5q-22 -9 -36.5 -11t-21.5 4t-10 11.5t-5 17t-3 15.5z" />
<glyph unicode="&#xb6;" horiz-adv-x="1273" d="M364 1129q-6 65 20.5 130t83.5 110q214 170 630 199q71 5 201.5 -1.5t160.5 -6.5h21t35 -2.5t44 -6.5t43 -13t38.5 -21t23 -32t4.5 -45q-64 36 -137 34q-23 -107 -66.5 -218.5t-88 -200t-105 -234t-107.5 -299.5q-52 -171 -165 -569q-4 -13 -15 -96t-24 -125 q-13 -41 -34 -59t-41 -13.5t-38.5 14.5t-29.5 22l-12 11q86 341 165.5 594t136.5 393.5t107.5 252.5t99 242.5t89.5 291.5q-26 7 -57 10.5t-49 3.5h-18q-32 -86 -138 -339t-205 -489t-195.5 -501.5t-128.5 -413.5q-7 2 -17 5.5t-27 16.5t-17 29q0 61 69.5 256.5t167 450.5 t135.5 382q-20 -1 -90.5 -5t-104.5 -4t-89 7t-98 24q-80 32 -126 91t-52 124z" />
<glyph unicode="&#xb7;" horiz-adv-x="327" d="M184.5 657.5q-3.5 26.5 14 50.5t53.5 29q47 6 74 -30.5t12 -76t-70 -40.5q-35 -1 -57.5 20t-26 47.5z" />
<glyph unicode="&#xb8;" horiz-adv-x="0" d="M-137 -289q0 16 24 19q34 4 53.5 7t46 12t47.5 24q42 32 42 67q0 19 -14 33q-15 17 -60 31t-49 16q-23 8 -23 14q0 4 13 43q22 64 37 84q31 -14 42 -29q14 -18 14 -32l-8 -45q31 -9 52 -27q24 -20 40 -45q26 -36 26 -80q0 -42 -22 -77.5t-62 -55.5q-46 -22 -123 -22 q-36 3 -62 35q-14 17 -14 28z" />
<glyph unicode="&#xb9;" horiz-adv-x="368" d="M236 849q-1 14 21.5 18t52.5 4q35 186 203 487l-34 -18q-34 -17 -61 -24q-15 -4 -26 -3t-15 9t11 26q2 3 13 8t24 10t16 7q30 19 51 35q4 3 103 89l5 5q5 4 11 9t14.5 12.5t17 14t18 13t18 11t16 7.5t14 2.5t9.5 -4.5q8 -6 3.5 -25.5t-13 -39t-23 -45.5t-26 -45t-23 -37 t-14.5 -23q-165 -291 -195 -487q92 -3 101 -18q3 -5 0 -12q5 -5 -66.5 -5t-146.5 4t-77 9z" />
<glyph unicode="&#xba;" horiz-adv-x="421" d="M353 1061q-18 81 35 195q52 113 127 159q24 14 48 19q91 18 107 -69q15 -82 -38 -199q-52 -114 -124 -156q-20 -12 -40 -16q-97 -19 -115 67zM436 1132q-26 -67 2 -88q15 -5 30.5 -0.5t31 20t26 27.5t24.5 37t17.5 32.5t14.5 28.5q71 135 46 164q-9 10 -28 5 q-30 -7 -84 -83t-80 -143z" />
<glyph unicode="&#xbb;" horiz-adv-x="1044" d="M161 60q4 26 25 66q57 99 138.5 187.5t169.5 135.5q-88 62 -179.5 185.5t-85.5 174.5q3 21 26 22q147 -230 305 -356q6 -5 16 -9.5t13 -8.5t0 -14q-2 -8 -15 -19t-31 -22.5t-21 -13.5q-171 -131 -331 -388q-18 10 -26 22t-4 38zM509 -5.5q6 13.5 13 23.5t20 24t15 16 q15 19 54 73t69 90t64 65q22 19 51 36t47.5 26t58 26t52.5 23q-53 6 -173 116.5t-196.5 228t-20.5 137.5q79 -93 233.5 -256.5t188.5 -187.5q6 -4 17.5 -10t17.5 -10t12 -10.5t4.5 -15.5t-8.5 -21q-12 -18 -66 -46t-61 -33q-90 -64 -136.5 -108t-100 -104t-121.5 -122 q-23 6 -31.5 16t-2.5 23.5z" />
<glyph unicode="&#xbc;" horiz-adv-x="1638" d="M273 849q-1 14 21.5 18t52.5 4q36 188 203 488l-34 -19q-34 -17 -61 -24q-15 -4 -26 -3t-15 9t11 26q2 3 13 8t24 10t16 7q30 19 51 35q4 3 103 89l5 5q5 4 11 9t14.5 12.5t17 14t18 13t18 11t16 7.5t14 2.5t9.5 -4.5q8 -6 3.5 -25.5t-13 -39t-23 -45.5t-26 -45t-23 -37 t-14.5 -23q-165 -291 -195 -487q92 -3 101 -18q3 -5 0 -12q10 -9 -166 -2q-121 4 -124 11zM392 -41q112 229 211.5 406t225.5 365.5t276.5 363t332.5 343.5h-1q36 40 75 67.5t74.5 34.5t54.5 -18q-23 -24 -64 -68t-159 -182t-227.5 -279t-245 -343t-236.5 -390 q-10 -20 -31.5 -80.5t-41 -109t-54 -92t-74.5 -49.5q-27 -4 -56 4t-44 18zM987 393q8 28 38.5 43t66.5 15q3 0 8.5 -0.5t7.5 -0.5q42 -4 66 -13q118 165 123 266v14.5v12.5t3 9.5t9 11.5q1 1 53 8q9 1 11.5 -2.5t2.5 -12.5q0 -46 -31.5 -132t-109.5 -192l98 -37l-5 -2h-13 q20 45 35 73q58 106 91 172q4 8 13.5 35.5t21.5 51.5t26 36q3 3 40 11t54 8l17 -1q5 -8 -9.5 -37.5t-37.5 -64.5l-22 -35q-109 -189 -145 -262q27 -4 63 -4q85 0 136 20q1 0 9.5 6.5t19 13.5t22 11.5t17.5 2.5q12 -3 12 -9q0 -20 -19 -42q-19 -24 -81 -37.5t-103 -13.5 t-88 5q-3 -8 -14.5 -34.5t-16 -37.5t-14.5 -37t-16.5 -46.5t-16 -50t-18 -63.5t-17.5 -74l-56 -15q-30 2 -30 27q0 6 2 22q7 51 26.5 114t35.5 101.5t48 111.5q-15 5 -37 14t-42.5 15t-47.5 10q-47 -54 -118 -54q-36 0 -56 18t-12 51zM1024 370q3 -17 13 -17q28 0 81 37 q-2 0 -6.5 1t-8 1.5t-6.5 0.5q-16 2 -32 2q-22 0 -33 -5t-8 -20z" />
<glyph unicode="&#xbd;" horiz-adv-x="1761" d="M273 849q-1 14 21.5 18t52.5 4q35 186 203 487l-34 -18q-34 -17 -61 -24q-15 -4 -26 -3t-15 9t11 26q2 3 13 8t24 10t16 7q30 19 51 35q4 3 103 89l5 5q5 4 11 9t14.5 12.5t17 14t18 13t18 11t16 7.5t14 2.5t9.5 -4.5q8 -6 3.5 -25.5t-13 -39t-23 -45.5t-26 -45t-23 -37 t-14.5 -23q-165 -291 -195 -487q92 -3 101 -18q3 -5 0 -12q5 -5 -66.5 -5t-146.5 4t-77 9zM396 -41q112 228 212 406t225.5 366t276.5 362.5t333 343.5h-2q36 40 75.5 67.5t75 34.5t54.5 -18q-23 -24 -64 -68t-159.5 -182t-227.5 -279t-245 -343t-237 -390 q-10 -20 -31.5 -80.5t-41 -109t-54 -92t-74.5 -49.5q-27 -4 -56 4t-44 18zM1073.5 98q22.5 42 70.5 54t82 3.5t84 -45.5q11 9 47 47t90 101t103 127.5t84.5 131.5t35.5 109q0 121 -89 82q-63 -27 -140 -158l-63 -160q-29 3 -46.5 22t-20.5 44t-2.5 43t3.5 29q25 105 140 174 q31 19 70.5 32t87.5 17t82 -18q97 -57 42 -219q-27 -81 -76.5 -156t-91 -117.5t-96 -93t-70.5 -68.5q88 -51 142 -51q44 0 69 29t25 66q39 0 51.5 -24.5t5.5 -46.5q-9 -34 -45 -64t-93 -33q-42 -1 -80.5 11t-88.5 39l-50 27q-24 -14 -47.5 -25.5t-67.5 -26.5t-83 -6t-62 44 q-25 38 -2.5 80zM1121.5 68.5q-10.5 -26.5 0.5 -43.5q4 -5 9.5 -7.5t13 -2t14.5 1.5t16.5 6t16.5 8.5t18 11t17.5 11.5t18 12.5t16.5 11.5q-11 3 -34.5 10t-31.5 8.5t-27.5 4.5t-23.5 -2q-13 -4 -23.5 -30.5z" />
<glyph unicode="&#xbe;" horiz-adv-x="1638" d="M287 912q4 37 34.5 85t81 79.5t97.5 15.5l11 -18h-4q-9 -4 -30 -23.5t-45 -48t-38.5 -68t-7.5 -74.5q8 -39 37.5 -53t65.5 -5t70.5 27.5t55.5 40.5q33 34 54 77.5t27.5 84t4.5 76.5t-14 58.5t-29 25.5q-56 -33 -116.5 -33.5t-71.5 31.5q-10 25 10 44t52.5 26t64.5 9 t47 -8q31 23 61.5 54.5t59 72.5t35 77.5t-10.5 70.5q-20 32 -58 28.5t-77.5 -26.5t-73.5 -61.5t-46 -76.5q-1 -2 -3 -14t-5 -19.5t-9 -15t-17 -5t-27 14.5q-15 12 -17.5 31.5t5 40t17 37t19.5 29.5q25 31 77 56t107.5 34.5t107 -8t73.5 -65.5q16 -30 12.5 -63.5t-15 -63 t-34 -60t-44.5 -54t-48 -45.5q55 -55 59 -131.5t-31.5 -143.5t-100 -118.5t-136.5 -61.5q-37 -8 -80 -2.5t-80 17.5t-59.5 44t-17.5 78zM371 -41q112 228 212 406t225.5 366t276.5 362.5t333 343.5h-1q36 40 75 67.5t74.5 34.5t54.5 -18q-23 -24 -64 -68t-159.5 -182 t-227.5 -279t-245 -343t-237 -390q-10 -20 -31.5 -80.5t-40.5 -109t-53.5 -92t-74.5 -49.5q-27 -4 -56.5 4t-45.5 18zM529 1197q11 -11 67 24q-18 4 -19 4q-19 0 -40 -7.5t-8 -20.5zM967 393q8 28 38.5 43t66.5 15q3 0 8.5 -0.5t7.5 -0.5q41 -4 65 -13q118 165 123 266v14.5 v12.5t3 9.5t9 11.5q1 1 53 8q9 1 12 -3t3 -12q0 -45 -32 -131.5t-110 -192.5l99 -37l-5 -2h-14q21 45 36 73q58 106 91 172q4 8 13.5 35.5t21 51.5t25.5 36q3 3 40.5 11t54.5 8l17 -1q5 -8 -9.5 -37.5t-37.5 -64t-23 -35.5q-103 -177 -144 -262q27 -4 63 -4q84 0 135 20 q1 0 10 6.5t19 13.5t22 11.5t18 2.5q11 -3 11 -9q0 -21 -18 -42q-19 -24 -81.5 -37.5t-103.5 -13.5q-40 0 -87 5q-3 -8 -17 -40t-19 -45l-17.5 -45.5t-20 -58.5t-19 -67t-21.5 -87l-55 -15q-31 2 -31 27q0 6 2 22q7 51 26.5 114t35.5 101.5t48 111.5q-15 5 -37 14t-42 15 t-47 10q-47 -54 -118 -54q-36 0 -56 18t-12 51zM1004 370q3 -17 13 -17q27 0 80 37q-2 0 -6.5 1t-8 1.5t-6.5 0.5q-16 2 -32 2q-22 0 -32.5 -5t-7.5 -20z" />
<glyph unicode="&#xbf;" horiz-adv-x="829" d="M156 410q21 83 74 161t118.5 138t130.5 112.5t123 104t83 90.5q25 40 42 90q23 -21 35.5 -43.5t11.5 -46.5t-5.5 -46t-23 -50t-33.5 -48.5t-44.5 -51.5t-49 -49.5t-54 -51.5t-51.5 -50q-51 -50 -102 -104q-52 -57 -73 -86q-28 -38 -48.5 -84t-31.5 -98t3 -102.5t55 -86.5 q37 -29 80.5 -20t88 52.5t81.5 101.5t62 126.5t29 126.5q0 4 -1.5 38.5t3 53t18.5 18.5q24 0 42 -43.5t25 -86t8 -68.5q1 -68 -29.5 -148t-85 -144.5t-131 -87.5t-166.5 21q-105 53 -158 154t-26 208zM708.5 1351.5q2.5 22.5 16.5 46t36 41.5q24 19 47 25t42 -10t22 -56 q3 -38 -22 -69t-65 -31q-41 0 -60 15.5t-16.5 38z" />
<glyph unicode="&#xc0;" d="M-419 59q-63 120 6.5 293t234.5 303q154 123 306 178t343 75q353 482 793 518q31 2 45.5 -12t12 -38.5t-11.5 -49.5t-23 -50q-82 -143 -179 -333q114 8 216.5 44.5t177 88.5t135.5 115t98 127t56.5 121t19.5 100q0 68 -42.5 114.5t-105.5 66.5t-138 20q-121 0 -236 -76.5 t-159 -154.5q-16 8 -28.5 27.5t-13.5 48t10 59t47.5 63t93.5 56.5q115 48 240 48q98 0 175.5 -28t125.5 -78t71.5 -114t21.5 -138q-2 -84 -36 -168.5t-102.5 -163t-162 -139.5t-226.5 -98t-286 -37q-146 -302 -222 -540q-9 -28 -15.5 -57t-8 -71t8 -73.5t39.5 -55t80 -25.5 q38 -1 75.5 13.5t75.5 50.5t68 89.5t50 138.5t24 190q28 -1 54 -37t36 -97.5t-15 -142.5q-21 -64 -74.5 -120.5t-120.5 -88.5t-141 -37t-136 35q-88 56 -118 128.5t-1 207.5t131 356l54 114q-64 -6 -108.5 -7.5t-91 -1.5t-88.5 -2q-34 -56 -82 -140.5t-82.5 -146.5 t-82.5 -139t-88.5 -133t-94 -113.5t-105.5 -94.5t-117 -63t-134 -31q-186 -14 -249 106zM-381 202q-32 -113 27 -157q39 -28 108 -21q45 4 83.5 21t70.5 40.5t72 70t72 91t86 122.5q27 39 109.5 183.5t142.5 236.5q-291 -53 -511 -240q-103 -88 -169.5 -178.5t-90.5 -168.5z M686 923l274 12q50 94 114.5 205t73.5 129q23 43 3.5 56.5t-66.5 -10.5q-87 -44 -191 -142.5t-208 -249.5zM1286 2197q-1 48 13 47q11 0 45 -44q9 -12 14 -18q18 -21 51 -62.5t57 -72.5l23 -31q-26 -64 -149 103z" />
<glyph unicode="&#xc1;" d="M-419 59q-63 120 6.5 293t234.5 303q154 123 306 178t343 75q353 482 793 518q31 2 45.5 -12t12 -38.5t-11.5 -49.5t-23 -50q-82 -143 -179 -333q114 8 216.5 44.5t177 88.5t135.5 115t98 127t56.5 121t19.5 100q0 68 -42.5 114.5t-105.5 66.5t-138 20q-121 0 -236 -76.5 t-159 -154.5q-16 8 -28.5 27.5t-13.5 48t10 59t47.5 63t93.5 56.5q115 48 240 48q98 0 175.5 -28t125.5 -78t71.5 -114t21.5 -138q-2 -84 -36 -168.5t-102.5 -163t-162 -139.5t-226.5 -98t-286 -37q-146 -302 -222 -540q-9 -28 -15.5 -57t-8 -71t8 -73.5t39.5 -55t80 -25.5 q38 -1 75.5 13.5t75.5 50.5t68 89.5t50 138.5t24 190q28 -1 54 -37t36 -97.5t-15 -142.5q-21 -64 -74.5 -120.5t-120.5 -88.5t-141 -37t-136 35q-88 56 -118 128.5t-1 207.5t131 356l54 114q-64 -6 -108.5 -7.5t-91 -1.5t-88.5 -2q-34 -56 -82 -140.5t-82.5 -146.5 t-82.5 -139t-88.5 -133t-94 -113.5t-105.5 -94.5t-117 -63t-134 -31q-186 -14 -249 106zM-381 202q-32 -113 27 -157q39 -28 108 -21q45 4 83.5 21t70.5 40.5t72 70t72 91t86 122.5q27 39 109.5 183.5t142.5 236.5q-291 -53 -511 -240q-103 -88 -169.5 -178.5t-90.5 -168.5z M686 923l274 12q50 94 114.5 205t73.5 129q23 43 3.5 56.5t-66.5 -10.5q-87 -44 -191 -142.5t-208 -249.5zM1393 2014q77 43 114.5 95t100.5 194q6 -4 17.5 -11.5t15.5 -10.5t11 -8t9 -8t5 -8t2.5 -9.5t-1.5 -10.5t-4 -13q-6 -16 -23 -47.5t-42.5 -72t-61 -76.5t-68.5 -50 q-22 -9 -36.5 -11t-21.5 3.5t-9.5 11t-4.5 17t-3 15.5z" />
<glyph unicode="&#xc2;" d="M-419 59q-63 120 6.5 293t234.5 303q154 123 306 178t343 75q353 482 793 518q31 2 45.5 -12t12 -38.5t-11.5 -49.5t-23 -50q-82 -143 -179 -333q114 8 216.5 44.5t177 88.5t135.5 115t98 127t56.5 121t19.5 100q0 68 -42.5 114.5t-105.5 66.5t-138 20q-121 0 -236 -76.5 t-159 -154.5q-16 8 -28.5 27.5t-13.5 48t10 59t47.5 63t93.5 56.5q115 48 240 48q98 0 175.5 -28t125.5 -78t71.5 -114t21.5 -138q-2 -84 -36 -168.5t-102.5 -163t-162 -139.5t-226.5 -98t-286 -37q-146 -302 -222 -540q-9 -28 -15.5 -57t-8 -71t8 -73.5t39.5 -55t80 -25.5 q38 -1 75.5 13.5t75.5 50.5t68 89.5t50 138.5t24 190q28 -1 54 -37t36 -97.5t-15 -142.5q-21 -64 -74.5 -120.5t-120.5 -88.5t-141 -37t-136 35q-88 56 -118 128.5t-1 207.5t131 356l54 114q-64 -6 -108.5 -7.5t-91 -1.5t-88.5 -2q-34 -56 -82 -140.5t-82.5 -146.5 t-82.5 -139t-88.5 -133t-94 -113.5t-105.5 -94.5t-117 -63t-134 -31q-186 -14 -249 106zM-381 202q-32 -113 27 -157q39 -28 108 -21q45 4 83.5 21t70.5 40.5t72 70t72 91t86 122.5q27 39 109.5 183.5t142.5 236.5q-291 -53 -511 -240q-103 -88 -169.5 -178.5t-90.5 -168.5z M686 923l274 12q50 94 114.5 205t73.5 129q23 43 3.5 56.5t-66.5 -10.5q-87 -44 -191 -142.5t-208 -249.5zM1266 2038v2q137 114 170 143q78 69 106 102q6 7 17 24.5t21.5 29t23.5 16.5q38 13 52 -52q19 -90 -8 -256q-11 -68 -20 -83q-8 -13 -26.5 -17.5t-33.5 -2.5l-14 2 q9 47 19 94t13 64t8 42.5t8 48t9 62.5q-17 -11 -108 -104q-135 -136 -188 -152q-41 -12 -49 37z" />
<glyph unicode="&#xc3;" d="M-419 59q-63 120 6.5 293t234.5 303q154 123 306 178t343 75q353 482 793 518q31 2 45.5 -12t12 -38.5t-11.5 -49.5t-23 -50q-82 -143 -179 -333q114 8 216.5 44.5t177 88.5t135.5 115t98 127t56.5 121t19.5 100q0 68 -42.5 114.5t-105.5 66.5t-138 20q-121 0 -236 -76.5 t-159 -154.5q-16 8 -28.5 27.5t-13.5 48t10 59t47.5 63t93.5 56.5q115 48 240 48q98 0 175.5 -28t125.5 -78t71.5 -114t21.5 -138q-2 -84 -36 -168.5t-102.5 -163t-162 -139.5t-226.5 -98t-286 -37q-146 -302 -222 -540q-9 -28 -15.5 -57t-8 -71t8 -73.5t39.5 -55t80 -25.5 q38 -1 75.5 13.5t75.5 50.5t68 89.5t50 138.5t24 190q28 -1 54 -37t36 -97.5t-15 -142.5q-21 -64 -74.5 -120.5t-120.5 -88.5t-141 -37t-136 35q-88 56 -118 128.5t-1 207.5t131 356l54 114q-64 -6 -108.5 -7.5t-91 -1.5t-88.5 -2q-34 -56 -82 -140.5t-82.5 -146.5 t-82.5 -139t-88.5 -133t-94 -113.5t-105.5 -94.5t-117 -63t-134 -31q-186 -14 -249 106zM-381 202q-32 -113 27 -157q39 -28 108 -21q45 4 83.5 21t70.5 40.5t72 70t72 91t86 122.5q27 39 109.5 183.5t142.5 236.5q-291 -53 -511 -240q-103 -88 -169.5 -178.5t-90.5 -168.5z M686 923l274 12q50 94 114.5 205t73.5 129q23 43 3.5 56.5t-66.5 -10.5q-87 -44 -191 -142.5t-208 -249.5zM1240 2168q21 11 37 3q2 -1 3 -3q0 -9 13.5 -17t27.5 -8q21 0 104.5 26t115.5 32q25 5 59 5q73 0 102 -25q17 -15 25.5 -26.5t7 -24t-3 -16.5t-9.5 -18 q-58 32 -84 33q-23 0 -119 -37.5t-149 -37.5q-37 0 -74 11.5t-51 30.5q-42 53 -5 72z" />
<glyph unicode="&#xc4;" d="M-419 59q-63 120 6.5 293t234.5 303q154 123 306 178t343 75q353 482 793 518q31 2 45.5 -12t12 -38.5t-11.5 -49.5t-23 -50q-82 -143 -179 -333q114 8 216.5 44.5t177 88.5t135.5 115t98 127t56.5 121t19.5 100q0 68 -42.5 114.5t-105.5 66.5t-138 20q-121 0 -236 -76.5 t-159 -154.5q-16 8 -28.5 27.5t-13.5 48t10 59t47.5 63t93.5 56.5q115 48 240 48q98 0 175.5 -28t125.5 -78t71.5 -114t21.5 -138q-2 -84 -36 -168.5t-102.5 -163t-162 -139.5t-226.5 -98t-286 -37q-146 -302 -222 -540q-9 -28 -15.5 -57t-8 -71t8 -73.5t39.5 -55t80 -25.5 q38 -1 75.5 13.5t75.5 50.5t68 89.5t50 138.5t24 190q28 -1 54 -37t36 -97.5t-15 -142.5q-21 -64 -74.5 -120.5t-120.5 -88.5t-141 -37t-136 35q-88 56 -118 128.5t-1 207.5t131 356l54 114q-64 -6 -108.5 -7.5t-91 -1.5t-88.5 -2q-34 -56 -82 -140.5t-82.5 -146.5 t-82.5 -139t-88.5 -133t-94 -113.5t-105.5 -94.5t-117 -63t-134 -31q-186 -14 -249 106zM-381 202q-32 -113 27 -157q39 -28 108 -21q45 4 83.5 21t70.5 40.5t72 70t72 91t86 122.5q27 39 109.5 183.5t142.5 236.5q-291 -53 -511 -240q-103 -88 -169.5 -178.5t-90.5 -168.5z M686 923l274 12q50 94 114.5 205t73.5 129q23 43 3.5 56.5t-66.5 -10.5q-87 -44 -191 -142.5t-208 -249.5zM1198 2146q12 45 54 75.5t85 31.5q41 1 64.5 -27t13.5 -84q-8 -47 -48.5 -84t-88.5 -36q-49 1 -70 38t-10 86zM1251 2095q28 -8 58 11t45 44.5t8 34.5 q-5 7 -32.5 -6.5t-53.5 -38.5t-25 -45zM1573 2100q1 50 38 98.5t81 48.5q41 0 38 -55l-5 -2.5t-11.5 -7t-16.5 -11.5t-19 -14.5t-19.5 -16t-16 -17t-11 -18t-3 -17.5t6.5 -16q16 -11 41.5 -2t40.5 22q16 13 23 36.5t6 40.5v17q16 13 26 -16.5t10 -58.5q1 -51 -32.5 -80 t-77.5 -29t-72 27.5t-27 70.5z" />
<glyph unicode="&#xc5;" d="M-419 59q-63 120 6.5 293t234.5 303q154 123 306 178t343 75q353 482 793 518q31 2 45.5 -12t12 -38.5t-11.5 -49.5t-23 -50q-82 -143 -179 -333q114 8 216.5 44.5t177 88.5t135.5 115t98 127t56.5 121t19.5 100q0 68 -42.5 114.5t-105.5 66.5t-138 20q-121 0 -236 -76.5 t-159 -154.5q-16 8 -28.5 27.5t-13.5 48t10 59t47.5 63t93.5 56.5q115 48 240 48q98 0 175.5 -28t125.5 -78t71.5 -114t21.5 -138q-2 -84 -36 -168.5t-102.5 -163t-162 -139.5t-226.5 -98t-286 -37q-146 -302 -222 -540q-9 -28 -15.5 -57t-8 -71t8 -73.5t39.5 -55t80 -25.5 q38 -1 75.5 13.5t75.5 50.5t68 89.5t50 138.5t24 190q28 -1 54 -37t36 -97.5t-15 -142.5q-21 -64 -74.5 -120.5t-120.5 -88.5t-141 -37t-136 35q-88 56 -118 128.5t-1 207.5t131 356l54 114q-64 -6 -108.5 -7.5t-91 -1.5t-88.5 -2q-34 -56 -82 -140.5t-82.5 -146.5 t-82.5 -139t-88.5 -133t-94 -113.5t-105.5 -94.5t-117 -63t-134 -31q-186 -14 -249 106zM-381 202q-32 -113 27 -157q39 -28 108 -21q45 4 83.5 21t70.5 40.5t72 70t72 91t86 122.5q27 39 109.5 183.5t142.5 236.5q-291 -53 -511 -240q-103 -88 -169.5 -178.5t-90.5 -168.5z M686 923l274 12q50 94 114.5 205t73.5 129q23 43 3.5 56.5t-66.5 -10.5q-87 -44 -191 -142.5t-208 -249.5zM1279.5 2041.5q-9.5 47.5 8.5 94.5q11 30 78 91q99 90 148 82q27 -5 32 -43q2 -17 -9.5 -37t-26 -34.5t-42.5 -40.5t-41 -40q-65 -68 -58 -109q5 -30 48 -15 q24 8 53 30q22 17 36 38t18.5 35.5t11 45t10.5 46.5q51 3 51 -47q0 -58 -28 -111.5t-68.5 -84.5t-90 -29t-89.5 47q-32 34 -41.5 81.5z" />
<glyph unicode="&#xc6;" horiz-adv-x="2123" d="M37 434q26 117 101.5 216t182.5 164q122 74 252 104.5t312 47.5q82 140 180 240t208 159.5t224 89t247 34.5q21 1 85.5 2t96 3t87.5 10.5t90.5 22.5t73.5 41.5t65 66.5q24 -10 30 -23.5t-2.5 -27.5t-29.5 -33q-41 -37 -90 -63t-87 -38.5t-92 -18.5t-78.5 -6t-75 2 t-54.5 2q0 -1 -102.5 -269.5t-102.5 -271.5q70 -17 158 -29t190.5 -13t190 12t153.5 52t84 100q3 10 -4.5 33.5t-3.5 28.5q27 10 40.5 -37.5t7.5 -72.5q-18 -73 -147 -133q-49 -23 -110 -35t-113.5 -15t-125.5 1.5t-116.5 10t-117.5 16.5t-101 14q-109 -346 -113 -523 q-2 -61 4 -115t23.5 -113t58 -98.5t99.5 -49.5q65 -9 139.5 2t130.5 41q17 10 73.5 76.5t67.5 65.5q17 -1 26 -8t9.5 -18t-2.5 -23.5t-10 -26t-13.5 -24t-13.5 -19.5q-50 -63 -136.5 -88.5t-183.5 -22.5q-219 6 -338.5 138t-109.5 388q4 91 29.5 208.5t49.5 188.5l24 72 q-3 5 -153 22t-167 8q-12 -24 -36 -74q-41 -84 -62.5 -127.5t-63 -125t-69 -126.5t-70.5 -114t-77 -106.5t-79 -85t-86.5 -69.5t-89 -40t-97.5 -15.5t-102 21.5q-105 39 -149 158t-19 236zM100.5 277q3.5 -58 17 -105.5t48.5 -73t86 -12.5q53 14 100 48.5t85 78.5t87 123 t89 151.5t110.5 197t132.5 228.5q-622 -71 -737 -447q-10 -31 -16 -81t-2.5 -108zM1071 968q28 -5 106.5 -14.5t144.5 -17t68 -6.5l102 240q102 240 102 244q-267 -49 -523 -446z" />
<glyph unicode="&#xc7;" horiz-adv-x="1073" d="M114.5 500q-0.5 86 26.5 199t84 238q78 172 171.5 293.5t177 178.5t168 81t144 19t106.5 -26q70 -31 113.5 -85.5t49.5 -129t-44 -159.5q-32 -54 -68.5 -81.5t-70 -28t-58.5 7.5t-48 24q82 67 139 144t69 147.5t-55 105.5q-30 12 -66.5 12.5t-81.5 -19t-90.5 -49 t-94 -77.5t-93 -104t-86 -128.5t-73.5 -151.5q-60 -149 -96 -287.5t-45 -262t29.5 -205.5t125.5 -100q84 -17 163 33t131 138.5t83 196t29 204.5q27 -9 46.5 -21.5t37.5 -36t24 -56t1 -84t-25 -117.5q-22 -71 -66.5 -132.5t-100 -100.5t-118.5 -64.5t-121.5 -25.5t-109.5 17 q-39 15 -78 40t-81.5 67.5t-75 95.5t-52.5 128.5t-20.5 161.5zM289 -303q0 16 25 19q101 11 146 43q42 32 42 67q0 19 -14 33q-15 17 -60 31t-49 16q-22 7 -22 14t12 43q22 64 37 84q31 -14 43 -30q13 -17 13 -31l-8 -45q31 -9 52 -27q26 -21 41 -45q26 -36 26 -80 q0 -42 -22.5 -77.5t-62.5 -55.5q-46 -22 -123 -22q-37 3 -62 34q-14 18 -14 29z" />
<glyph unicode="&#xc8;" horiz-adv-x="1255" d="M59 532q0 124 43 235q29 77 72 139.5t88.5 101.5t93.5 68.5t90 43.5t75.5 22.5t52.5 9.5l20 2q2 7 -6 37t-16.5 65t-0.5 87t39 100q65 102 172 136t217 -16q89 -42 125.5 -123t-0.5 -182q-16 -37 -42 -54.5t-52.5 -16.5t-51 7t-39.5 12.5t-15 5.5q4 3 11 9t24 26t30 42 t24 57.5t11 72.5q0 41 -21.5 69t-58.5 28q-81 0 -173 -108q-18 -22 -37 -63t-31 -100t10 -106q16 -15 74 -57t91.5 -76t33.5 -61q0 -3 -14 -6t-34.5 -2t-36.5 7q-41 16 -80.5 44t-59 47.5t-17.5 21.5q-39 0 -67 -4t-65.5 -18t-71 -39t-76.5 -68.5t-89 -106.5 q-49 -66 -80 -168t-31 -202q0 -72 13.5 -137t45.5 -124t79.5 -99.5t120.5 -58.5t164 -6q128 17 233 99t159.5 186.5t54.5 203.5q0 53 -17 82t-35 29q-11 0 -31 -12.5t-44.5 -37t-47.5 -71.5t-35 -105q-2 -10 -2 -33.5t-2.5 -39.5t-10.5 -19q-32 -12 -78.5 36t-46.5 114 q0 94 71.5 173.5t169.5 79.5t172.5 -80.5t74.5 -193.5q0 -82 -42.5 -170.5t-115.5 -162.5t-183.5 -122t-233.5 -48q-112 0 -215.5 47t-180 126.5t-122.5 190.5t-46 234zM800 1976q-1 48 13 47q11 0 44 -43q10 -13 15 -19q18 -21 51 -62t57 -72l23 -31q-26 -64 -149 102z" />
<glyph unicode="&#xc9;" horiz-adv-x="1255" d="M59 532q0 124 43 235q29 77 72 139.5t88.5 101.5t93.5 68.5t90 43.5t75.5 22.5t52.5 9.5l20 2q2 7 -6 37t-16.5 65t-0.5 87t39 100q65 102 172 136t217 -16q89 -42 125.5 -123t-0.5 -182q-16 -37 -42 -54.5t-52.5 -16.5t-51 7t-39.5 12.5t-15 5.5q4 3 11 9t24 26t30 42 t24 57.5t11 72.5q0 41 -21.5 69t-58.5 28q-81 0 -173 -108q-18 -22 -37 -63t-31 -100t10 -106q16 -15 74 -57t91.5 -76t33.5 -61q0 -3 -14 -6t-34.5 -2t-36.5 7q-41 16 -80.5 44t-59 47.5t-17.5 21.5q-39 0 -67 -4t-65.5 -18t-71 -39t-76.5 -68.5t-89 -106.5 q-49 -66 -80 -168t-31 -202q0 -72 13.5 -137t45.5 -124t79.5 -99.5t120.5 -58.5t164 -6q128 17 233 99t159.5 186.5t54.5 203.5q0 53 -17 82t-35 29q-11 0 -31 -12.5t-44.5 -37t-47.5 -71.5t-35 -105q-2 -10 -2 -33.5t-2.5 -39.5t-10.5 -19q-32 -12 -78.5 36t-46.5 114 q0 94 71.5 173.5t169.5 79.5t172.5 -80.5t74.5 -193.5q0 -82 -42.5 -170.5t-115.5 -162.5t-183.5 -122t-233.5 -48q-112 0 -215.5 47t-180 126.5t-122.5 190.5t-46 234zM907 1793q77 43 114.5 95t100.5 194q6 -4 17.5 -11.5t15.5 -10.5t11 -8t9 -8t5 -8t2.5 -9.5t-1.5 -10.5 t-4 -13q-9 -25 -33.5 -70t-71 -101.5t-89.5 -74.5q-22 -9 -36.5 -11t-21.5 3.5t-10 11t-5 17t-3 15.5z" />
<glyph unicode="&#xca;" horiz-adv-x="1255" d="M59 532q0 124 43 235q29 77 72 139.5t88.5 101.5t93.5 68.5t90 43.5t75.5 22.5t52.5 9.5l20 2q2 7 -6 37t-16.5 65t-0.5 87t39 100q65 102 172 136t217 -16q89 -42 125.5 -123t-0.5 -182q-16 -37 -42 -54.5t-52.5 -16.5t-51 7t-39.5 12.5t-15 5.5q4 3 11 9t24 26t30 42 t24 57.5t11 72.5q0 41 -21.5 69t-58.5 28q-81 0 -173 -108q-18 -22 -37 -63t-31 -100t10 -106q16 -15 74 -57t91.5 -76t33.5 -61q0 -3 -14 -6t-34.5 -2t-36.5 7q-41 16 -80.5 44t-59 47.5t-17.5 21.5q-39 0 -67 -4t-65.5 -18t-71 -39t-76.5 -68.5t-89 -106.5 q-49 -66 -80 -168t-31 -202q0 -72 13.5 -137t45.5 -124t79.5 -99.5t120.5 -58.5t164 -6q128 17 233 99t159.5 186.5t54.5 203.5q0 53 -17 82t-35 29q-11 0 -31 -12.5t-44.5 -37t-47.5 -71.5t-35 -105q-2 -10 -2 -33.5t-2.5 -39.5t-10.5 -19q-32 -12 -78.5 36t-46.5 114 q0 94 71.5 173.5t169.5 79.5t172.5 -80.5t74.5 -193.5q0 -82 -42.5 -170.5t-115.5 -162.5t-183.5 -122t-233.5 -48q-112 0 -215.5 47t-180 126.5t-122.5 190.5t-46 234zM780 1819q137 114 170 143q78 69 106 102q6 7 16.5 24.5t21.5 29.5t24 17q38 13 52 -52q20 -90 -7 -256 q-11 -69 -20 -84q-8 -13 -27 -17.5t-34 -2.5l-14 2q9 47 19 94t13 64t8 42.5t8 48t9 62.5q-17 -11 -108 -104q-135 -136 -188 -152q-42 -12 -49 39z" />
<glyph unicode="&#xcb;" horiz-adv-x="1255" d="M59 532q0 124 43 235q29 77 72 139.5t88.5 101.5t93.5 68.5t90 43.5t75.5 22.5t52.5 9.5l20 2q2 7 -6 37t-16.5 65t-0.5 87t39 100q65 102 172 136t217 -16q89 -42 125.5 -123t-0.5 -182q-16 -37 -42 -54.5t-52.5 -16.5t-51 7t-39.5 12.5t-15 5.5q4 3 11 9t24 26t30 42 t24 57.5t11 72.5q0 41 -21.5 69t-58.5 28q-81 0 -173 -108q-18 -22 -37 -63t-31 -100t10 -106q16 -15 74 -57t91.5 -76t33.5 -61q0 -3 -14 -6t-34.5 -2t-36.5 7q-41 16 -80.5 44t-59 47.5t-17.5 21.5q-39 0 -67 -4t-65.5 -18t-71 -39t-76.5 -68.5t-89 -106.5 q-49 -66 -80 -168t-31 -202q0 -72 13.5 -137t45.5 -124t79.5 -99.5t120.5 -58.5t164 -6q128 17 233 99t159.5 186.5t54.5 203.5q0 53 -17 82t-35 29q-11 0 -31 -12.5t-44.5 -37t-47.5 -71.5t-35 -105q-2 -10 -2 -33.5t-2.5 -39.5t-10.5 -19q-32 -12 -78.5 36t-46.5 114 q0 94 71.5 173.5t169.5 79.5t172.5 -80.5t74.5 -193.5q0 -82 -42.5 -170.5t-115.5 -162.5t-183.5 -122t-233.5 -48q-112 0 -215.5 47t-180 126.5t-122.5 190.5t-46 234zM712 1926q12 45 54.5 75t85.5 31q41 1 64 -27t13 -84q-8 -47 -48.5 -84t-88.5 -36q-49 1 -70 38.5 t-10 86.5zM766 1874q28 -8 57.5 11t44.5 44.5t8 34.5q-5 7 -32.5 -6.5t-53 -38.5t-24.5 -45zM1088 1879q1 50 38 98.5t80 48.5q42 0 39 -55l-5 -2.5t-11.5 -7t-17 -11.5t-19 -14.5t-19 -16t-16.5 -17t-11.5 -18t-3 -17.5t6.5 -16q16 -11 41.5 -2t40.5 22q16 13 23 36.5 t6 40.5v17q16 13 26.5 -17t10.5 -58q1 -51 -33 -80t-78 -29t-71.5 27.5t-26.5 70.5z" />
<glyph unicode="&#xcc;" horiz-adv-x="882" d="M-305 -111q-20 82 59 151t199 73q83 3 225 -8q142 314 318 737.5t218 587.5q-55 12 -77.5 16.5t-72 13.5t-76 9t-70.5 0.5t-75.5 -8t-71.5 -21t-77 -35.5t-75 -53l-31 3q16 29 40.5 57t70.5 64t118.5 55t159.5 12q61 -5 156 -20.5t171.5 -29.5t171 -21.5t170 -2t152 34 t133.5 82.5q-17 -80 -82 -127.5t-215 -65.5q-108 -13 -230 2q-88 -138 -300 -641t-245 -662q119 -7 192 3q110 14 205.5 57.5t155.5 89.5q16 -141 -176 -184q-80 -18 -169 -23.5t-172 -2.5t-202 0q-39 -1 -104 0.5t-102 1.5t-87.5 -6t-83 -20.5t-65.5 -44t-56 -74.5z M705 1871q-1 48 13 47q11 0 44 -43q10 -13 15 -19q18 -21 51 -62.5t56 -72.5l24 -31q-26 -64 -149 103z" />
<glyph unicode="&#xcd;" horiz-adv-x="882" d="M-305 -111q-20 82 59 151t199 73q83 3 225 -8q142 314 318 737.5t218 587.5q-55 12 -77.5 16.5t-72 13.5t-76 9t-70.5 0.5t-75.5 -8t-71.5 -21t-77 -35.5t-75 -53l-31 3q16 29 40.5 57t70.5 64t118.5 55t159.5 12q61 -5 156 -20.5t171.5 -29.5t171 -21.5t170 -2t152 34 t133.5 82.5q-17 -80 -82 -127.5t-215 -65.5q-108 -13 -230 2q-88 -138 -300 -641t-245 -662q119 -7 192 3q110 14 205.5 57.5t155.5 89.5q16 -141 -176 -184q-80 -18 -169 -23.5t-172 -2.5t-202 0q-39 -1 -104 0.5t-102 1.5t-87.5 -6t-83 -20.5t-65.5 -44t-56 -74.5z M812 1688q77 43 114.5 95t100.5 194q7 -5 18 -12t15 -10t11 -8t9 -8t5 -8t3 -9.5t-1 -10.5t-4 -13q-6 -16 -23 -47.5t-42.5 -72t-61 -76.5t-68.5 -50q-22 -9 -36.5 -11t-21.5 3.5t-10 11t-5 17t-3 15.5z" />
<glyph unicode="&#xce;" horiz-adv-x="882" d="M-305 -111q-20 82 59 151t199 73q83 3 225 -8q142 314 318 737.5t218 587.5q-55 12 -77.5 16.5t-72 13.5t-76 9t-70.5 0.5t-75.5 -8t-71.5 -21t-77 -35.5t-75 -53l-31 3q16 29 40.5 57t70.5 64t118.5 55t159.5 12q61 -5 156 -20.5t171.5 -29.5t171 -21.5t170 -2t152 34 t133.5 82.5q-17 -80 -82 -127.5t-215 -65.5q-108 -13 -230 2q-88 -138 -300 -641t-245 -662q119 -7 192 3q110 14 205.5 57.5t155.5 89.5q16 -141 -176 -184q-80 -18 -169 -23.5t-172 -2.5t-202 0q-39 -1 -104 0.5t-102 1.5t-87.5 -6t-83 -20.5t-65.5 -44t-56 -74.5z M685 1714q137 114 170 143q78 69 106 102q6 7 17 24.5t21.5 29t23.5 16.5q38 13 52 -52q20 -90 -7 -256q-11 -68 -20 -83q-8 -13 -27 -17.5t-33 -2.5l-15 2q9 47 19 94t13 64t8 42.5t8 48t9 62.5q-17 -11 -108 -104q-135 -136 -188 -152q-42 -12 -49 39z" />
<glyph unicode="&#xcf;" horiz-adv-x="882" d="M-305 -111q-20 82 59 151t199 73q83 3 225 -8q142 314 318 737.5t218 587.5q-55 12 -77.5 16.5t-72 13.5t-76 9t-70.5 0.5t-75.5 -8t-71.5 -21t-77 -35.5t-75 -53l-31 3q16 29 40.5 57t70.5 64t118.5 55t159.5 12q61 -5 156 -20.5t171.5 -29.5t171 -21.5t170 -2t152 34 t133.5 82.5q-17 -80 -82 -127.5t-215 -65.5q-108 -13 -230 2q-88 -138 -300 -641t-245 -662q119 -7 192 3q110 14 205.5 57.5t155.5 89.5q16 -141 -176 -184q-80 -18 -169 -23.5t-172 -2.5t-202 0q-39 -1 -104 0.5t-102 1.5t-87.5 -6t-83 -20.5t-65.5 -44t-56 -74.5z M617 1820q12 45 54.5 75.5t85.5 31.5q41 1 64 -27t13 -84q-8 -47 -48.5 -84t-88.5 -36q-49 1 -70 38t-10 86zM671 1769q28 -8 57.5 11t44.5 44.5t8 34.5q-5 7 -32.5 -6.5t-53 -38.5t-24.5 -45zM993 1774q1 50 38 98.5t80 48.5q42 0 39 -55l-5 -2.5t-11.5 -7t-17 -11.5 t-19 -14.5t-19 -16t-16.5 -17t-11.5 -18t-3 -17.5t6.5 -16q16 -11 41.5 -2t40.5 22q16 13 23 36.5t7 40.5l-1 17q16 13 26.5 -17t10.5 -58q1 -51 -33 -80t-78 -29q-43 0 -71 27.5t-27 70.5z" />
<glyph unicode="&#xd0;" horiz-adv-x="1458" d="M39 1450q-4 53 20 115.5t68.5 118t117.5 93t158 37.5q74 0 106 -26q-70 -40 -158 -106t-141 -134q-52 -66 -53 -126t47.5 -83t142.5 3q64 21 197 89.5t178 80.5q51 14 81.5 16t46 -9.5t20 -29.5t4.5 -52v-120q67 73 138.5 110.5t132 38t111 -20.5t86.5 -61 q33 -36 58.5 -76t49.5 -115.5t27 -161t-23 -212t-88 -269.5q-45 -104 -100.5 -190t-112 -145t-116.5 -103t-115.5 -68t-108.5 -35.5t-95.5 -10t-76.5 12.5q-35 12 -61 24.5t-46 30t-29.5 27.5t-28.5 34.5t-26 33.5q-39 -54 -81 -105q-21 -26 -50.5 -34.5t-59 2t-54 35 t-37.5 70t-7 101.5q51 500 541 944q34 178 22 239q-12 4 -24.5 4.5t-28.5 -4t-24.5 -7.5t-29.5 -14.5t-27 -15t-31 -19.5q-8 -5 -13 -8q-106 -66 -201 -85.5t-158.5 2.5t-103 70t-44.5 114zM220.5 142q-0.5 -31 7 -49t21.5 -22t37 18t52 70q62 104 146 297.5t137 349.5 t35 166q-7 4 -45.5 -40t-93.5 -124t-111.5 -175.5t-106 -211t-70.5 -214.5q-8 -34 -8.5 -65zM257 879q-12 15 24 31q10 4 22 7q27 7 52.5 10.5t50 5t73.5 -0.5t92 -4.5t139 -8.5t182 -10q-18 -30 -86.5 -39t-152 -2t-174.5 8.5t-155 -7.5q-52 -10 -67 10zM495 225 q2 -3 13 -47t39 -72.5t85 -37.5q43 -6 92.5 6t113.5 55t127 113.5t134 192.5t134 280q46 115 73.5 212.5t36.5 168t5 126t-19 90t-38.5 56.5t-49.5 30t-55 6q-68 -5 -157.5 -59t-168.5 -133q-6 -63 -15.5 -125t-35.5 -168.5t-62.5 -208.5t-102 -232.5t-149.5 -252.5z" />
<glyph unicode="&#xd1;" horiz-adv-x="1333" d="M6.5 1530q-8.5 84 44.5 169q96 157 244 137l88 -42q-42 -18 -92.5 -53t-98.5 -86.5t-75.5 -105.5t-14.5 -113.5t77 -106.5q81 -58 174.5 -50.5t176.5 52t140.5 97.5t66.5 86l79 9q11 -10 10.5 -78t-13.5 -155q48 30 85.5 52t94.5 51t103.5 41.5t96 17.5t90.5 -13t69 -58 q47 -67 58 -146.5t-16.5 -183.5t-69.5 -203.5t-118 -251.5q-78 -156 -129 -270t-94 -233.5t-57.5 -218.5t-2.5 -181q11 -76 39 -125.5t63 -67t73 -16.5t72.5 21.5t58.5 52.5q90 117 126 338q28 -3 51.5 -36.5t34 -81.5t0.5 -109t-43 -113q-98 -154 -217 -166 q-91 -10 -187 60.5t-160 189t-66 239.5q-5 236 172 634q52 117 107 232t93.5 190t74.5 146.5t57 116t34 83t12 62t-15 40.5q-15 22 -57.5 17.5t-94.5 -23.5t-116 -52t-124 -69t-117 -75q-54 -274 -157.5 -579t-190.5 -423q-99 -134 -161.5 -151t-135.5 66q-37 40 -56.5 104 t-19 147t41.5 187.5t120 205.5q67 86 153 178.5t137.5 146t102 131t77.5 164.5q-215 -138 -372 -133q-78 3 -152 45.5t-120 109t-54.5 150.5zM146.5 212q2.5 -30 10.5 -53.5t26 -31.5t41 -2t55 34.5t67 77.5q100 139 157 289q81 210 120 537q-148 -128 -292 -371.5 t-178 -410.5q-9 -39 -6.5 -69zM1082 1799q21 11 37 3q2 -1 3 -3q0 -9 13.5 -17t27.5 -8q21 0 104 26t115 32q25 5 60 5q73 0 102 -25q17 -15 25.5 -26.5t7 -24t-3 -16.5t-9.5 -18q-58 32 -84 33q-23 0 -119 -37.5t-149 -37.5q-37 0 -74 11.5t-51 30.5q-42 53 -5 72z" />
<glyph unicode="&#xd2;" horiz-adv-x="1120" d="M105 382q4 184 43 352t100 293.5t138.5 226t159.5 160.5t161.5 87t145.5 14q137 -27 210.5 -90.5t99 -185.5t6.5 -326q-14 -120 -59 -245.5t-105.5 -230t-130.5 -196t-135.5 -154t-119.5 -93.5q-55 -32 -117 -39.5t-119 8t-109 53t-90 90t-59.5 124.5t-19.5 152z M267.5 397q-9.5 -107 4.5 -189t47.5 -127.5t80.5 -57.5q59 -15 131 23.5t149 125.5t156.5 240.5t144.5 350.5q52 159 75.5 281t22 192.5t-21.5 118t-42.5 66t-53.5 28.5q-28 9 -70.5 -0.5t-99 -44t-115 -89.5t-122 -146t-114.5 -203q-76 -165 -119.5 -313.5t-53 -255.5z M836 1855q-1 48 13 48q11 0 46 -46q8 -10 13 -16q18 -21 51 -62.5t57 -72.5l23 -31q-26 -64 -149 102z" />
<glyph unicode="&#xd3;" horiz-adv-x="1120" d="M105 382q4 184 43 352t100 293.5t138.5 226t159.5 160.5t161.5 87t145.5 14q137 -27 210.5 -90.5t99 -185.5t6.5 -326q-14 -120 -59 -245.5t-105.5 -230t-130.5 -196t-135.5 -154t-119.5 -93.5q-55 -32 -117 -39.5t-119 8t-109 53t-90 90t-59.5 124.5t-19.5 152z M267.5 397q-9.5 -107 4.5 -189t47.5 -127.5t80.5 -57.5q59 -15 131 23.5t149 125.5t156.5 240.5t144.5 350.5q52 159 75.5 281t22 192.5t-21.5 118t-42.5 66t-53.5 28.5q-28 9 -70.5 -0.5t-99 -44t-115 -89.5t-122 -146t-114.5 -203q-76 -165 -119.5 -313.5t-53 -255.5z M943 1673q77 43 114.5 95t100.5 194q6 -4 17.5 -11.5t15.5 -10.5t11 -8t9 -8t5 -8t2.5 -9.5t-1.5 -10.5t-4 -13q-9 -25 -34 -70.5t-71.5 -102t-89.5 -74.5q-22 -9 -36.5 -11t-21.5 4t-9.5 11.5t-4.5 17t-3 15.5z" />
<glyph unicode="&#xd4;" horiz-adv-x="1120" d="M105 382q4 184 43 352t100 293.5t138.5 226t159.5 160.5t161.5 87t145.5 14q137 -27 210.5 -90.5t99 -185.5t6.5 -326q-14 -120 -59 -245.5t-105.5 -230t-130.5 -196t-135.5 -154t-119.5 -93.5q-55 -32 -117 -39.5t-119 8t-109 53t-90 90t-59.5 124.5t-19.5 152z M267.5 397q-9.5 -107 4.5 -189t47.5 -127.5t80.5 -57.5q59 -15 131 23.5t149 125.5t156.5 240.5t144.5 350.5q52 159 75.5 281t22 192.5t-21.5 118t-42.5 66t-53.5 28.5q-28 9 -70.5 -0.5t-99 -44t-115 -89.5t-122 -146t-114.5 -203q-76 -165 -119.5 -313.5t-53 -255.5z M816 1698q137 115 170 144q78 69 106 102q6 7 17 24.5t21.5 29t23.5 16.5q38 13 52 -52q19 -90 -7 -256q-12 -69 -21 -84q-8 -13 -26.5 -17.5t-33.5 -2.5l-14 3q9 47 19 94t13 64t8 42.5t8 48t9 62.5q-17 -11 -108 -104q-135 -137 -188 -153q-42 -12 -49 39z" />
<glyph unicode="&#xd5;" horiz-adv-x="1120" d="M105 382q4 184 43 352t100 293.5t138.5 226t159.5 160.5t161.5 87t145.5 14q137 -27 210.5 -90.5t99 -185.5t6.5 -326q-14 -120 -59 -245.5t-105.5 -230t-130.5 -196t-135.5 -154t-119.5 -93.5q-55 -32 -117 -39.5t-119 8t-109 53t-90 90t-59.5 124.5t-19.5 152z M267.5 397q-9.5 -107 4.5 -189t47.5 -127.5t80.5 -57.5q59 -15 131 23.5t149 125.5t156.5 240.5t144.5 350.5q52 159 75.5 281t22 192.5t-21.5 118t-42.5 66t-53.5 28.5q-28 9 -70.5 -0.5t-99 -44t-115 -89.5t-122 -146t-114.5 -203q-76 -165 -119.5 -313.5t-53 -255.5z M790 1827q21 11 37 3q2 -1 3 -3q0 -9 13.5 -17t27.5 -8q21 0 104.5 26t115.5 32q25 5 59 5q74 0 103 -25q7 -6 12.5 -12t9.5 -10.5t5.5 -10t3.5 -8.5t1 -9t-0.5 -7.5t-2 -7.5t-3 -7t-3.5 -8l-4 -6q-60 33 -84 34q-23 0 -119 -37.5t-149 -37.5q-37 0 -74 11.5t-51 30.5 q-42 53 -5 72z" />
<glyph unicode="&#xd6;" horiz-adv-x="1120" d="M105 382q4 184 43 352t100 293.5t138.5 226t159.5 160.5t161.5 87t145.5 14q137 -27 210.5 -90.5t99 -185.5t6.5 -326q-14 -120 -59 -245.5t-105.5 -230t-130.5 -196t-135.5 -154t-119.5 -93.5q-55 -32 -117 -39.5t-119 8t-109 53t-90 90t-59.5 124.5t-19.5 152z M267.5 397q-9.5 -107 4.5 -189t47.5 -127.5t80.5 -57.5q59 -15 131 23.5t149 125.5t156.5 240.5t144.5 350.5q52 159 75.5 281t22 192.5t-21.5 118t-42.5 66t-53.5 28.5q-28 9 -70.5 -0.5t-99 -44t-115 -89.5t-122 -146t-114.5 -203q-76 -165 -119.5 -313.5t-53 -255.5z M748 1805q12 45 54 75.5t85 31.5q41 1 64.5 -27t13.5 -84q-8 -47 -48.5 -84t-88.5 -36q-49 1 -70 38t-10 86zM801 1754q28 -8 58 10.5t45 44t8 34.5q-5 7 -32.5 -6.5t-53.5 -38t-25 -44.5zM1124 1758q1 50 38 98.5t80 48.5q41 0 38 -55l-5 -2.5t-11.5 -7t-16.5 -11.5 t-19 -14t-19.5 -16t-16 -17t-11 -17.5t-3 -17.5t6.5 -16q16 -11 41.5 -2t40.5 22q16 13 23 36.5t6 40.5v16q16 13 26 -16.5t10 -58.5q1 -51 -32.5 -80t-77.5 -29t-71.5 27.5t-26.5 70.5z" />
<glyph unicode="&#xd7;" horiz-adv-x="808" d="M187 334.5q-15 24.5 5 80.5q60 151 291 331q-19 36 -48 77.5t-64.5 87.5t-50.5 67q-11 16 -18.5 29t-12.5 22t-6 17t-2 12.5t3 10.5t5 8t7.5 8t8.5 8q58 -82 95 -138t46.5 -71t26 -37t56.5 -67q54 39 96.5 72t72 57t53 51t36.5 41t26 40.5t17 36t15.5 40.5t15.5 42 q47 -6 47 -62q0 -60 -34 -124t-82.5 -113.5t-97 -90t-82.5 -62.5l-34 -22q137 -220 198 -349q-8 -12 -16.5 -14.5t-17 2.5t-16 13t-14.5 20t-12 21.5t-9 18.5t-4 10q-126 220 -148 251q-131 -76 -196.5 -157t-98.5 -189q-42 -3 -57 21.5z" />
<glyph unicode="&#xd8;" horiz-adv-x="1277" d="M-127.5 38q-1.5 53 9 107t32.5 108q46 114 143.5 231.5t248.5 224.5q42 128 58 172q26 72 46 118t66 121.5t106 145.5q39 46 85.5 88.5t103 82t113 66t117 34t114 -7.5t104 -64.5t87.5 -131.5q38 21 81 53.5t99.5 91t98 124t65.5 157t13 186.5q65 -22 63 -134 q-1 -50 -9.5 -99t-20 -89t-34 -83t-40 -73t-49.5 -68t-50.5 -59.5t-55.5 -55.5t-52 -47.5t-52.5 -44.5t-45.5 -38q-5 -33 -18.5 -126.5t-20 -124.5t-22.5 -100.5t-39.5 -131.5t-58.5 -142q-28 -65 -62 -128t-86.5 -139t-109 -134.5t-130.5 -103t-150 -55.5q-63 -8 -116 9 t-88 52.5t-63.5 84t-42 102.5t-23.5 108t-9 102t2 83q-90 -52 -152 -111.5t-94.5 -116.5t-46 -124.5t-12.5 -126t13 -131.5q-55 10 -84.5 47.5t-31 90.5zM454 535.5q-6 -81.5 1 -160.5t25 -146t50.5 -108t73.5 -42q37 0 84.5 30t107.5 103.5t120 180.5t125.5 276.5 t120.5 375.5q-36 -4 -207 -94.5t-324 -178.5l-153 -89q-18 -66 -24 -147.5zM558 888q49 30 126 75.5t241.5 136t240.5 120.5q9 41 5 87.5t-15.5 85.5t-39.5 64.5t-67 25.5q-61 -1 -141 -69.5t-149 -165.5t-124 -195.5t-77 -164.5z" />
<glyph unicode="&#xd9;" horiz-adv-x="1406" d="M-17 1122q1 66 31.5 146.5t89.5 149.5q52 60 112 95t115 41t106.5 -7t91 -45t62.5 -76q29 -57 36.5 -109.5t-12 -136.5t-57.5 -181.5t-113 -268.5q-97 -221 -140.5 -366.5t-33 -232.5t80.5 -104t170 74.5t207.5 264.5t202.5 395q75 175 143.5 342.5t102.5 250.5t48 111 q0 2 18.5 7t44.5 8.5t51 1.5t41 -16.5t13 -41.5q-17 -143 -94.5 -347.5t-250.5 -596.5q-90 -204 -65 -355q17 -102 77 -128q67 -27 144 56q76 84 134 258q41 0 51 -53q14 -70 -33 -155q-26 -48 -67 -85q-39 -35 -88.5 -51.5t-99.5 -13t-97.5 29.5t-84 69.5t-58 113.5 t-20.5 155q-147 -187 -257 -267t-218 -77q-122 3 -172.5 81t-46.5 224q7 229 160 559q26 56 59 123.5t54.5 111.5t46 95.5t37.5 85t24.5 70.5t11.5 60.5t-6.5 47t-23.5 39t-45 26.5q-61 24 -120 -6.5t-112.5 -110.5t-100.5 -191t-93 -260q-27 21 -42.5 72.5t-14.5 117.5z M864 1858q-1 28 4 39t12 8t18 -15.5t22 -26.5l3 -4.5t3 -4t3 -4t3 -3.5t3 -4q18 -21 51 -62t56 -72l24 -31q-26 -64 -148 102z" />
<glyph unicode="&#xda;" horiz-adv-x="1406" d="M-17 1122q1 66 31.5 146.5t89.5 149.5q52 60 112 95t115 41t106.5 -7t91 -45t62.5 -76q29 -57 36.5 -109.5t-12 -136.5t-57.5 -181.5t-113 -268.5q-97 -221 -140.5 -366.5t-33 -232.5t80.5 -104t170 74.5t207.5 264.5t202.5 395q75 175 143.5 342.5t102.5 250.5t48 111 q0 2 18.5 7t44.5 8.5t51 1.5t41 -16.5t13 -41.5q-17 -143 -94.5 -347.5t-250.5 -596.5q-90 -204 -65 -355q17 -102 77 -128q67 -27 144 56q76 84 134 258q41 0 51 -53q14 -70 -33 -155q-26 -48 -67 -85q-39 -35 -88.5 -51.5t-99.5 -13t-97.5 29.5t-84 69.5t-58 113.5 t-20.5 155q-147 -187 -257 -267t-218 -77q-122 3 -172.5 81t-46.5 224q7 229 160 559q26 56 59 123.5t54.5 111.5t46 95.5t37.5 85t24.5 70.5t11.5 60.5t-6.5 47t-23.5 39t-45 26.5q-61 24 -120 -6.5t-112.5 -110.5t-100.5 -191t-93 -260q-27 21 -42.5 72.5t-14.5 117.5z M970 1675q77 43 114.5 95t100.5 194q7 -5 18 -12t15 -10t11 -8t9 -8t5 -8t3 -9.5t-1 -10.5t-4 -13q-6 -16 -23 -47.5t-42.5 -72t-61 -76.5t-68.5 -50q-22 -9 -36.5 -11t-21.5 3.5t-10 11t-5 17t-3 15.5z" />
<glyph unicode="&#xdb;" horiz-adv-x="1406" d="M-17 1122q1 66 31.5 146.5t89.5 149.5q52 60 112 95t115 41t106.5 -7t91 -45t62.5 -76q29 -57 36.5 -109.5t-12 -136.5t-57.5 -181.5t-113 -268.5q-97 -221 -140.5 -366.5t-33 -232.5t80.5 -104t170 74.5t207.5 264.5t202.5 395q75 175 143.5 342.5t102.5 250.5t48 111 q0 2 18.5 7t44.5 8.5t51 1.5t41 -16.5t13 -41.5q-17 -143 -94.5 -347.5t-250.5 -596.5q-90 -204 -65 -355q17 -102 77 -128q67 -27 144 56q76 84 134 258q41 0 51 -53q14 -70 -33 -155q-26 -48 -67 -85q-39 -35 -88.5 -51.5t-99.5 -13t-97.5 29.5t-84 69.5t-58 113.5 t-20.5 155q-147 -187 -257 -267t-218 -77q-122 3 -172.5 81t-46.5 224q7 229 160 559q26 56 59 123.5t54.5 111.5t46 95.5t37.5 85t24.5 70.5t11.5 60.5t-6.5 47t-23.5 39t-45 26.5q-61 24 -120 -6.5t-112.5 -110.5t-100.5 -191t-93 -260q-27 21 -42.5 72.5t-14.5 117.5z M843 1701q137 114 170 143q78 69 106 102q6 7 17 24.5t21.5 29t23.5 16.5q38 13 52 -52q20 -90 -7 -256q-11 -68 -20 -83q-8 -13 -26.5 -17.5t-33.5 -2.5l-14 2q9 47 19 94t13 64t8 42.5t8 48t9 62.5q-17 -11 -108 -103q-136 -138 -189 -153q-42 -12 -49 39z" />
<glyph unicode="&#xdc;" horiz-adv-x="1406" d="M-17 1122q1 66 31.5 146.5t89.5 149.5q52 60 112 95t115 41t106.5 -7t91 -45t62.5 -76q29 -57 36.5 -109.5t-12 -136.5t-57.5 -181.5t-113 -268.5q-97 -221 -140.5 -366.5t-33 -232.5t80.5 -104t170 74.5t207.5 264.5t202.5 395q75 175 143.5 342.5t102.5 250.5t48 111 q0 2 18.5 7t44.5 8.5t51 1.5t41 -16.5t13 -41.5q-17 -143 -94.5 -347.5t-250.5 -596.5q-90 -204 -65 -355q17 -102 77 -128q67 -27 144 56q76 84 134 258q41 0 51 -53q14 -70 -33 -155q-26 -48 -67 -85q-39 -35 -88.5 -51.5t-99.5 -13t-97.5 29.5t-84 69.5t-58 113.5 t-20.5 155q-147 -187 -257 -267t-218 -77q-122 3 -172.5 81t-46.5 224q7 229 160 559q26 56 59 123.5t54.5 111.5t46 95.5t37.5 85t24.5 70.5t11.5 60.5t-6.5 47t-23.5 39t-45 26.5q-61 24 -120 -6.5t-112.5 -110.5t-100.5 -191t-93 -260q-27 21 -42.5 72.5t-14.5 117.5z M776 1808q12 45 54 75t85 31q41 1 64.5 -27t13.5 -84q-8 -46 -49 -83.5t-89 -36.5q-49 1 -69.5 38.5t-9.5 86.5zM829 1756q28 -8 57.5 11t44.5 44.5t8 34.5q-5 7 -32.5 -6.5t-53 -38.5t-24.5 -45zM1151 1761q1 50 38 98.5t80 48.5q42 0 39 -55l-5 -2.5t-11.5 -7t-17 -11.5 t-19 -14.5t-19 -16t-16.5 -17t-11.5 -18t-3 -17.5t6.5 -16q16 -11 42 -2t41 22q16 13 23 36.5t6 40.5l-1 17q16 13 26.5 -17t10.5 -58q1 -51 -32.5 -80t-77.5 -29t-72 27.5t-27 70.5z" />
<glyph unicode="&#xdd;" horiz-adv-x="1253" d="M45 1179q15 111 65 208t130 156.5t169 53.5q65 -4 116.5 -54t78 -127.5t34.5 -174t-14 -194.5q-14 -72 -69 -180t-118 -209t-121.5 -198t-85.5 -170t-4 -102q20 -25 56.5 -26.5t92 26.5t123.5 85t154.5 160t179.5 239t204.5 334t225.5 434l1 17q5 1 13 3.5t30 6t40.5 4 t39 -5t31 -17.5t11 -36.5t-15.5 -60.5l-44 -97q-43 -98 -53.5 -124t-50.5 -125.5t-62.5 -170t-58 -187t-67.5 -242.5q-63 -248 -131 -454q68 -8 123.5 -25t101.5 -45.5t71 -74.5t23 -105q-148 150 -355 143q-98 -276 -190 -410.5t-189 -170.5q-49 -17 -86.5 -8t-63 40.5 t-38.5 74.5t-12 93.5t15 98.5q25 82 82.5 155t128 121t140.5 78.5t129 40.5q60 201 102.5 374.5t74 326.5t43.5 201q-462 -754 -731 -763q-25 -1 -54 5t-60.5 22.5t-56 42t-39 68t-10.5 96.5q6 79 40.5 161.5t85.5 161.5t105.5 160.5t109 190t85.5 218.5q30 99 27.5 177 t-42.5 106q-38 27 -98.5 -5.5t-119 -100t-110.5 -156.5t-76 -169zM395.5 -646q5.5 -33 30.5 -48q40 -25 86.5 5.5t93.5 107t91.5 178.5t87.5 229q-50 -15 -102 -48t-96 -75t-82.5 -89.5t-63.5 -95t-38 -89.5t-7.5 -75zM944 2114q77 43 114.5 95t100.5 194q7 -5 18 -12 t15 -10t11 -8t9 -8t5 -8t3 -9.5t-1 -10.5t-4 -13q-9 -25 -34 -70.5t-71.5 -102t-89.5 -74.5q-22 -9 -36.5 -11t-21.5 4t-10 11.5t-5 17t-3 15.5z" />
<glyph unicode="&#xde;" horiz-adv-x="1007" d="M26 -68q17 50 31 81l507 1347q21 56 36.5 113.5t20.5 86.5l5 29q81 26 82 -82q1 -70 -33 -200q-3 -12 -4 -15q49 23 100.5 38.5t111.5 21.5t110 -4.5t92 -47.5t62 -99q21 -75 6 -150.5t-59.5 -150t-100.5 -135t-118 -105.5q-75 -54 -162.5 -74.5t-158.5 -13t-134 33.5 q-34 -115 -75.5 -259.5t-59.5 -205t-31 -97.5q-7 -21 -13 -35t-15.5 -26t-14 -19t-20.5 -13t-22.5 -8.5t-31.5 -5t-36 -3t-48 -1.5q-17 -1 -27 -1zM441 668q59 -33 126 -20t132.5 52.5t126 103t106 132t72 138.5t24.5 123q-3 92 -93 113q-42 10 -94.5 -7.5t-97.5 -49.5 t-80 -64.5t-53 -57.5q-25 -71 -84.5 -229t-84.5 -234z" />
<glyph unicode="&#xdf;" horiz-adv-x="1593" d="M81 298q-9 67 44 179q57 122 131 164q80 48 144 -34q-2 -12 -26.5 -23.5t-26.5 -13.5q-41 -39 -65.5 -115.5t-26.5 -151.5t26 -131.5t83 -57.5q65 -1 142.5 65.5t107.5 137.5q32 76 31 168.5t-20 163t-49 171.5t-41 161q-12 64 -9 130.5t21 129.5t56 106.5t96.5 62 t141.5 -3.5q71 -19 122 -69.5t50 -118.5q0 -37 -28.5 -113t-57.5 -84q-24 -6 -35 19t-12 66.5t-6.5 88t-15 85t-40 56t-80.5 1.5q-53 -17 -76.5 -61t-22 -98t17 -122.5t36.5 -126t40.5 -116.5t24.5 -88q72 -419 -169 -587q-65 -45 -148.5 -59.5t-159 2t-132.5 73.5t-68 144z M906.5 400.5q27.5 99.5 101.5 156.5q49 37 93 39q49 2 33 -56q-2 -7 -5 -15q-10 -26 -51.5 -95t-50.5 -117q-10 -56 3.5 -103t44.5 -72.5t70.5 -34t85.5 9.5t86 61q35 38 54.5 87.5t21.5 107.5t-2 111t-19.5 119.5t-27.5 107.5t-30 100q-4 13 -6 19q-12 38 -22 80.5 t-18 99.5t-9.5 109t8 104t30.5 90t62.5 61.5t99.5 23.5q51 0 95.5 -21t73.5 -57t45 -80t11.5 -93t-28.5 -93q-19 -34 -43.5 -49.5t-44 -3t-21.5 56.5q-1 24 6.5 60.5t14.5 64t4 62t-22 61.5q-24 35 -47.5 37.5t-40.5 -21.5t-28.5 -51t-18.5 -57q-20 -89 -14 -159.5 t39 -154.5q69 -178 87 -248q51 -200 -28 -355q-2 -2 -3 -5q-45 -85 -114.5 -145t-158.5 -82.5t-184 15.5q-92 37 -126 131t-6.5 193.5z" />
<glyph unicode="&#xe0;" horiz-adv-x="905" d="M89.5 181q-9.5 55 16 145.5t90.5 198.5q56 93 117.5 155.5t114.5 70.5q102 15 149 -36.5t51 -202.5q38 42 99 219h-4q2 0 6 1t15 2.5t21.5 2t24.5 -0.5t25 -4t20.5 -10t15 -17t5 -26t-7.5 -36q-41 -115 -109 -266t-91 -218.5t3 -84.5q30 -19 136 58t198.5 163.5 t125.5 125.5q11 -44 -64 -140.5t-173 -178.5t-149 -92q-83 -15 -143 29q-17 12 -28 25.5t-16.5 30.5t-7.5 31t-0.5 36.5t4 38t7 44t6.5 46.5q-21 -18 -56.5 -67.5t-65.5 -92t-76.5 -77t-94.5 -35.5q-31 0 -64.5 15t-62 53.5t-38 93.5zM239 91q7 -7 16 -10q23 -8 56.5 8.5 t63.5 50.5q77 87 165 271q28 57 33 157.5t-24 120.5q-43 25 -134 -95q-93 -125 -154 -284q-68 -174 -22 -219zM522 1118q-1 48 13 48q11 0 46 -46q8 -10 13 -16q18 -21 51 -62.5t57 -72.5l23 -31q-26 -64 -149 102z" />
<glyph unicode="&#xe1;" horiz-adv-x="905" d="M89.5 181q-9.5 55 16 145.5t90.5 198.5q56 93 117.5 155.5t114.5 70.5q102 15 149 -36.5t51 -202.5q38 42 99 219h-4q2 0 6 1t15 2.5t21.5 2t24.5 -0.5t25 -4t20.5 -10t15 -17t5 -26t-7.5 -36q-41 -115 -109 -266t-91 -218.5t3 -84.5q30 -19 136 58t198.5 163.5 t125.5 125.5q11 -44 -64 -140.5t-173 -178.5t-149 -92q-83 -15 -143 29q-17 12 -28 25.5t-16.5 30.5t-7.5 31t-0.5 36.5t4 38t7 44t6.5 46.5q-21 -18 -56.5 -67.5t-65.5 -92t-76.5 -77t-94.5 -35.5q-31 0 -64.5 15t-62 53.5t-38 93.5zM239 91q7 -7 16 -10q23 -8 56.5 8.5 t63.5 50.5q77 87 165 271q28 57 33 157.5t-24 120.5q-43 25 -134 -95q-93 -125 -154 -284q-68 -174 -22 -219zM629 936q77 43 114.5 95t100.5 194q6 -4 17.5 -11.5t15.5 -10.5t11 -8t9 -8t5 -8t2.5 -9.5t-1.5 -10.5t-4 -13q-9 -25 -34 -70.5t-71.5 -102t-89.5 -74.5 q-22 -9 -36.5 -11t-21.5 4t-9.5 11.5t-4.5 17t-3 15.5z" />
<glyph unicode="&#xe2;" horiz-adv-x="905" d="M89.5 181q-9.5 55 16 145.5t90.5 198.5q56 93 117.5 155.5t114.5 70.5q102 15 149 -36.5t51 -202.5q38 42 99 219h-4q2 0 6 1t15 2.5t21.5 2t24.5 -0.5t25 -4t20.5 -10t15 -17t5 -26t-7.5 -36q-41 -115 -109 -266t-91 -218.5t3 -84.5q30 -19 136 58t198.5 163.5 t125.5 125.5q11 -44 -64 -140.5t-173 -178.5t-149 -92q-83 -15 -143 29q-17 12 -28 25.5t-16.5 30.5t-7.5 31t-0.5 36.5t4 38t7 44t6.5 46.5q-21 -18 -56.5 -67.5t-65.5 -92t-76.5 -77t-94.5 -35.5q-31 0 -64.5 15t-62 53.5t-38 93.5zM239 91q7 -7 16 -10q23 -8 56.5 8.5 t63.5 50.5q77 87 165 271q28 57 33 157.5t-24 120.5q-43 25 -134 -95q-93 -125 -154 -284q-68 -174 -22 -219zM502 961q137 115 170 144q78 69 106 102q6 7 17 24.5t21.5 29t23.5 16.5q38 13 52 -52q19 -90 -7 -256q-12 -69 -21 -84q-8 -13 -26.5 -17.5t-33.5 -1.5l-14 2 q9 47 19 94t13 64t8 42.5t8 48t9 62.5q-17 -11 -108 -104q-135 -137 -188 -153q-42 -12 -49 39z" />
<glyph unicode="&#xe3;" horiz-adv-x="905" d="M89.5 181q-9.5 55 16 145.5t90.5 198.5q56 93 117.5 155.5t114.5 70.5q102 15 149 -36.5t51 -202.5q38 42 99 219h-4q2 0 6 1t15 2.5t21.5 2t24.5 -0.5t25 -4t20.5 -10t15 -17t5 -26t-7.5 -36q-41 -115 -109 -266t-91 -218.5t3 -84.5q30 -19 136 58t198.5 163.5 t125.5 125.5q11 -44 -64 -140.5t-173 -178.5t-149 -92q-83 -15 -143 29q-17 12 -28 25.5t-16.5 30.5t-7.5 31t-0.5 36.5t4 38t7 44t6.5 46.5q-21 -18 -56.5 -67.5t-65.5 -92t-76.5 -77t-94.5 -35.5q-31 0 -64.5 15t-62 53.5t-38 93.5zM239 91q7 -7 16 -10q23 -8 56.5 8.5 t63.5 50.5q77 87 165 271q28 57 33 157.5t-24 120.5q-43 25 -134 -95q-93 -125 -154 -284q-68 -174 -22 -219zM476 1090q21 11 37 3q2 -1 3 -3q0 -9 13.5 -17t27.5 -8q21 0 104.5 26t115.5 32q25 5 59 5q74 0 103 -25q7 -6 12.5 -12t9.5 -10.5t5.5 -10t3.5 -8.5t1 -9 t-0.5 -7.5t-2 -7.5t-3 -7l-3.5 -7l-4 -7q-60 33 -84 34q-23 0 -119 -37.5t-149 -37.5q-37 0 -74 11.5t-51 30.5q-42 53 -5 72z" />
<glyph unicode="&#xe4;" horiz-adv-x="905" d="M89.5 181q-9.5 55 16 145.5t90.5 198.5q56 93 117.5 155.5t114.5 70.5q102 15 149 -36.5t51 -202.5q38 42 99 219h-4q2 0 6 1t15 2.5t21.5 2t24.5 -0.5t25 -4t20.5 -10t15 -17t5 -26t-7.5 -36q-41 -115 -109 -266t-91 -218.5t3 -84.5q30 -19 136 58t198.5 163.5 t125.5 125.5q11 -44 -64 -140.5t-173 -178.5t-149 -92q-83 -15 -143 29q-17 12 -28 25.5t-16.5 30.5t-7.5 31t-0.5 36.5t4 38t7 44t6.5 46.5q-21 -18 -56.5 -67.5t-65.5 -92t-76.5 -77t-94.5 -35.5q-31 0 -64.5 15t-62 53.5t-38 93.5zM239 91q7 -7 16 -10q23 -8 56.5 8.5 t63.5 50.5q77 87 165 271q28 57 33 157.5t-24 120.5q-43 25 -134 -95q-93 -125 -154 -284q-68 -174 -22 -219zM434 1068q12 45 54 75t85 31q41 1 64.5 -26.5t13.5 -83.5q-8 -47 -48.5 -84t-88.5 -36q-49 1 -70 38t-10 86zM487 1017q28 -8 58 10.5t45 44t8 34.5 q-5 7 -32.5 -6.5t-53.5 -38t-25 -44.5zM809 1021q1 50 38 98.5t81 48.5q41 0 38 -55l-5 -2.5t-11.5 -7t-16.5 -11.5t-19 -14t-19.5 -16t-16 -17t-11 -17.5t-3 -17.5t6.5 -16q16 -11 41.5 -2t40.5 22q16 13 23 36.5t6 39.5v17q16 13 26 -16.5t10 -58.5q1 -51 -32.5 -80 t-77.5 -29t-72 27.5t-27 70.5z" />
<glyph unicode="&#xe5;" horiz-adv-x="905" d="M89.5 181q-9.5 55 16 145.5t90.5 198.5q56 93 117.5 155.5t114.5 70.5q102 15 149 -36.5t51 -202.5q38 42 99 219h-4q2 0 6 1t15 2.5t21.5 2t24.5 -0.5t25 -4t20.5 -10t15 -17t5 -26t-7.5 -36q-41 -115 -109 -266t-91 -218.5t3 -84.5q30 -19 136 58t198.5 163.5 t125.5 125.5q11 -44 -64 -140.5t-173 -178.5t-149 -92q-83 -15 -143 29q-17 12 -28 25.5t-16.5 30.5t-7.5 31t-0.5 36.5t4 38t7 44t6.5 46.5q-21 -18 -56.5 -67.5t-65.5 -92t-76.5 -77t-94.5 -35.5q-31 0 -64.5 15t-62 53.5t-38 93.5zM239 91q7 -7 16 -10q23 -8 56.5 8.5 t63.5 50.5q77 87 165 271q28 57 33 157.5t-24 120.5q-43 25 -134 -95q-93 -125 -154 -284q-68 -174 -22 -219zM515.5 963q-9.5 47 8.5 94q11 30 78 91q99 91 148 83q27 -5 32 -43q2 -17 -9.5 -37t-26 -34.5t-42.5 -40.5t-41 -40q-64 -68 -58 -108q5 -31 47 -17q24 8 54 30 q22 17 36 38t18.5 36t11 45.5t10.5 46.5q51 3 51 -47q0 -58 -28 -111.5t-68.5 -84.5t-90 -29t-89.5 47q-32 34 -41.5 81z" />
<glyph unicode="&#xe6;" horiz-adv-x="1173" d="M87.5 181q-9.5 55 16 145.5t90.5 198.5q56 93 117.5 155.5t114.5 70.5q102 15 149 -36.5t51 -202.5q38 42 99 219h-4q66 15 105 -5q126 81 228 45q52 -18 73.5 -51t16.5 -68t-26 -74.5t-45 -69t-49 -53.5q-42 -41 -134.5 -86.5t-175.5 -63.5q-42 -161 15 -205 q33 -25 157 32t258.5 155t192.5 179q47 -28 -53.5 -142t-253.5 -214.5t-236 -95.5q-132 9 -198 84.5t-51 192.5q-21 -18 -56.5 -67.5t-65.5 -92t-76.5 -77t-94.5 -35.5q-31 0 -64.5 15t-62 53.5t-38 93.5zM237 91q7 -7 16 -10q23 -8 56.5 8.5t63.5 50.5q77 87 165 271 q28 57 33 157.5t-24 120.5q-43 25 -134 -95q-93 -125 -154 -284q-68 -174 -22 -219zM733 367q65 27 132.5 79.5t116.5 111.5q69 83 61 142q-5 38 -42 36q-57 -5 -133 -107q-21 -28 -42 -62q-15 -25 -30 -54q-19 -47 -63 -146z" />
<glyph unicode="&#xe7;" horiz-adv-x="745" d="M101.5 171.5q-14.5 68.5 0.5 142.5q22 104 114.5 240t164.5 178q36 21 95.5 25.5t116.5 -7.5t93 -52t24 -100q-13 -65 -60.5 -109t-89 -44.5t-61.5 26.5q59 51 93.5 101t31.5 85q-3 37 -37 44q-58 13 -145 -88q-47 -55 -96 -140t-78.5 -166t-29.5 -150.5t41 -97.5 q110 -72 416 183q90 75 205 190q20 -26 -9 -82t-94 -119t-146.5 -120t-177.5 -91t-175 -26q-80 8 -131 58.5t-65.5 119zM170 -307q0 15 25 18q34 4 53.5 7t46 12t47.5 24q41 31 41 68q0 20 -13 33q-15 17 -60.5 31t-49.5 16q-22 7 -22 14t12 43q22 64 37 84q31 -14 43 -30 q13 -17 13 -31l-8 -45q31 -9 52 -27q26 -21 41 -45q26 -36 26 -80q0 -42 -22.5 -77.5t-62.5 -55.5q-49 -23 -123 -23q-35 3 -61 35q-15 19 -15 29z" />
<glyph unicode="&#xe8;" horiz-adv-x="714" d="M95.5 223q-1.5 47 7.5 110q22 123 104 237.5t190 173.5t198 27q52 -18 73.5 -51t17 -68t-25.5 -74.5t-45 -69t-49 -53.5q-42 -41 -135 -86.5t-176 -63.5q-42 -161 15 -205q33 -25 157 32t258.5 155t192.5 179q47 -28 -53 -141.5t-253 -214t-236 -95.5q-34 2 -64 9 t-62.5 21.5t-54.5 37.5t-40 58t-19.5 82zM274 367q64 26 131.5 78.5t117.5 112.5q68 82 62 141q-5 38 -40 37q-56 -2 -132 -102q-22 -30 -45 -67q-57 -95 -94 -200zM462 1171q-1 29 3 41t14 5.5t17 -14t22 -27.5q3 -3 4 -5t3.5 -4.5t4 -5t3.5 -4.5q18 -21 51 -62.5t57 -72.5 l24 -31q-26 -64 -149 102z" />
<glyph unicode="&#xe9;" horiz-adv-x="714" d="M95.5 223q-1.5 47 7.5 110q22 123 104 237.5t190 173.5t198 27q52 -18 73.5 -51t17 -68t-25.5 -74.5t-45 -69t-49 -53.5q-42 -41 -135 -86.5t-176 -63.5q-42 -161 15 -205q33 -25 157 32t258.5 155t192.5 179q47 -28 -53 -141.5t-253 -214t-236 -95.5q-34 2 -64 9 t-62.5 21.5t-54.5 37.5t-40 58t-19.5 82zM274 367q64 26 131.5 78.5t117.5 112.5q68 82 62 141q-5 38 -40 37q-56 -2 -132 -102q-22 -30 -45 -67q-57 -95 -94 -200zM568 989q77 43 114.5 95t100.5 194q7 -5 18 -12t15 -10t11 -8t9 -8t5 -8t3 -9.5t-1 -10.5t-4 -13 q-9 -25 -34 -70.5t-71.5 -102t-89.5 -74.5q-22 -9 -36.5 -11t-21.5 4t-10 11.5t-5 17t-3 15.5z" />
<glyph unicode="&#xea;" horiz-adv-x="714" d="M95.5 223q-1.5 47 7.5 110q22 123 104 237.5t190 173.5t198 27q52 -18 73.5 -51t17 -68t-25.5 -74.5t-45 -69t-49 -53.5q-42 -41 -135 -86.5t-176 -63.5q-42 -161 15 -205q33 -25 157 32t258.5 155t192.5 179q47 -28 -53 -141.5t-253 -214t-236 -95.5q-34 2 -64 9 t-62.5 21.5t-54.5 37.5t-40 58t-19.5 82zM274 367q64 26 131.5 78.5t117.5 112.5q68 82 62 141q-5 38 -40 37q-56 -2 -132 -102q-22 -30 -45 -67q-57 -95 -94 -200zM441 1014q137 115 170 144q82 73 107 102q6 7 17 24.5t21.5 29t23.5 16.5q38 13 52 -52q19 -90 -7 -256 q-12 -69 -21 -84q-8 -13 -26.5 -17.5t-33.5 -2.5l-14 3q9 47 19 94t13 64t8 42.5t8 48t9 62.5q-17 -11 -108 -104q-135 -136 -188 -152q-43 -14 -50 38z" />
<glyph unicode="&#xeb;" horiz-adv-x="714" d="M95.5 223q-1.5 47 7.5 110q22 123 104 237.5t190 173.5t198 27q52 -18 73.5 -51t17 -68t-25.5 -74.5t-45 -69t-49 -53.5q-42 -41 -135 -86.5t-176 -63.5q-42 -161 15 -205q33 -25 157 32t258.5 155t192.5 179q47 -28 -53 -141.5t-253 -214t-236 -95.5q-34 2 -64 9 t-62.5 21.5t-54.5 37.5t-40 58t-19.5 82zM274 367q64 26 131.5 78.5t117.5 112.5q68 82 62 141q-5 38 -40 37q-56 -2 -132 -102q-22 -30 -45 -67q-57 -95 -94 -200zM374 1121q12 45 54 75.5t85 31.5q41 1 64.5 -27t13.5 -84q-8 -47 -48.5 -84t-88.5 -36q-49 1 -70 38t-10 86 zM427 1070q28 -8 58 11t45 44.5t8 34.5q-5 7 -32.5 -6.5t-53.5 -38.5t-25 -45zM749 1074q1 50 38 98.5t80 48.5q42 0 39 -54l-5 -2.5t-11.5 -7t-16.5 -11.5t-19 -14.5t-19.5 -16t-16 -17t-11 -18t-3 -17.5t6.5 -16q16 -11 41.5 -2t40.5 22q16 13 23 36.5t6 40.5v16 q16 13 26 -16.5t10 -58.5q1 -51 -32.5 -80t-77.5 -29t-72 27.5t-27 70.5z" />
<glyph unicode="&#xec;" horiz-adv-x="450" d="M63 208q18 92 66 222t87 214l39 84q3 1 8.5 2t20.5 4t29 3.5t31 1t29 -4t20.5 -12t8 -22t-10.5 -34.5q-37 -73 -98 -229t-97 -257q-29 -74 -15.5 -112t74.5 -3q39 22 136 115t175 175l78 82q16 -21 -10.5 -73t-80.5 -112t-117.5 -116.5t-128 -94t-104.5 -37.5 q-71 -1 -115.5 49t-24.5 155zM186 1127q-1 28 4 39t12 8t18 -15.5t22 -26.5l3 -4.5t3 -4t3 -4t3 -3.5t3 -4q18 -21 51 -62.5t56 -72.5l24 -31q-26 -64 -148 102z" />
<glyph unicode="&#xed;" horiz-adv-x="450" d="M63 208q18 92 66 222t87 214l39 84q3 1 8.5 2t20.5 4t29 3.5t31 1t29 -4t20.5 -12t8 -22t-10.5 -34.5q-37 -73 -98 -229t-97 -257q-29 -74 -15.5 -112t74.5 -3q39 22 136 115t175 175l78 82q16 -21 -10.5 -73t-80.5 -112t-117.5 -116.5t-128 -94t-104.5 -37.5 q-71 -1 -115.5 49t-24.5 155zM292 944q77 43 114.5 95t100.5 194q7 -5 18 -12t15 -10t11 -8t9 -8t5 -8t3 -9.5t-1 -10.5t-4 -13q-9 -25 -34 -70.5t-71.5 -102t-89.5 -74.5q-22 -9 -36.5 -11t-21.5 4t-10 11.5t-5 17t-3 15.5z" />
<glyph unicode="&#xee;" horiz-adv-x="450" d="M63 208q18 92 66 222t87 214l39 84q3 1 8.5 2t20.5 4t29 3.5t31 1t29 -4t20.5 -12t8 -22t-10.5 -34.5q-37 -73 -98 -229t-97 -257q-29 -74 -15.5 -112t74.5 -3q39 22 136 115t175 175l78 82q16 -21 -10.5 -73t-80.5 -112t-117.5 -116.5t-128 -94t-104.5 -37.5 q-71 -1 -115.5 49t-24.5 155zM165 969q137 115 170 144q78 69 106 102q6 7 17 24.5t21.5 29t23.5 16.5q38 13 52 -52q20 -90 -7 -256q-11 -69 -20 -84q-8 -13 -26.5 -17.5t-33.5 -1.5l-14 2q9 47 19 94t13 64t8 42.5t8 48t9 62.5q-17 -11 -108 -104q-135 -136 -188 -152 q-43 -14 -50 38z" />
<glyph unicode="&#xef;" horiz-adv-x="450" d="M63 208q18 92 66 222t87 214l39 84q3 1 8.5 2t20.5 4t29 3.5t31 1t29 -4t20.5 -12t8 -22t-10.5 -34.5q-37 -73 -98 -229t-97 -257q-29 -74 -15.5 -112t74.5 -3q39 22 136 115t175 175l78 82q16 -21 -10.5 -73t-80.5 -112t-117.5 -116.5t-128 -94t-104.5 -37.5 q-71 -1 -115.5 49t-24.5 155zM98 1076q12 45 54 75.5t85 31.5q41 1 64.5 -27t13.5 -84q-8 -46 -49 -83.5t-89 -36.5q-49 1 -69.5 38t-9.5 86zM151 1025q28 -8 57.5 11t44.5 44.5t8 34.5q-5 7 -32.5 -6.5t-53 -38.5t-24.5 -45zM473 1029q1 50 38 98.5t80 48.5q42 0 39 -54 l-5 -2.5t-11.5 -7t-17 -11.5t-19 -14.5t-19 -16t-16.5 -17t-11.5 -18t-3 -17.5t6.5 -16q16 -11 42 -2t41 22q16 13 23 36.5t6 39.5l-1 17q16 13 26.5 -16.5t10.5 -57.5q1 -51 -32.5 -80.5t-77.5 -29.5t-72 27.5t-27 70.5z" />
<glyph unicode="&#xf0;" horiz-adv-x="901" d="M131 133q-37 211 89 492q46 103 114 188t156 127q112 53 201.5 -2.5t118.5 -174.5q104 316 76 476q-79 -55 -110 -80q-4 -3 -22 -21.5t-34.5 -33t-36 -26.5t-34.5 -6.5t-21 31.5q-9 36 38 79.5t115.5 85.5t80.5 54q-56 50 -127.5 23t-134 -89t-100.5 -133q-4 -8 -10 -25 t-11 -32t-13.5 -32.5t-17 -26.5t-21.5 -13.5t-27 5.5q-25 14 -34.5 47.5t-6.5 65t12 56.5q26 72 87.5 137.5t147 102t164.5 18.5q15 -3 35 -12t39 -19.5t35 -20t27 -16.5l12 -7q23 3 45 22.5t37 42.5t35 45.5t39 29.5h1q8 0 20.5 0.5t18.5 0t12.5 -2.5t8.5 -9t0 -19 q-1 -9 -9.5 -21.5t-15 -19.5t-21.5 -21.5t-17 -16.5q-10 -10 -40.5 -35.5t-55.5 -46.5l-25 -20h2q3 -12 7.5 -30.5t12 -56t7.5 -52.5q0 -28 -5.5 -62.5t-11 -58.5t-15.5 -63.5t-14 -59.5q-29 -134 -65 -245.5t-90.5 -230.5t-133.5 -220t-179 -176q-68 -52 -139 -59 t-125.5 36t-70.5 131zM281 55q14 -60 54 -34q109 69 207.5 208.5t156.5 281.5q100 246 6 358q-19 22 -39.5 32.5t-41 7t-40.5 -13t-40 -30t-37.5 -41t-35 -49t-31 -50.5t-27.5 -50.5t-21.5 -43.5t-15.5 -34q-67 -147 -90 -315q-22 -152 -5 -227z" />
<glyph unicode="&#xf1;" horiz-adv-x="833" d="M-16.5 39q0.5 14 8.5 30q3 3 54.5 115.5t118.5 273.5t96 255q8 1 25 3t27 3t22 1t19 -4t9 -11q6 -19 -43 -124q90 118 174.5 159t160.5 -3q49 -31 63 -97t-11 -169t-90 -232q-71 -139 -43 -174q28 -38 149 72q128 116 319 366q16 -13 -8 -72.5t-75.5 -136.5 t-114.5 -152.5t-133.5 -128.5t-123.5 -56q-41 -2 -76.5 25t-53 85t5.5 148q12 47 39.5 116t51 125t42 110t17 89.5t-28.5 45.5q-35 13 -82 -12t-88.5 -71.5t-76 -100.5t-49.5 -99q-18 -54 -65 -164t-85 -194l-38 -83h5h-5.5h-14t-20.5 1t-22.5 4t-22.5 7t-19 11t-13.5 16 t-4 23zM350 1103q22 10 36 2l3 -3q0 -9 13.5 -16.5t27.5 -7.5q21 0 104.5 26t115.5 32q25 5 59 5q72 0 103 -26q22 -19 28 -36.5t3.5 -24t-12.5 -24.5q-60 33 -84 34q-23 0 -119 -37.5t-149 -37.5q-37 0 -74 11.5t-51 30.5q-43 54 -4 72z" />
<glyph unicode="&#xf2;" horiz-adv-x="798" d="M77.5 269.5q5.5 64.5 35.5 141.5t66.5 138t74.5 98.5t79.5 64t80 35t77.5 11.5t72 -6q76 -16 122 -75.5t32 -174.5q1 0 2 0.5t2 0.5q88 21 188.5 65t156 75.5t73.5 45.5q12 -40 -44.5 -94t-164 -102t-228.5 -69q-6 -23 -23 -72q-73 -202 -189 -287t-233 -57 q-38 9 -70.5 26.5t-60.5 50.5t-41 76.5t-7.5 108zM213.5 251.5q-13.5 -88.5 1 -132.5t47.5 -59q45 -19 102 28t104 127.5t74 167.5q6 16 10 33q-52 3 -98 16q-96 26 -139 95q-18 -32 -37 -73q-51 -114 -64.5 -202.5zM412 656q-42 -142 62 -154q50 -10 93 -11h5q20 82 12 135 t-49 71q-53 24 -123 -41zM486 1101q-1 48 13 48q11 0 46 -46q8 -10 13 -16q18 -21 51 -62.5t57 -72.5l23 -31q-26 -64 -149 102z" />
<glyph unicode="&#xf3;" horiz-adv-x="798" d="M77.5 269.5q5.5 64.5 35.5 141.5t66.5 138t74.5 98.5t79.5 64t80 35t77.5 11.5t72 -6q76 -16 122 -75.5t32 -174.5q1 0 2 0.5t2 0.5q88 21 188.5 65t156 75.5t73.5 45.5q12 -40 -44.5 -94t-164 -102t-228.5 -69q-6 -23 -23 -72q-73 -202 -189 -287t-233 -57 q-38 9 -70.5 26.5t-60.5 50.5t-41 76.5t-7.5 108zM213.5 251.5q-13.5 -88.5 1 -132.5t47.5 -59q45 -19 102 28t104 127.5t74 167.5q6 16 10 33q-52 3 -98 16q-96 26 -139 95q-18 -32 -37 -73q-51 -114 -64.5 -202.5zM412 656q-42 -142 62 -154q50 -10 93 -11h5q20 82 12 135 t-49 71q-53 24 -123 -41zM593 918q77 43 114.5 95t100.5 194q6 -4 17.5 -11.5t15.5 -10.5t11 -8t9 -8t5 -8t2.5 -9.5t-1.5 -10.5t-4 -13q-6 -16 -23 -47.5t-42.5 -72t-61 -76.5t-68.5 -50q-22 -9 -36.5 -11t-21.5 3.5t-9.5 11t-4.5 17t-3 15.5z" />
<glyph unicode="&#xf4;" horiz-adv-x="798" d="M77.5 269.5q5.5 64.5 35.5 141.5t66.5 138t74.5 98.5t79.5 64t80 35t77.5 11.5t72 -6q76 -16 122 -75.5t32 -174.5q1 0 2 0.5t2 0.5q88 21 188.5 65t156 75.5t73.5 45.5q12 -40 -44.5 -94t-164 -102t-228.5 -69q-6 -23 -23 -72q-73 -202 -189 -287t-233 -57 q-38 9 -70.5 26.5t-60.5 50.5t-41 76.5t-7.5 108zM213.5 251.5q-13.5 -88.5 1 -132.5t47.5 -59q45 -19 102 28t104 127.5t74 167.5q6 16 10 33q-52 3 -98 16q-96 26 -139 95q-18 -32 -37 -73q-51 -114 -64.5 -202.5zM412 656q-42 -142 62 -154q50 -10 93 -11h5q20 82 12 135 t-49 71q-53 24 -123 -41zM466 944q137 115 170 144q82 73 106 101q6 7 16.5 24.5t21.5 29.5t24 17q38 13 52 -52q19 -90 -7 -256q-12 -69 -21 -84q-8 -13 -26.5 -17.5t-33.5 -2.5l-14 3q9 47 19 94t13 64t8 42.5t8 48t9 62.5q-17 -11 -108 -104q-135 -137 -188 -153 q-42 -12 -49 39z" />
<glyph unicode="&#xf5;" horiz-adv-x="798" d="M77.5 269.5q5.5 64.5 35.5 141.5t66.5 138t74.5 98.5t79.5 64t80 35t77.5 11.5t72 -6q76 -16 122 -75.5t32 -174.5q1 0 2 0.5t2 0.5q88 21 188.5 65t156 75.5t73.5 45.5q12 -40 -44.5 -94t-164 -102t-228.5 -69q-6 -23 -23 -72q-73 -202 -189 -287t-233 -57 q-38 9 -70.5 26.5t-60.5 50.5t-41 76.5t-7.5 108zM213.5 251.5q-13.5 -88.5 1 -132.5t47.5 -59q45 -19 102 28t104 127.5t74 167.5q6 16 10 33q-52 3 -98 16q-96 26 -139 95q-18 -32 -37 -73q-51 -114 -64.5 -202.5zM412 656q-42 -142 62 -154q50 -10 93 -11h5q20 82 12 135 t-49 71q-53 24 -123 -41zM441 1073q22 10 36 2l3 -3q0 -9 13.5 -16.5t27.5 -7.5q21 0 105 25.5t115 31.5q30 6 59 6q72 0 103 -26q22 -19 28 -36.5t3.5 -24t-12.5 -24.5q-60 33 -84 34q-22 0 -69 -19t-102.5 -38t-96.5 -19q-37 0 -74 12t-51 31q-43 54 -4 72z" />
<glyph unicode="&#xf6;" horiz-adv-x="798" d="M77.5 269.5q5.5 64.5 35.5 141.5t66.5 138t74.5 98.5t79.5 64t80 35t77.5 11.5t72 -6q76 -16 122 -75.5t32 -174.5q1 0 2 0.5t2 0.5q88 21 188.5 65t156 75.5t73.5 45.5q12 -40 -44.5 -94t-164 -102t-228.5 -69q-6 -23 -23 -72q-73 -202 -189 -287t-233 -57 q-38 9 -70.5 26.5t-60.5 50.5t-41 76.5t-7.5 108zM213.5 251.5q-13.5 -88.5 1 -132.5t47.5 -59q45 -19 102 28t104 127.5t74 167.5q6 16 10 33q-52 3 -98 16q-96 26 -139 95q-18 -32 -37 -73q-51 -114 -64.5 -202.5zM398 1051q12 45 54 75t85 31q41 1 64.5 -27t13.5 -84 q-8 -46 -48.5 -83t-88.5 -36q-49 1 -70 38t-10 86zM412 656q-42 -142 62 -154q50 -10 93 -11h5q20 82 12 135t-49 71q-53 24 -123 -41zM451 999q28 -8 58 11t45 44.5t8 34.5q-5 7 -32.5 -6.5t-53.5 -38.5t-25 -45zM773 1004q1 50 38 98.5t81 48.5q41 0 38 -55l-5 -2.5 t-11.5 -7t-16.5 -11.5t-19 -14t-19.5 -16t-16 -17t-11 -17.5t-3 -17.5t6.5 -16q16 -11 41.5 -2.5t40.5 21.5q16 13 23 36.5t6 40.5v17q16 13 26 -16.5t10 -58.5q1 -51 -32.5 -80t-77.5 -29t-72 27.5t-27 70.5z" />
<glyph unicode="&#xf7;" horiz-adv-x="733" d="M103 691q-14 29 201 36q245 9 452 -11q104 -10 104 -23q-1 -33 -189.5 -40.5t-377 6t-190.5 32.5zM310.5 438q4.5 22 24.5 38t49 12q48 -6 60.5 -40.5t-14 -63t-70.5 -18.5q-29 6 -41.5 28t-8 44zM480.5 950q4.5 22 24.5 38t49 12q48 -6 60.5 -40.5t-14 -63t-70.5 -18.5 q-29 6 -41.5 28t-8 44z" />
<glyph unicode="&#xf8;" horiz-adv-x="737" d="M-78 54q-4 49 12.5 93t53.5 83.5t70.5 66.5t85.5 63q20 85 61 163.5t108 136t142 57.5q58 0 111 -34.5t68 -85.5q54 38 86.5 68.5t57 80t27.5 111.5q1 -1 8 -4.5t9 -5t8.5 -5.5t8.5 -7t6.5 -8.5t6.5 -11t4.5 -12.5t3.5 -16t1 -20q0 -34 -8 -62t-21 -49t-37 -43 t-49.5 -40.5t-64.5 -45.5q-10 -7 -15 -10q2 -32 -6.5 -81.5t-26 -106.5t-46.5 -114t-64.5 -103t-84 -75t-101.5 -29q-80 0 -143.5 63t-69.5 168q-80 -47 -111.5 -126t-12.5 -176q-3 2 -8 5.5t-17.5 15.5t-22.5 24.5t-19 32t-11 39.5zM205 180q0 -50 20 -76t47 -26 q39 0 79.5 28t74 71.5t62.5 96.5t49 103t31 92q-29 -12 -79.5 -33.5t-69 -29.5t-51 -22.5t-49.5 -23.5t-39.5 -21.5t-44.5 -26.5q-30 -68 -30 -132zM281 431q118 44 299 130q-5 52 -20 70q-17 18 -47 20q-59 -3 -130.5 -76t-101.5 -144z" />
<glyph unicode="&#xf9;" horiz-adv-x="927" d="M91 170.5q-9 47.5 8 120.5t64 158q34 61 86 166t65 148q52 -34 59.5 -102t-18 -142.5t-74.5 -162.5q-50 -90 -69.5 -154t-11.5 -94t34 -39q31 -11 77 9t84 60q130 135 318 607q2 1 6 2t16 3.5t23 4t25 2t25.5 -2t21 -9.5t14.5 -17.5t3.5 -28.5t-10.5 -42 q-9 -23 -30.5 -76t-40 -99.5t-41 -107t-36.5 -109.5t-23 -94.5t-4 -75.5t24 -40q25 -14 82 26t120.5 106t122.5 134.5t98 118.5l39 49q17 -8 -5.5 -61t-72.5 -124t-111 -139.5t-130.5 -115.5t-122.5 -45q-75 2 -121.5 64t-35.5 164q-85 -121 -163 -172.5t-144 -44.5 q-32 4 -62.5 20.5t-55 52t-33.5 83zM458 1150q-1 29 3 41t14 5.5t17 -14t22 -27.5q3 -3 4 -5t3.5 -4.5t4 -5t3.5 -4.5q18 -21 51 -62.5t56 -72.5l24 -31q-26 -64 -148 102z" />
<glyph unicode="&#xfa;" horiz-adv-x="927" d="M91 170.5q-9 47.5 8 120.5t64 158q34 61 86 166t65 148q52 -34 59.5 -102t-18 -142.5t-74.5 -162.5q-50 -90 -69.5 -154t-11.5 -94t34 -39q31 -11 77 9t84 60q130 135 318 607q2 1 6 2t16 3.5t23 4t25 2t25.5 -2t21 -9.5t14.5 -17.5t3.5 -28.5t-10.5 -42 q-9 -23 -30.5 -76t-40 -99.5t-41 -107t-36.5 -109.5t-23 -94.5t-4 -75.5t24 -40q25 -14 82 26t120.5 106t122.5 134.5t98 118.5l39 49q17 -8 -5.5 -61t-72.5 -124t-111 -139.5t-130.5 -115.5t-122.5 -45q-75 2 -121.5 64t-35.5 164q-85 -121 -163 -172.5t-144 -44.5 q-32 4 -62.5 20.5t-55 52t-33.5 83zM564 968q77 43 114.5 95t100.5 194q7 -5 18 -12t15 -10t11 -8t9 -8t5 -8t3 -9.5t-1 -10.5t-4 -13q-9 -25 -34 -70.5t-71.5 -102t-89.5 -74.5q-22 -9 -36.5 -11t-21.5 4t-10 11.5t-5 17t-3 15.5z" />
<glyph unicode="&#xfb;" horiz-adv-x="927" d="M91 170.5q-9 47.5 8 120.5t64 158q34 61 86 166t65 148q52 -34 59.5 -102t-18 -142.5t-74.5 -162.5q-50 -90 -69.5 -154t-11.5 -94t34 -39q31 -11 77 9t84 60q130 135 318 607q2 1 6 2t16 3.5t23 4t25 2t25.5 -2t21 -9.5t14.5 -17.5t3.5 -28.5t-10.5 -42 q-9 -23 -30.5 -76t-40 -99.5t-41 -107t-36.5 -109.5t-23 -94.5t-4 -75.5t24 -40q25 -14 82 26t120.5 106t122.5 134.5t98 118.5l39 49q17 -8 -5.5 -61t-72.5 -124t-111 -139.5t-130.5 -115.5t-122.5 -45q-75 2 -121.5 64t-35.5 164q-85 -121 -163 -172.5t-144 -44.5 q-32 4 -62.5 20.5t-55 52t-33.5 83zM437 993q137 115 170 144q78 69 106 102q6 7 17 24.5t21.5 29t23.5 16.5q38 13 52 -52q20 -90 -7 -256q-11 -69 -20 -84q-8 -13 -27 -17.5t-33 -1.5l-15 2q9 47 19 94t13 64t8 42.5t8 48t9 62.5q-17 -11 -108 -104q-135 -137 -188 -153 q-42 -12 -49 39z" />
<glyph unicode="&#xfc;" horiz-adv-x="927" d="M91 170.5q-9 47.5 8 120.5t64 158q34 61 86 166t65 148q52 -34 59.5 -102t-18 -142.5t-74.5 -162.5q-50 -90 -69.5 -154t-11.5 -94t34 -39q31 -11 77 9t84 60q130 135 318 607q2 1 6 2t16 3.5t23 4t25 2t25.5 -2t21 -9.5t14.5 -17.5t3.5 -28.5t-10.5 -42 q-9 -23 -30.5 -76t-40 -99.5t-41 -107t-36.5 -109.5t-23 -94.5t-4 -75.5t24 -40q25 -14 82 26t120.5 106t122.5 134.5t98 118.5l39 49q17 -8 -5.5 -61t-72.5 -124t-111 -139.5t-130.5 -115.5t-122.5 -45q-75 2 -121.5 64t-35.5 164q-85 -121 -163 -172.5t-144 -44.5 q-32 4 -62.5 20.5t-55 52t-33.5 83zM370 1100q12 45 54 75.5t85 31.5q41 1 64.5 -27t13.5 -84q-8 -46 -49 -83.5t-89 -36.5q-49 1 -69.5 38t-9.5 86zM423 1049q28 -8 57.5 11t44.5 44.5t8 34.5q-5 7 -32.5 -6.5t-53 -38.5t-24.5 -45zM745 1053q1 50 38 98.5t80 48.5 q42 0 39 -54l-5 -2.5t-11.5 -7t-17 -11.5t-19 -14.5t-19 -16t-16.5 -17t-11.5 -18t-3 -17.5t6.5 -16q16 -11 41.5 -2t40.5 22q16 13 23 36.5t7 39.5l-1 17q16 13 26.5 -17t10.5 -58q1 -51 -32.5 -80t-77.5 -29t-72 27.5t-27 70.5z" />
<glyph unicode="&#xfd;" horiz-adv-x="811" d="M-46 -653.5q-7 59.5 16 124.5t84.5 132t150.5 116q74 40 150 47q18 54 57 175.5t68 205t59 149.5q-10 -13 -32.5 -44t-36 -48.5t-36 -46t-40 -45t-40.5 -38t-44 -32t-45.5 -19t-49.5 -7.5t-50 10q-84 29 -84 136q0 65 28 140t64 135t77 145.5t60 161.5q42 -24 54.5 -65 t-4.5 -102.5t-44.5 -122t-77.5 -151.5q-97 -179 -63 -230q15 -24 47.5 -16.5t69 32.5t71.5 61q83 87 180.5 269.5t141.5 301.5q0 2 16.5 7t38.5 8t43 -2.5t29 -25t-2 -58.5q-22 -74 -127 -359t-205 -537q36 -12 67.5 -32.5t51.5 -43.5t31.5 -46t10.5 -42.5t-13 -29.5 q-78 103 -175 129q-91 -227 -141 -326q-35 -71 -88 -115t-111 -48t-111 48q-39 39 -46 98.5zM3 -660.5q0 -31.5 12 -52t29 -29.5t43 3.5t54 48.5q96 124 187 381q-74 -16 -144.5 -69.5t-114.5 -112t-58 -107.5q-8 -31 -8 -62.5zM524 920q78 43 115.5 95.5t100.5 193.5 q6 -4 17.5 -11.5t15.5 -10.5t11 -8t9 -8t5 -8t2.5 -9.5t-1.5 -10.5t-4 -13q-6 -16 -23 -47.5t-42.5 -72t-61 -76.5t-68.5 -50q-22 -9 -36.5 -11t-21.5 3.5t-10 11t-5 17t-3 15.5z" />
<glyph unicode="&#xfe;" horiz-adv-x="897" d="M-96 -434q39 99 295 851t273 823q10 41 21 69t31.5 54.5t55 38.5t83.5 8q-54 -154 -63 -197q43 32 91 42.5t89.5 -1.5t75.5 -38.5t53.5 -70.5t18.5 -96q-1 -75 -20 -170.5t-34.5 -147t-50.5 -164.5q-19 -60 -43 -119.5t-59 -125.5t-74.5 -121t-91 -101t-106.5 -71 t-122.5 -25.5t-138.5 30.5l-5 -16l-13.5 -40.5t-19.5 -59t-24.5 -71t-28 -76.5t-30 -75.5t-30 -67t-28.5 -52.5t-25 -31q-12 -6 -29.5 -1.5t-34.5 13.5zM213 96q16 -18 49 -19t80.5 22t97.5 69t104 136t95 210l22 62q22 61 38 109.5t41 128t38.5 140t22.5 120t1 94t-33 37.5 q-55 8 -127.5 -48.5t-106.5 -113.5q-21 -35 -157.5 -442t-164.5 -505z" />
<glyph unicode="&#xff;" horiz-adv-x="811" d="M-46 -653.5q-7 59.5 16 124.5t84.5 132t150.5 116q74 40 150 47q18 54 57 175.5t68 205t59 149.5q-10 -13 -32.5 -44t-36 -48.5t-36 -46t-40 -45t-40.5 -38t-44 -32t-45.5 -19t-49.5 -7.5t-50 10q-84 29 -84 136q0 65 28 140t64 135t77 145.5t60 161.5q42 -24 54.5 -65 t-4.5 -102.5t-44.5 -122t-77.5 -151.5q-97 -179 -63 -230q15 -24 47.5 -16.5t69 32.5t71.5 61q83 87 180.5 269.5t141.5 301.5q0 2 16.5 7t38.5 8t43 -2.5t29 -25t-2 -58.5q-22 -74 -127 -359t-205 -537q36 -12 67.5 -32.5t51.5 -43.5t31.5 -46t10.5 -42.5t-13 -29.5 q-78 103 -175 129q-91 -227 -141 -326q-35 -71 -88 -115t-111 -48t-111 48q-39 39 -46 98.5zM3 -660.5q0 -31.5 12 -52t29 -29.5t43 3.5t54 48.5q96 124 187 381q-74 -16 -144.5 -69.5t-114.5 -112t-58 -107.5q-8 -31 -8 -62.5zM330 1053q12 45 54 75t85 31q41 1 64.5 -27 t13.5 -84q-8 -47 -48.5 -84t-88.5 -36q-49 1 -70 38.5t-10 86.5zM383 1001q28 -8 58 11t45 44.5t8 34.5q-5 7 -32.5 -6.5t-53.5 -38.5t-25 -45zM705 1006q1 50 38 98.5t80 48.5q42 0 39 -55l-5 -2.5t-11.5 -7t-16.5 -11.5t-19 -14.5t-19.5 -16t-16 -17t-11 -18t-3 -17.5 t6.5 -16q16 -11 41.5 -2t40.5 22q16 13 23 36.5t6 40.5v17q16 13 26 -16.5t10 -58.5q1 -51 -32.5 -80t-77.5 -29t-72 27.5t-27 70.5z" />
<glyph unicode="&#x152;" horiz-adv-x="2250" d="M243 382q5 220 59.5 416t137.5 331.5t183 231t200 134t184 22.5q144 -28 219.5 -92t101.5 -184t7 -325l-188 -516q-84 -140 -186 -250.5t-183 -157.5q-69 -40 -147 -44t-146.5 27t-124.5 86.5t-87.5 140t-29.5 180.5zM431.5 397q-9.5 -107 3.5 -189t44.5 -127t75.5 -56 q55 -14 123.5 23.5t143.5 123.5t153.5 239t143.5 352q201 613 -11 684q-26 9 -66.5 -0.5t-94.5 -44t-110.5 -88.5t-118.5 -145t-114 -204q-76 -165 -119.5 -313t-53 -255zM1082 532q0 285 211 484q62 59 170 103q13 5 51 13.5t70 15.5l31 6l7 21q-10 -9 -20 40 q-11 55 -11 91q0 89 63 166.5t165 111.5q25 9 65 9q82 0 156.5 -44t97.5 -103q21 -55 21 -98q0 -42 -20 -90q-12 -28 -40.5 -49t-67.5 -21q-27 0 -43 7q-41 21 -41 17q0 1 10 6.5t24.5 20.5t22.5 38q1 2 10 22t15 35.5t12 40t6 44.5q0 41 -22.5 69t-61.5 28q-43 0 -89.5 -30 t-86.5 -78q-24 -29 -48 -87t-24 -109q0 -46 15 -73l39 -35l1 -1q7 -5 15.5 -11t13.5 -9.5t7 -4.5q56 -34 77 -60q44 -53 44 -73q0 1 -3 -1t-12.5 -4.5t-21.5 -2.5q-22 0 -43 7q-58 23 -83 44q-14 12 -30 25.5t-27.5 23.5t-13.5 11v9l-38 -1q-99 -4 -177.5 -64.5 t-160.5 -170.5q-50 -66 -81 -168t-31 -202q0 -96 26 -169q58 -168 158 -224q70 -38 162 -38q39 0 82 6q128 18 236.5 99t171.5 214q43 91 43 176q0 53 -18.5 82t-38.5 29q-25 0 -65 -36q-72 -64 -96 -190q-2 -10 -2.5 -33.5t-2.5 -39.5t-9 -19q-13 -5 -32.5 5t-30 20 t-16.5 17q-40 52 -40 108q0 64 34.5 124.5t97.5 100.5q43 28 105 28q87 0 152 -62.5t83 -143.5q8 -36 8 -68q0 -95 -52 -190.5t-140 -174.5q-69 -62 -171.5 -100t-207.5 -38q-67 0 -118 15q-117 28 -208.5 100t-146.5 167q-87 149 -87 316z" />
<glyph unicode="&#x153;" horiz-adv-x="1159" d="M77.5 269.5q5.5 64.5 35.5 141.5t66.5 138t74.5 98.5t79.5 64t80 35t77.5 11.5t72 -6q76 -16 122 -75.5t32 -174.5q1 0 2 0.5t2 0.5l-19 -79q-6 -23 -23 -72q-73 -202 -189 -287t-233 -57q-38 9 -70.5 26.5t-60.5 50.5t-41 76.5t-7.5 108zM213.5 251.5 q-13.5 -88.5 1 -132.5t47.5 -59q45 -19 102 28t104 127.5t74 167.5q6 16 10 33q-52 3 -98 16q-96 26 -139 95q-18 -32 -37 -73q-51 -114 -64.5 -202.5zM412 656q-42 -142 62 -154q50 -10 93 -11h5q20 82 12 135.5t-49 71.5q-53 23 -123 -42zM539.5 223q-1.5 47 7.5 110 q22 123 104 237.5t190 173.5t198 27q52 -18 73.5 -51t17 -68t-25.5 -74.5t-45 -69t-49 -53.5q-42 -41 -134.5 -86.5t-175.5 -63.5q-42 -162 14 -205q33 -25 157 32t258.5 155t192.5 179q47 -28 -53 -141.5t-253 -214t-236 -95.5q-34 2 -64 9t-62.5 21.5t-54.5 37.5t-40 58 t-19.5 82zM719 367q64 26 131.5 78.5t117.5 112.5q69 83 61 142q-5 38 -42 36q-57 -5 -133 -107q-21 -28 -42 -62q-54 -91 -93 -200z" />
<glyph unicode="&#x178;" horiz-adv-x="1253" d="M45 1179q15 111 65 208t130 156.5t169 53.5q65 -4 116.5 -54t78 -127.5t34.5 -174t-14 -194.5q-14 -72 -69 -180t-118 -209t-121.5 -198t-85.5 -170t-4 -102q20 -25 56.5 -26.5t92 26.5t123.5 85t154.5 160t179.5 239t204.5 334t225.5 434l1 17q5 1 13 3.5t30 6t40.5 4 t39 -5t31 -17.5t11 -36.5t-15.5 -60.5l-44 -97q-43 -98 -53.5 -124t-50.5 -125.5t-62.5 -170t-58 -187t-67.5 -242.5q-63 -248 -131 -454q68 -8 123.5 -25t101.5 -45.5t71 -74.5t23 -105q-148 150 -355 143q-98 -276 -190 -410.5t-189 -170.5q-49 -17 -86.5 -8t-63 40.5 t-38.5 74.5t-12 93.5t15 98.5q25 82 82.5 155t128 121t140.5 78.5t129 40.5q60 201 102.5 374.5t74 326.5t43.5 201q-462 -754 -731 -763q-25 -1 -54 5t-60.5 22.5t-56 42t-39 68t-10.5 96.5q6 79 40.5 161.5t85.5 161.5t105.5 160.5t109 190t85.5 218.5q30 99 27.5 177 t-42.5 106q-38 27 -98.5 -5.5t-119 -100t-110.5 -156.5t-76 -169zM395.5 -646q5.5 -33 30.5 -48q40 -25 86.5 5.5t93.5 107t91.5 178.5t87.5 229q-50 -15 -102 -48t-96 -75t-82.5 -89.5t-63.5 -95t-38 -89.5t-7.5 -75zM749 2246q12 45 54.5 75.5t85.5 31.5q41 1 64.5 -27 t13.5 -84q-8 -46 -49 -83.5t-89 -36.5q-49 1 -70 38t-10 86zM803 2195q28 -8 57.5 10.5t44.5 44t8 34.5q-5 7 -32.5 -6.5t-53 -38t-24.5 -44.5zM1125 2199q1 50 38 98.5t80 48.5q42 0 39 -55l-5 -2.5t-11.5 -7t-17 -11.5t-19 -14t-19 -16t-16.5 -17t-11.5 -17.5t-3 -17.5 t6.5 -16q16 -11 41.5 -2t40.5 22q16 13 23 36.5t7 39.5l-1 17q16 13 26.5 -17t10.5 -58q1 -51 -32.5 -80t-77.5 -29t-72 27.5t-27 70.5z" />
<glyph unicode="&#x2c6;" horiz-adv-x="0" d="M-205 1261q137 115 170 144q82 73 106 101q6 7 16.5 24.5t21.5 29.5t24 17q38 13 52 -52q20 -90 -7 -256q-11 -69 -20 -84q-8 -13 -26.5 -17.5t-33.5 -1.5l-14 2q9 47 19 94t13 64t8 42.5t8 48t9 62.5q-17 -11 -108 -104q-135 -136 -188 -152q-43 -14 -50 38z" />
<glyph unicode="&#x2dc;" horiz-adv-x="0" d="M-229 1390q22 10 36 2l3 -3q0 -9 13 -16.5t27 -7.5q21 0 104.5 26t115.5 32q25 5 59 5q72 0 103 -26q17 -15 25.5 -26.5t7 -24t-3 -16.5t-9.5 -18q-60 33 -85 34q-22 0 -69 -18.5t-102 -37.5t-96 -19q-37 0 -74 11.5t-51 30.5q-43 54 -4 72z" />
<glyph unicode="&#x2000;" horiz-adv-x="1201" />
<glyph unicode="&#x2001;" horiz-adv-x="2403" />
<glyph unicode="&#x2002;" horiz-adv-x="1201" />
<glyph unicode="&#x2003;" horiz-adv-x="2403" />
<glyph unicode="&#x2004;" horiz-adv-x="801" />
<glyph unicode="&#x2005;" horiz-adv-x="600" />
<glyph unicode="&#x2006;" horiz-adv-x="400" />
<glyph unicode="&#x2007;" horiz-adv-x="400" />
<glyph unicode="&#x2008;" horiz-adv-x="300" />
<glyph unicode="&#x2009;" horiz-adv-x="480" />
<glyph unicode="&#x200a;" horiz-adv-x="133" />
<glyph unicode="&#x2010;" horiz-adv-x="1107" d="M166 638l797 10q62 -4 96 -22t31 -56q-295 3 -503 1q-12 0 -72.5 -5.5t-115.5 -7.5t-115 1.5t-92.5 23.5t-25.5 55z" />
<glyph unicode="&#x2011;" horiz-adv-x="1107" d="M166 638l797 10q62 -4 96 -22t31 -56q-295 3 -503 1q-12 0 -72.5 -5.5t-115.5 -7.5t-115 1.5t-92.5 23.5t-25.5 55z" />
<glyph unicode="&#x2012;" horiz-adv-x="1107" d="M166 638l797 10q62 -4 96 -22t31 -56q-295 3 -503 1q-12 0 -72.5 -5.5t-115.5 -7.5t-115 1.5t-92.5 23.5t-25.5 55z" />
<glyph unicode="&#x2013;" horiz-adv-x="1107" d="M205.5 685.5q-0.5 14.5 5.5 36.5q248 9 282 10q126 4 250.5 22t199 28.5t121.5 1.5q24 -5 40 -22t20 -32l4 -15q-227 -25 -734 -53q-7 0 -26 -2.5t-36.5 -5t-41 -3.5t-39 2t-30.5 10.5t-15.5 22z" />
<glyph unicode="&#x2014;" horiz-adv-x="1441" d="M219 702q1 9 9 19q94 -14 169 -14.5t241 13.5l506 27q9 1 55.5 9.5t98.5 15t90 5.5q45 -1 63 -12t20.5 -29t4.5 -20q-211 -24 -286.5 -32.5t-136.5 -13t-80 -4t-123.5 -3t-261.5 -12.5q-377 -20 -369 51z" />
<glyph unicode="&#x2018;" horiz-adv-x="329" d="M417 1293q-22 76 67 160q66 61 134 79q56 15 56 -20v-4l-24 -8t-52.5 -22t-65.5 -35.5t-49.5 -47.5t-17.5 -59q7 25 47 20q43 -6 61 -36q12 -21 3 -46q-14 -38 -49 -46t-67.5 12t-42.5 53z" />
<glyph unicode="&#x2019;" horiz-adv-x="342" d="M401 1448q6 30 31 54.5t53 27t52 -24.5q20 -26 26 -65.5t-13 -95t-69 -102.5q-58 -56 -67 6q44 25 77.5 68t24.5 87q-8 -3 -25.5 -12.5t-24.5 -10.5t-28 1q-47 16 -37 67z" />
<glyph unicode="&#x201a;" horiz-adv-x="307" d="M71 77q21 49 76 52q7 1 15 0q17 -1 32 -13.5t24 -36.5t10 -54.5t-11.5 -71.5t-39.5 -84q-21 -35 -36 -51.5t-26.5 -15t-16.5 6.5t-16 21l8 6q7 6 11 10t12.5 13t14.5 17.5t14.5 22.5t14.5 28.5t12 34t10 41.5q-70 -37 -101 1q-24 30 -7 73z" />
<glyph unicode="&#x201c;" horiz-adv-x="491" d="M392 1310q-7 39 10.5 94.5t66.5 104.5q58 58 68 -5q-44 -26 -76.5 -70t-22.5 -87q8 3 23.5 12t27.5 12.5t26 -0.5q22 -7 32 -25t6 -41q-5 -30 -29.5 -55t-52.5 -28.5t-52 23.5q-20 26 -27 65zM629 1319q-2 30 10 71.5t38 85.5q21 35 35 52t25.5 16t17 -6t16.5 -21l-9 -7 q-9 -8 -13.5 -13.5t-14.5 -16.5t-17 -23.5t-15 -29.5t-14.5 -38.5t-10.5 -46.5q69 39 101 1q25 -29 9 -72q-18 -48 -70 -54q-10 -2 -20 -1q-17 1 -32.5 13.5t-24.5 36t-11 53.5z" />
<glyph unicode="&#x201d;" horiz-adv-x="491" d="M393 1488q21 49 76 52q7 1 15 0q17 -1 32 -14t24 -36.5t10 -54t-11.5 -72t-39.5 -84.5q-21 -35 -36 -51.5t-26 -15t-16 6.5t-16 21l7 6q6 5 9.5 8t10.5 10.5t12.5 14.5t12.5 17.5t13 22.5t12 26t10.5 32t8.5 37q-70 -37 -101 1q-24 30 -7 73zM627 1448q6 30 30.5 54.5 t53 27t51.5 -24.5q20 -26 26 -65.5t-12.5 -95t-68.5 -102.5q-59 -57 -68 6q44 25 77.5 68t24.5 87q-8 -3 -25.5 -12.5t-24.5 -10.5t-28 1q-22 7 -31.5 25.5t-4.5 41.5z" />
<glyph unicode="&#x201e;" horiz-adv-x="532" d="M73 120q21 49 76 52q7 1 15 0q17 -1 32 -13.5t24 -36.5t10 -54.5t-11.5 -71.5t-39.5 -84q-21 -35 -36 -51.5t-26.5 -15t-16.5 6.5t-16 21l8 6q7 6 11 10t12.5 13t14.5 17.5t14.5 22.5t14.5 28.5t12 34t10 41.5q-70 -37 -101 1q-24 30 -7 73zM306 81q9 48 56 72t80 -16 q20 -26 26 -65.5t-13 -94.5t-69 -102q-59 -57 -68 6q44 25 78 68t25 87q-8 -3 -25.5 -12.5t-24.5 -10.5t-28 1q-47 16 -37 67z" />
<glyph unicode="&#x2022;" horiz-adv-x="387" d="M185 720q-5 80 54 140.5t189 75.5l7 -21t3 -16.5t0.5 -12.5t-5 -10.5t-7.5 -8t-13 -7t-15.5 -6.5t-20.5 -7.5t-24 -8.5q-72 -27 -101 -76q-24 -41 6 -58q18 -10 52 -6q118 14 77 145q30 2 47.5 -28.5t16 -65t-10.5 -57.5q-24 -47 -84.5 -63.5t-113.5 8t-57 83.5z" />
<glyph unicode="&#x2026;" horiz-adv-x="1277" d="M158 100q10 43 45 48q11 1 34 -17t27 -26q10 -20 5.5 -46.5t-22.5 -40.5q-48 -39 -77 1q-23 34 -12 81zM548.5 62q1.5 24 18 46t43.5 28q38 8 56 -33t-2 -76q-18 -30 -57 -29q-30 1 -45 20.5t-13.5 43.5zM993.5 47.5q-5.5 22.5 5.5 42.5t34 34t48 11q40 -3 42 -44 q3 -40 -28 -69q-30 -28 -69 -10q-27 13 -32.5 35.5z" />
<glyph unicode="&#x202f;" horiz-adv-x="480" />
<glyph unicode="&#x2039;" horiz-adv-x="471" d="M87 447q1 10 5 14t15.5 8.5t19.5 9.5q204 128 435 362q53 -2 -32 -101q-90 -104 -235 -213q-61 -46 -110 -74q81 -52 149 -189q61 -124 56 -200q-4 -60 -55 -46q-23 66 -32 88q-77 191 -168 285q-1 1 -16 13.5t-23.5 23t-8.5 19.5z" />
<glyph unicode="&#x203a;" horiz-adv-x="512" d="M114 61q4 26 25 66q57 99 138.5 187.5t168.5 135.5q-88 62 -179 185.5t-85 174.5q3 21 26 22q147 -230 305 -356q6 -5 16 -9.5t12.5 -8.5t-0.5 -14q-2 -8 -14.5 -19t-30.5 -22.5t-21 -13.5q-171 -131 -331 -388q-18 10 -26 22t-4 38z" />
<glyph unicode="&#x205f;" horiz-adv-x="600" />
<glyph unicode="&#x20ac;" horiz-adv-x="815" d="M133 583q100 -13 197 -26q46 116 107 308q-15 1 -40 2t-45.5 2t-44.5 2.5t-42 4t-33.5 7t-22.5 11.5t-6 16q163 -14 248 -9q14 37 36.5 97t35.5 94.5t28.5 73t25.5 60t17 28.5q12 12 34 16.5t40 3.5t52.5 -5.5t48.5 -5.5q52 -3 106 -2.5t95 3.5l40 2q4 -22 -10.5 -37.5 t-55.5 -15.5q-63 7 -197 8q-33 -96 -71.5 -177t-59.5 -142q16 -2 69.5 -2.5t99.5 0.5l46 1q6 -17 1 -27.5t-19 -14t-34 -4t-43 1.5q-23 1 -46 3.5t-30.5 2.5t-57.5 -1q-27 -43 -58.5 -149t-53.5 -161q39 -2 70 1t74 2t129 -11q-10 -22 -31 -26.5t-45 1.5q-109 16 -209 -5 l-71 -269q-1 -5 -9 -29.5t-12.5 -42t-2 -36t15.5 -25.5q12 -7 38.5 -9.5t53.5 -2t66.5 4t62.5 6.5t57 7.5t36 4.5q-3 -15 -6 -23t-14 -17.5t-29 -14.5q-27 -8 -85.5 -11t-137.5 7t-132 36q-79 38 -77 106q0 32 22.5 112t45.5 144l22 65q-15 3 -44 5.5t-52 5.5t-46 7.5 t-35.5 14t-11.5 23.5z" />
<glyph unicode="&#x2122;" horiz-adv-x="1474" d="M274 1432q19 45 89 70q28 9 60 13q76 8 199 -7q114 -14 173 -12q82 3 118 49.5t15 87.5q50 -8 64 -51q15 -48 -29 -90q-41 -39 -117 -50q-68 -10 -144 -3q-21 -59 -50 -133.5t-73.5 -184t-86.5 -188.5t-67 -95q-47 20 -53 39q73 216 253 575q-118 26 -173 22 q-111 -7 -152 -105q-43 21 -26 63zM738 1535q0 31 14 53q29 48 138 69l42 -17q-47 -36 -80 -82q-34 -54 -18 -90t57 -32q44 4 102.5 36t76.5 52q7 7 33.5 3.5t28.5 -10.5l-18 -69q68 44 123 34q31 -6 55 -36t31 -72q73 68 128.5 94.5t115.5 0.5q72 -31 84.5 -88t-31.5 -161 q-17 -41 -90 -156.5t-103 -178.5q-42 -88 -36.5 -143.5t26.5 -81t44 -24.5q32 2 71 37.5t71 93.5q39 -26 32.5 -70t-55.5 -78q-29 -21 -73.5 -26t-89.5 7.5t-78 60t-36 124.5q-2 69 26.5 155t65 152.5t83.5 150.5t66 127q22 49 14 66.5t-29.5 15t-49.5 -20.5 q-28 -17 -74 -80q-31 -42 -88.5 -152t-105 -198t-62.5 -96l-83 24q146 359 160 444q12 68 -15 76q-31 9 -80 -72q-38 -63 -76 -164q-11 -46 -18.5 -72t-22.5 -74.5t-31.5 -77.5t-39 -60.5t-51.5 -47t-63 -15.5q-46 0 -65.5 25.5t-14 64t20.5 76t36 67.5q29 42 72.5 96.5 t64 82.5t38.5 68.5t21 82.5q-71 -21 -120 -22t-84 19t-47.5 49t-12.5 60zM809 904q44 36 84 120.5t53 149.5q-61 -76 -99.5 -153t-37.5 -117z" />
<glyph unicode="&#xe000;" horiz-adv-x="901" d="M0 0v901h901v-901h-901z" />
</font>
</defs>
</svg>
